<?xml version="1.0" encoding="utf-8"?>
<!-- Generator: Adobe Illustrator 15.1.0, SVG Export Plug-In . SVG Version: 6.00 Build 0)  -->
<!DOCTYPE svg PUBLIC "-//W3C//DTD SVG 1.1 Tiny//EN" "http://www.w3.org/Graphics/SVG/1.1/DTD/svg11-tiny.dtd">
<svg version="1.1" baseProfile="tiny" id="Layer_1" xmlns="http://www.w3.org/2000/svg" xmlns:xlink="http://www.w3.org/1999/xlink"
	 x="0px" y="0px" width="350px" height="266px" viewBox="0 0 350 266" xml:space="preserve">
<rect x="16" fill="#999999" width="318" height="200"/>
<rect x="26" y="9" fill="#2980B9" width="298" height="178"/>
<polygon fill="#666666" points="350,254 0,254 15.909,200 334.091,200 "/>
<polygon fill="#4D4D4D" points="323.153,229 26.847,229 34.139,200 315.861,200 "/>
<polygon fill="#4D4D4D" points="239.199,252 110.8,252 113.602,238 236.896,238 "/>
<rect y="254" fill="#999999" width="350" height="12"/>
<g>
</g>
<path fill="#999999" stroke="#666666" stroke-miterlimit="10" d="M275.5,238.009c0,0.824-0.668,1.491-1.491,1.491H76.991
	c-0.824,0-1.491-0.667-1.491-1.491V107.991c0-0.824,0.667-1.491,1.491-1.491h197.018c0.823,0,1.491,0.667,1.491,1.491V238.009z"/>
<rect x="83" y="110" fill="#34495E" width="185" height="127"/>
<path fill="#666666" d="M216.809,120c-1.135-4-17.355-7.169-37.208-7.169S143.527,116,142.391,120H142v139h0.391
	c-0.041,0-0.068,0.407-0.068,0.559c0,4.206,16.69,7.673,37.278,7.673c20.589,0,37.279-3.493,37.279-7.7
	c0-0.15-0.026-0.531-0.071-0.531H217V120H216.809z M160.604,117.156c0.791,0,1.432,0.642,1.432,1.434
	c0,0.792-0.641,1.434-1.432,1.434c-0.793,0-1.436-0.642-1.436-1.434C159.168,117.798,159.811,117.156,160.604,117.156z
	 M177.809,118.351c0-0.99,0.802-1.793,1.792-1.793s1.792,0.803,1.792,1.793c0,0.99-0.802,1.792-1.792,1.792
	S177.809,119.34,177.809,118.351z M215,123v134h-71V123H215z M195,260c0,0.553-0.447,1-1,1h-31c-0.553,0-1-0.447-1-1l0,0
	c0-0.553,0.447-1,1-1h31C194.553,259,195,259.447,195,260L195,260z"/>
<path fill="#BDC3C7" d="M195,260c0-0.553-0.447-1-1-1h-31c-0.553,0-1,0.447-1,1l0,0c0,0.553,0.447,1,1,1h31
	C194.553,261,195,260.553,195,260L195,260z"/>
<circle fill="#BDC3C7" cx="160.604" cy="118.59" r="1.434"/>
<circle fill="#A9A9AA" cx="179.601" cy="118.351" r="1.792"/>
<rect x="144" y="123" fill="#2ECC71" width="71" height="134"/>
</svg>
