<?xml version="1.0" encoding="utf-8"?>
<!-- Generator: Adobe Illustrator 15.1.0, SVG Export Plug-In . SVG Version: 6.00 Build 0)  -->
<!DOCTYPE svg PUBLIC "-//W3C//DTD SVG 1.1 Tiny//EN" "http://www.w3.org/Graphics/SVG/1.1/DTD/svg11-tiny.dtd">
<svg version="1.1" baseProfile="tiny" id="Layer_1" xmlns="http://www.w3.org/2000/svg" xmlns:xlink="http://www.w3.org/1999/xlink"
	 x="0px" y="0px" width="424px" height="341.193px" viewBox="0 0 424 341.193" xml:space="preserve">
<rect x="16" fill="#999999" width="318" height="200"/>
<rect x="26" y="9" fill="#2980B9" width="298" height="178"/>
<polygon fill="#666666" points="350,254 0,254 15.909,200 334.091,200 "/>
<polygon fill="#4D4D4D" points="323.153,229 26.847,229 34.139,200 315.861,200 "/>
<polygon fill="#4D4D4D" points="239.199,252 110.8,252 113.602,238 236.896,238 "/>
<rect y="254" fill="#999999" width="350" height="12"/>
<g>
</g>
<path fill="#999999" stroke="#666666" stroke-miterlimit="10" d="M423.5,274.5c0,1.104-0.896,2-2,2h-264c-1.104,0-2-0.896-2-2v-175
	c0-1.104,0.896-2,2-2h264c1.104,0,2,0.896,2,2V274.5z"/>
<rect x="165" y="102" fill="#34495E" width="248" height="170"/>
<path fill="#666666" d="M344.905,144c-1.522-5-23.278-9.615-49.905-9.615S246.617,139,245.093,144H245v186h0.093
	c-0.056,0-0.093,0.648-0.093,0.852c0,5.641,22.387,10.342,50,10.342c27.614,0,50-4.763,50-10.404c0-0.202-0.036-0.789-0.095-0.789
	H345V144H344.905z M269.52,139.958c1.062,0,1.922,0.861,1.922,1.923s-0.86,1.923-1.922,1.923c-1.063,0-1.924-0.861-1.924-1.923
	S268.457,139.958,269.52,139.958z M292.596,141.56c0-1.328,1.076-2.404,2.404-2.404s2.404,1.076,2.404,2.404
	c0,1.328-1.076,2.403-2.404,2.403S292.596,142.888,292.596,141.56z M343,148v179h-96V148H343z M316,331.5c0,0.828-0.672,1.5-1.5,1.5
	h-41c-0.828,0-1.5-0.672-1.5-1.5l0,0c0-0.828,0.672-1.5,1.5-1.5h41C315.328,330,316,330.672,316,331.5L316,331.5z"/>
<path fill="#BDC3C7" d="M316,331.5c0-0.828-0.672-1.5-1.5-1.5h-41c-0.828,0-1.5,0.672-1.5,1.5l0,0c0,0.828,0.672,1.5,1.5,1.5h41
	C315.328,333,316,332.328,316,331.5L316,331.5z"/>
<circle fill="#BDC3C7" cx="269.52" cy="141.881" r="1.923"/>
<circle fill="#A9A9AA" cx="295" cy="141.56" r="2.404"/>
<rect x="247" y="148" fill="#2ECC71" width="96" height="179"/>
</svg>
