<?xml version="1.0" encoding="utf-8"?><svg xmlns="http://www.w3.org/2000/svg" width="15" height="15" viewBox="0 0 15 15"><path stroke="#449FDB" d="M0 0"/><path d="M12.188 1.875h-9.375c-1.547 0-2.813 1.266-2.813 2.813v5.625c0 1.547 1.266 2.813 2.813 2.813h9.375c1.547 0 2.813-1.266 2.813-2.813v-5.625c0-1.547-1.266-2.813-2.813-2.813zm1.875 8.438c0 .498-.196.968-.552 1.323s-.826.552-1.323.552h-9.375c-.498 0-.968-.196-1.323-.552s-.552-.826-.552-1.323v-5.625c0-.498.196-.968.552-1.323s.826-.552 1.323-.552h9.375c.498 0 .968.196 1.323.552s.552.826.552 1.323v5.625zm-8.438.937l4.688-3.75-4.688-3.75z" fill="#444"/></svg>