<?xml version="1.0" encoding="utf-8"?>
<!-- Generator: Adobe Illustrator 15.1.0, SVG Export Plug-In . SVG Version: 6.00 Build 0)  -->
<!DOCTYPE svg PUBLIC "-//W3C//DTD SVG 1.1//EN" "http://www.w3.org/Graphics/SVG/1.1/DTD/svg11.dtd">
<svg version="1.1" id="Layer_1" xmlns="http://www.w3.org/2000/svg" xmlns:xlink="http://www.w3.org/1999/xlink" x="0px" y="0px"
	 width="100px" height="100px" viewBox="0 0 100 100" enable-background="new 0 0 100 100" xml:space="preserve">
<circle fill="#2C3E50" cx="50" cy="50" r="50"/>
<path display="none" fill="#FFFFFF" d="M72.477,52.84c-5.146-6.135-13.067,6.801-17.336,9.602c-2.939,1.937-7.41,2.088-10.55,0.24
	c-4.3-2.527-2.98-8.57,1.56-10.07c4.04-1.332,11.09,2.921,13.66-1.336c3.16-5.239-7.629-6.469-10.819-6.341
	c-5.75,0.226-11.29,2.09-14.7,6.443c-3.67,4.688-2.83,10.354,1.22,14.605c4.13,3.992,10.11,5.533,16.059,5.043
	c1.511-0.123,4.091-0.768,6.07-1.85c3.91-2.142,15.9-15.096,14.86-16.336H72.477z M34.83,48.25
	c1.993,0.396-1.868-10.74-2.122-12.274c-0.304-1.853-0.99-4.47-2.83-4.74c-2.135-0.312-2.72,2.117-2.284,4.248
	C28.044,37.701,32.957,47.874,34.83,48.25L34.83,48.25z M51.325,42.5c3.09,0.437,2.877-14.386,2.88-16.4
	c0.003-1.81,0.71-6.83-1.736-7.302c-3.36-0.65-3.69,3.772-3.77,6.15c0.14,2.376-0.62,17.094,2.619,17.55L51.325,42.5z M58.682,44.87
	c3.379,1.408,5.959-13.565,6.33-15.486c0.379-1.957,0.439-6.11-2.91-4.795c-1.681,0.66-1.99,3.38-2.25,4.89
	c-0.42,1.91-3.761,14.3-1.16,15.38L58.682,44.87z M42.461,43.61c3.81,0.283,0.22-14.777-0.08-16.785
	c-0.3-2.046-1.68-6.147-4.52-3.76c-1.42,1.197-0.78,3.98-0.51,5.543c0.25,2.02,2.19,14.785,5.12,15.002H42.461z"/>
<g>
	<polygon fill="#FFFFFF" points="29.808,56.875 22.736,29.3 43.117,9.425 70.569,17.124 77.641,44.699 57.261,64.574 	"/>
	<polygon fill="#204460" points="35.354,58.596 22.359,35.933 35.528,13.372 61.692,13.472 74.688,36.135 61.518,58.697 	"/>
	<circle fill="#204460" cx="50.34" cy="37" r="12.472"/>
	<circle fill="#FFFFFF" cx="49.204" cy="36.397" r="11.446"/>
</g>
<g>
	<path fill="#ECF0F1" d="M17.615,74.111h2.017c0.947,0,1.632,0.142,2.056,0.425s0.635,0.73,0.635,1.343
		c0,0.423-0.118,0.772-0.354,1.047c-0.236,0.275-0.58,0.454-1.033,0.535v0.049c1.084,0.186,1.626,0.755,1.626,1.709
		c0,0.638-0.216,1.136-0.647,1.494s-1.034,0.537-1.809,0.537h-2.49V74.111z M18.445,77.168h1.367c0.586,0,1.007-0.092,1.265-0.275
		c0.257-0.185,0.386-0.494,0.386-0.931c0-0.4-0.143-0.689-0.43-0.866c-0.287-0.178-0.742-0.267-1.367-0.267h-1.221V77.168z
		 M18.445,77.871v2.671h1.489c0.576,0,1.01-0.111,1.301-0.335c0.292-0.223,0.437-0.571,0.437-1.047c0-0.442-0.149-0.769-0.447-0.977
		s-0.751-0.313-1.36-0.313H18.445z"/>
	<path fill="#ECF0F1" d="M28.591,78.569c0,0.872-0.22,1.554-0.659,2.044c-0.439,0.489-1.046,0.734-1.821,0.734
		c-0.479,0-0.903-0.112-1.274-0.337s-0.658-0.547-0.859-0.967s-0.303-0.911-0.303-1.475c0-0.872,0.218-1.552,0.654-2.038
		c0.436-0.487,1.042-0.73,1.816-0.73c0.749,0,1.344,0.249,1.785,0.747S28.591,77.72,28.591,78.569z M24.514,78.569
		c0,0.684,0.137,1.204,0.41,1.563s0.675,0.537,1.206,0.537s0.934-0.179,1.208-0.534c0.275-0.357,0.413-0.879,0.413-1.565
		c0-0.681-0.138-1.197-0.413-1.55c-0.275-0.354-0.681-0.53-1.218-0.53c-0.531,0-0.931,0.174-1.201,0.522
		S24.514,77.879,24.514,78.569z"/>
	<path fill="#ECF0F1" d="M30.823,81.25h-0.811v-7.598h0.811V81.25z"/>
	<path fill="#ECF0F1" d="M34.27,80.679c0.143,0,0.282-0.011,0.415-0.032c0.133-0.021,0.239-0.043,0.317-0.065v0.62
		c-0.088,0.042-0.217,0.077-0.388,0.105c-0.171,0.027-0.325,0.041-0.461,0.041c-1.035,0-1.553-0.545-1.553-1.636v-3.184h-0.767
		v-0.391l0.767-0.337l0.342-1.143h0.469v1.24h1.553v0.63h-1.553v3.149c0,0.322,0.077,0.569,0.229,0.742S34.003,80.679,34.27,80.679z
		"/>
	<path fill="#ECF0F1" d="M42.771,81.25h-3.979v-7.139h3.979v0.737h-3.149v2.3h2.959v0.732h-2.959v2.627h3.149V81.25z"/>
	<path fill="#ECF0F1" d="M45.52,78.511l-1.86-2.612h0.923l1.411,2.051l1.406-2.051h0.913l-1.86,2.612l1.958,2.739h-0.918
		l-1.499-2.168L44.48,81.25h-0.918L45.52,78.511z"/>
	<path fill="#ECF0F1" d="M51.199,80.679c0.143,0,0.281-0.011,0.414-0.032c0.135-0.021,0.24-0.043,0.318-0.065v0.62
		c-0.088,0.042-0.219,0.077-0.389,0.105c-0.172,0.027-0.324,0.041-0.461,0.041c-1.036,0-1.553-0.545-1.553-1.636v-3.184h-0.767
		v-0.391l0.767-0.337l0.342-1.143h0.469v1.24h1.553v0.63h-1.553v3.149c0,0.322,0.076,0.569,0.229,0.742
		C50.723,80.593,50.932,80.679,51.199,80.679z"/>
	<path fill="#ECF0F1" d="M55.262,81.348c-0.791,0-1.416-0.241-1.873-0.723s-0.686-1.15-0.686-2.007c0-0.862,0.211-1.548,0.637-2.056
		c0.424-0.508,0.996-0.762,1.711-0.762c0.672,0,1.201,0.221,1.592,0.662c0.391,0.44,0.586,1.022,0.586,1.745v0.513h-3.686
		c0.016,0.628,0.174,1.105,0.475,1.431c0.303,0.325,0.727,0.488,1.273,0.488c0.576,0,1.145-0.12,1.709-0.361v0.723
		c-0.287,0.124-0.559,0.212-0.814,0.267C55.932,81.32,55.623,81.348,55.262,81.348z M55.041,76.479c-0.43,0-0.771,0.14-1.027,0.42
		s-0.406,0.667-0.451,1.162h2.797c0-0.511-0.113-0.902-0.342-1.175C55.791,76.615,55.465,76.479,55.041,76.479z"/>
	<path fill="#ECF0F1" d="M62.273,81.25v-3.462c0-0.437-0.1-0.762-0.299-0.977c-0.197-0.215-0.51-0.322-0.932-0.322
		c-0.561,0-0.971,0.151-1.23,0.454c-0.262,0.303-0.391,0.803-0.391,1.499v2.808h-0.811v-5.352h0.658l0.133,0.732h0.039
		c0.166-0.264,0.398-0.468,0.697-0.613c0.301-0.145,0.633-0.217,1.002-0.217c0.645,0,1.129,0.155,1.455,0.467
		c0.324,0.311,0.488,0.808,0.488,1.491v3.491H62.273z"/>
	<path fill="#ECF0F1" d="M68.201,79.79c0,0.498-0.186,0.882-0.557,1.152s-0.893,0.405-1.563,0.405c-0.711,0-1.264-0.112-1.66-0.337
		v-0.752c0.256,0.13,0.533,0.232,0.826,0.308c0.295,0.075,0.58,0.112,0.854,0.112c0.422,0,0.748-0.067,0.977-0.202
		c0.227-0.136,0.342-0.342,0.342-0.618c0-0.208-0.092-0.387-0.271-0.534c-0.182-0.148-0.533-0.323-1.057-0.525
		c-0.498-0.186-0.854-0.348-1.063-0.486c-0.211-0.138-0.367-0.295-0.469-0.471c-0.104-0.176-0.154-0.386-0.154-0.63
		c0-0.437,0.178-0.78,0.533-1.032c0.354-0.253,0.842-0.379,1.459-0.379c0.576,0,1.141,0.117,1.689,0.352l-0.287,0.659
		c-0.537-0.222-1.023-0.332-1.461-0.332c-0.383,0-0.674,0.061-0.869,0.181s-0.293,0.286-0.293,0.498
		c0,0.144,0.037,0.266,0.109,0.366c0.074,0.101,0.191,0.197,0.355,0.288c0.162,0.091,0.475,0.223,0.938,0.396
		c0.635,0.231,1.063,0.464,1.285,0.698C68.09,79.141,68.201,79.436,68.201,79.79z"/>
	<path fill="#ECF0F1" d="M69.451,74.448c0-0.186,0.045-0.321,0.137-0.407c0.09-0.087,0.205-0.13,0.342-0.13
		c0.129,0,0.242,0.044,0.336,0.132c0.096,0.088,0.143,0.223,0.143,0.405s-0.047,0.318-0.143,0.407
		c-0.094,0.09-0.207,0.135-0.336,0.135c-0.137,0-0.252-0.045-0.342-0.135C69.496,74.767,69.451,74.631,69.451,74.448z M70.33,81.25
		H69.52v-5.352h0.811V81.25z"/>
	<path fill="#ECF0F1" d="M76.668,78.569c0,0.872-0.221,1.554-0.66,2.044c-0.439,0.489-1.047,0.734-1.82,0.734
		c-0.479,0-0.904-0.112-1.275-0.337s-0.656-0.547-0.859-0.967c-0.201-0.42-0.303-0.911-0.303-1.475c0-0.872,0.219-1.552,0.654-2.038
		c0.438-0.487,1.043-0.73,1.816-0.73c0.75,0,1.344,0.249,1.785,0.747S76.668,77.72,76.668,78.569z M72.59,78.569
		c0,0.684,0.137,1.204,0.41,1.563s0.676,0.537,1.207,0.537c0.529,0,0.934-0.179,1.207-0.534c0.275-0.357,0.414-0.879,0.414-1.565
		c0-0.681-0.139-1.197-0.414-1.55c-0.273-0.354-0.68-0.53-1.217-0.53c-0.531,0-0.932,0.174-1.201,0.522
		C72.725,77.36,72.59,77.879,72.59,78.569z"/>
	<path fill="#ECF0F1" d="M81.75,81.25v-3.462c0-0.437-0.1-0.762-0.297-0.977c-0.199-0.215-0.51-0.322-0.934-0.322
		c-0.559,0-0.969,0.151-1.23,0.454c-0.26,0.303-0.391,0.803-0.391,1.499v2.808h-0.811v-5.352h0.66l0.131,0.732h0.039
		c0.166-0.264,0.398-0.468,0.699-0.613c0.299-0.145,0.633-0.217,1-0.217c0.645,0,1.131,0.155,1.455,0.467
		c0.326,0.311,0.488,0.808,0.488,1.491v3.491H81.75z"/>
</g>
</svg>
