<?xml version="1.0" encoding="utf-8"?>
<!DOCTYPE svg PUBLIC "-//W3C//DTD SVG 1.1//EN" "http://www.w3.org/Graphics/SVG/1.1/DTD/svg11.dtd">
<svg xmlns="http://www.w3.org/2000/svg" width="100" height="100" viewBox="0 0 100 100"><circle fill="#2C3E50" cx="50" cy="50" r="50"/><path fill="#FFF" d="M72.477 52.84c-5.147-6.135-13.068 6.8-17.336 9.602-2.94 1.936-7.41 2.087-10.55.24-4.3-2.527-2.98-8.57 1.56-10.07 4.04-1.333 11.09 2.92 13.66-1.336 3.16-5.24-7.63-6.47-10.82-6.342-5.75.226-11.29 2.09-14.7 6.443-3.67 4.687-2.83 10.354 1.22 14.606 4.13 3.992 10.11 5.532 16.06 5.043 1.51-.124 4.09-.768 6.07-1.85 3.91-2.142 15.9-15.096 14.86-16.336zM34.83 48.25c1.993.396-1.868-10.74-2.122-12.274-.304-1.853-.99-4.47-2.83-4.74-2.135-.312-2.72 2.117-2.284 4.248.45 2.217 5.363 12.39 7.236 12.765zm16.495-5.75c3.09.437 2.877-14.386 2.88-16.4.003-1.81.71-6.83-1.736-7.302-3.36-.65-3.69 3.772-3.77 6.15.14 2.376-.62 17.094 2.62 17.55zm7.356 2.37c3.38 1.408 5.96-13.565 6.33-15.486.38-1.957.44-6.11-2.91-4.795-1.68.66-1.99 3.38-2.25 4.89-.42 1.91-3.76 14.3-1.16 15.38zm-16.22-1.26c3.81.283.22-14.777-.08-16.785-.3-2.046-1.68-6.147-4.52-3.76-1.42 1.197-.78 3.98-.51 5.543.25 2.02 2.19 14.785 5.12 15.002z"/><path fill="#ECF0F1" d="M21.112 76.424c-.576 0-1.03.19-1.364.575-.333.38-.5.9-.5 1.57 0 .68.16 1.21.482 1.59s.78.56 1.375.56c.365 0 .782-.07 1.25-.2v.53c-.363.13-.81.2-1.344.2-.77 0-1.36-.24-1.78-.71-.42-.47-.63-1.14-.63-2 0-.54.1-1.01.31-1.42.2-.41.5-.72.88-.94s.83-.33 1.35-.33c.55 0 1.03.1 1.44.3l-.25.52c-.39-.19-.79-.28-1.19-.28zm5.688 2.803c0 .64-.16 1.14-.484 1.5-.323.36-.77.54-1.337.54-.36 0-.67-.082-.94-.247-.27-.165-.49-.4-.63-.71s-.23-.67-.23-1.082c0-.64.16-1.14.48-1.497s.76-.53 1.33-.53c.55 0 .98.19 1.31.55.32.37.48.86.48 1.49zm-2.992 0c0 .502.1.885.3 1.147.202.264.497.395.887.395s.685-.14.887-.4c.202-.26.303-.65.303-1.15 0-.5-.1-.88-.303-1.14-.202-.26-.5-.39-.895-.39-.39 0-.683.12-.88.38-.2.25-.3.63-.3 1.14zm6.724 1.968v-2.542c0-.32-.073-.56-.22-.717s-.373-.236-.683-.236c-.42 0-.72.11-.91.333-.19.223-.29.59-.29 1.1v2.063h-.6v-3.93h.48l.09.538h.03c.12-.194.29-.344.51-.45.22-.106.46-.16.73-.16.47 0 .83.114 1.06.343s.36.593.36 1.096v2.563h-.59zm3.387.072c-.57 0-1.01-.175-1.33-.524-.31-.35-.47-.846-.47-1.486 0-.657.15-1.165.47-1.523s.77-.538 1.35-.538c.19 0 .37.02.56.062.19.04.33.088.44.143l-.19.51c-.13-.05-.27-.09-.43-.13-.15-.03-.29-.05-.41-.05-.8 0-1.2.51-1.2 1.53 0 .49.1.86.29 1.11.19.26.48.39.86.39.33 0 .66-.07 1-.21v.53c-.26.14-.59.21-.99.21zm3.71-4.073c.17 0 .33.014.47.042l-.09.553c-.16-.04-.31-.06-.43-.06-.32 0-.59.13-.82.39-.23.25-.34.58-.34.96v2.1h-.6v-3.93h.49l.07.73h.03c.14-.26.32-.46.52-.6.2-.14.43-.21.67-.21zm2.86 4.073c-.58 0-1.04-.178-1.38-.53-.34-.354-.51-.845-.51-1.474 0-.634.15-1.137.47-1.51.31-.372.73-.56 1.25-.56.49 0 .88.163 1.17.487.28.323.43.75.43 1.28v.378h-2.7c.01.46.12.81.34 1.05.22.24.53.358.93.358.42 0 .84-.09 1.25-.265v.53c-.21.1-.41.16-.6.2-.19.04-.42.06-.68.06zm-.16-3.575c-.32 0-.57.103-.76.308-.19.206-.3.49-.33.854h2.06c0-.376-.09-.663-.25-.862-.17-.2-.41-.3-.72-.3zm3.89 3.083c.1 0 .2-.008.3-.023s.17-.03.23-.048v.455c-.07.03-.16.05-.29.07-.13.02-.24.03-.34.03-.76 0-1.14-.4-1.14-1.2v-2.34h-.56v-.29l.56-.25.25-.84h.34v.91h1.14v.46h-1.14v2.31c0 .23.05.42.17.54.11.12.26.19.46.19zm2.98.492c-.58 0-1.04-.178-1.38-.53-.34-.354-.51-.845-.51-1.474 0-.634.15-1.137.46-1.51.31-.372.73-.56 1.25-.56.49 0 .88.163 1.17.487.28.323.43.75.43 1.28v.378h-2.7c.01.46.13.81.35 1.05s.53.358.93.358c.42 0 .84-.09 1.26-.265v.53c-.21.1-.41.16-.6.2-.19.04-.42.06-.68.06zm-.16-3.575c-.32 0-.57.103-.76.308-.19.206-.3.49-.33.854H48c0-.376-.083-.663-.25-.862-.168-.2-.408-.3-.718-.3zm5.89.3c.55 0 .98.14 1.3.412s.47.648.47 1.123c0 .543-.17.97-.52 1.276-.35.31-.82.463-1.43.463-.59 0-1.04-.095-1.35-.283v-.573c.16.107.37.19.62.253.25.06.49.09.73.09.42 0 .75-.098.98-.296.23-.198.35-.485.35-.86 0-.73-.45-1.097-1.35-1.097-.23 0-.53.034-.91.104l-.31-.197.2-2.452h2.6v.55h-2.1l-.13 1.572c.27-.056.55-.084.82-.084zm8.12 3.203l-.66-1.668h-2.1l-.65 1.668h-.62l2.07-5.263h.51l2.06 5.263h-.63zm-.85-2.215l-.61-1.63c-.08-.21-.16-.46-.24-.76-.05.23-.13.48-.23.75l-.62 1.62h1.7zm4.8 1.68h-.03c-.28.4-.69.6-1.24.6-.52 0-.92-.177-1.2-.528-.29-.35-.43-.85-.43-1.5s.14-1.15.43-1.51c.28-.356.68-.536 1.19-.536.53 0 .94.194 1.22.58H65l-.024-.28-.015-.278v-1.59h.6v5.576h-.48l-.08-.528zm-1.19.1c.4 0 .7-.11.88-.33s.27-.578.27-1.07v-.126c0-.557-.1-.954-.28-1.19-.19-.24-.48-.358-.89-.358-.35 0-.62.135-.8.405-.19.27-.28.66-.28 1.15 0 .5.09.88.27 1.14.18.26.45.38.81.38zm5.69-.1h-.04c-.28.4-.69.6-1.23.6-.52 0-.92-.177-1.2-.528-.29-.35-.43-.85-.43-1.5s.14-1.15.43-1.51c.28-.356.68-.536 1.2-.536.53 0 .94.194 1.22.58h.04l-.03-.28-.02-.278v-1.59h.59v5.576h-.49l-.08-.528zm-1.19.1c.4 0 .7-.11.88-.33.18-.222.27-.578.27-1.07v-.126c0-.557-.1-.954-.28-1.19-.18-.24-.48-.358-.88-.358-.35 0-.61.135-.8.405-.18.27-.27.66-.27 1.15 0 .5.09.88.28 1.14.18.26.45.38.81.38zm2.68-1.27v-.544h1.76v.545h-1.76zm6.08-.27c0 .64-.16 1.14-.49 1.5-.33.36-.77.54-1.34.54-.35 0-.67-.083-.94-.248s-.48-.4-.63-.71c-.14-.31-.22-.67-.22-1.083 0-.64.16-1.14.48-1.5s.77-.54 1.34-.54c.55 0 .99.18 1.31.55s.49.86.49 1.48zm-3 0c0 .5.1.884.3 1.146.2.264.49.395.88.395s.68-.13.89-.39c.2-.26.3-.64.3-1.15 0-.5-.1-.88-.3-1.14-.21-.26-.5-.39-.9-.39-.39 0-.69.13-.888.39-.195.26-.3.64-.3 1.15zm6.72 1.967v-2.54c0-.32-.08-.56-.22-.717-.15-.157-.38-.236-.69-.236-.41 0-.71.11-.906.332-.19.222-.29.59-.29 1.1v2.062h-.59v-3.93h.49l.1.538h.03c.13-.19.3-.34.52-.45s.47-.16.74-.16c.472 0 .83.118 1.07.347s.354.593.354 1.096v2.56h-.59z"/></svg>
