<?xml version="1.0" encoding="utf-8"?>
<!DOCTYPE svg PUBLIC "-//W3C//DTD SVG 1.1//EN" "http://www.w3.org/Graphics/SVG/1.1/DTD/svg11.dtd">
<svg xmlns="http://www.w3.org/2000/svg" width="15" height="15" viewBox="0 0 15 15"><title>external-link</title><path fill="#008CBA" d="M11.786 7.768v2.68c0 .663-.235 1.23-.707 1.702-.48.47-1.04.707-1.71.707H2.41c-.664 0-1.232-.236-1.703-.707-.475-.472-.71-1.04-.71-1.703V3.483c0-.664.234-1.23.705-1.703.47-.47 1.038-.707 1.702-.707H8.3c.078 0 .143.025.193.075.05.05.076.114.075.193v.54c0 .08-.025.148-.075.198-.05.05-.114.077-.193.076H2.41c-.368 0-.684.13-.946.393-.263.26-.394.577-.393.946v6.964c0 .367.13.682.4.945.26.26.578.393.946.393H9.38c.367 0 .683-.13.945-.392.263-.262.395-.577.394-.945V7.77c0-.078.022-.143.072-.193.05-.05.113-.076.19-.075h.538c.078 0 .14.026.19.076.054.05.078.114.077.192zM15 .536v4.286c0 .146-.053.27-.16.377-.105.1-.23.15-.376.15s-.27-.053-.377-.16l-1.474-1.47-5.457 5.46c-.056.056-.12.084-.193.084s-.137-.028-.193-.084l-.954-.95c-.056-.056-.084-.12-.084-.193 0-.073.028-.137.084-.193l5.458-5.456L9.8.914C9.696.806 9.644.68 9.644.534c0-.145.053-.27.158-.376.107-.11.233-.16.378-.16h4.286c.146 0 .27.05.377.16s.16.23.16.372z"/></svg>
