<?xml version="1.0" encoding="utf-8"?>
<!DOCTYPE svg PUBLIC "-//W3C//DTD SVG 1.1//EN" "http://www.w3.org/Graphics/SVG/1.1/DTD/svg11.dtd">
<svg xmlns="http://www.w3.org/2000/svg" width="15" height="15" viewBox="0 0 15 15"><circle cx="7.5" cy="7.5" r="7.5" fill="#2C3E50"/><path fill="#F2F2F2" d="M7.5 2.015c-3.106 0-5.625 2.52-5.625 5.625 0 2.485 1.61 4.593 3.847 5.337.28.05.384-.122.384-.27 0-.135-.005-.578-.008-1.048-1.563.34-1.895-.667-1.895-.667-.257-.65-.625-.822-.625-.822-.51-.35.04-.342.04-.342.563.04.86.58.86.58.503.86 1.317.61 1.638.466.05-.363.196-.61.357-.75-1.25-.144-2.563-.626-2.563-2.78 0-.616.22-1.117.58-1.51-.057-.144-.25-.716.055-1.49 0 0 .473-.15 1.547.577.448-.125.93-.186 1.408-.19.478.003.96.065 1.408.19 1.073-.73 1.545-.576 1.545-.576.31.775.114 1.347.057 1.49.36.393.578.894.578 1.51 0 2.16-1.315 2.636-2.568 2.774.202.176.382.518.382 1.042 0 .752-.008 1.358-.008 1.544 0 .15.103.325.388.27 2.233-.745 3.844-2.853 3.844-5.337 0-3.11-2.52-5.627-5.626-5.626z"/></svg>
