<?xml version="1.0" encoding="utf-8"?>
<!DOCTYPE svg PUBLIC "-//W3C//DTD SVG 1.1//EN" "http://www.w3.org/Graphics/SVG/1.1/DTD/svg11.dtd">
<svg xmlns="http://www.w3.org/2000/svg" width="100" height="100" viewBox="0 0 100 100"><circle fill="#2C3E50" cx="50" cy="50" r="50"/><path fill="#F2F2F2" d="M73.438 29.492H26.563c-4.314 0-7.813 3.5-7.813 7.813v25.39c0 4.315 3.498 7.814 7.813 7.814h46.875c4.314 0 7.813-3.5 7.813-7.814v-25.39c0-4.314-3.498-7.814-7.812-7.814zM22.656 39.746L36.326 50l-13.67 10.254V39.746zm54.688 22.95c0 2.155-1.754 3.905-3.906 3.905H26.563c-2.154 0-3.906-1.75-3.906-3.905L37.954 51.22l8.53 6.4c1.042.777 2.278 1.172 3.517 1.172 1.237 0 2.474-.393 3.515-1.172l8.533-6.4 15.296 11.475zm0-2.442L63.672 50l13.672-10.254v20.508zM52.342 56.06c-.682.51-1.49.78-2.342.78s-1.662-.27-2.344-.78l-25-18.755c0-2.154 1.752-3.906 3.906-3.906h46.875c2.152 0 3.906 1.75 3.906 3.905l-25 18.754z"/></svg>
