<?xml version="1.0" encoding="utf-8"?>
<!DOCTYPE svg PUBLIC "-//W3C//DTD SVG 1.1//EN" "http://www.w3.org/Graphics/SVG/1.1/DTD/svg11.dtd">
<svg xmlns="http://www.w3.org/2000/svg" width="15" height="15" viewBox="0 0 15 15"><title>YouTube Icon</title><path fill="#008CBA" d="M12.188 1.875H2.813C1.266 1.875 0 3.14 0 4.688v5.625c0 1.547 1.266 2.813 2.813 2.813h9.375c1.547 0 2.813-1.267 2.813-2.813V4.688c0-1.547-1.264-2.813-2.81-2.813zm1.875 8.438c0 .498-.195.97-.55 1.323-.358.355-.827.552-1.325.552H2.813c-.498 0-.968-.195-1.323-.552-.355-.356-.552-.825-.552-1.323V4.688c0-.498.196-.968.552-1.323.356-.355.826-.552 1.323-.552h9.375c.498 0 .97.196 1.324.552.354.356.55.826.55 1.323v5.625zm-8.438.937l4.688-3.75-4.688-3.75v7.5z"/></svg>
