<?xml version="1.0" encoding="utf-8"?>
<!DOCTYPE svg PUBLIC "-//W3C//DTD SVG 1.1//EN" "http://www.w3.org/Graphics/SVG/1.1/DTD/svg11.dtd">
<svg xmlns="http://www.w3.org/2000/svg" width="100" height="100" viewBox="0 0 100 100"><path fill="#2C3E50" d="M23.636 21.063l4.482 4.483-2.528 2.528-4.482-4.484z"/><path fill="#2C3E50" d="M50 0C22.386 0 0 22.386 0 50s22.386 50 50 50 50-22.386 50-50S77.614 0 50 0zM19.036 22.9l3.91-3.91c.38-.382 1-.382 1.382 0l5.865 5.864c.382.383.382 1-.002 1.384L28.93 27.5 43.88 42.453c.38.38.38 1 0 1.382-.19.19-.442.286-.692.286s-.5-.096-.69-.288l-14.95-14.948-1.265 1.265c-.19.19-.44.285-.69.285s-.502-.096-.69-.288l-5.866-5.865c-.383-.382-.383-1.002 0-1.383zm61.016 54.168l-2.794 2.918c-.6.603-1.377.928-2.205.928-.83 0-1.607-.325-2.194-.914L53.25 60.453c-.38-.38-.383-1 0-1.382.38-.383 1-.38 1.38-.004l19.61 19.552c.437.438 1.186.438 1.617.004l2.794-2.92c.463-.464.463-1.117.015-1.567l-19.55-19.55c-.38-.38-.38-1 0-1.382.382-.38 1.002-.38 1.383 0L80.05 72.755c1.204 1.21 1.204 3.104.002 4.313zm-2.304-37.744c-2.313 2.326-5.563 3.66-8.913 3.66-1.366 0-2.677-.22-3.904-.657L42.37 64.89c1.55 4.387.392 9.635-2.93 12.974-2.23 2.245-5.15 3.48-8.224 3.48-1.74 0-3.445-.385-5.066-1.15-.287-.135-.49-.4-.545-.713s.045-.633.27-.857l6.8-6.843c.452-.455.472-1.122.043-1.555l-2.946-3.083c-.375-.38-1.1-.32-1.55.133l-6.826 6.86c-.227.23-.554.333-.874.272-.318-.06-.586-.274-.715-.57-1.96-4.512-.98-9.69 2.504-13.192 2.314-2.326 5.564-3.66 8.915-3.66 1.366 0 2.676.22 3.902.657l22.56-22.56c-1.548-4.388-.39-9.635 2.93-12.976 3.497-3.514 8.814-4.44 13.292-2.33.288.136.492.404.547.717.055.313-.047.634-.272.858l-6.844 6.842c-.437.442-.44 1.11.003 1.552l2.93 2.93c.433.44 1.146.443 1.566.02l6.824-6.86c.23-.23.56-.326.874-.27.318.058.587.272.716.57 1.96 4.51.978 9.686-2.506 13.19z"/><path fill="#2C3E50" d="M73.225 34.075c-1.16 1.165-3.166 1.16-4.337-.018l-2.93-2.93c-1.205-1.213-1.205-3.105 0-4.312l5.786-5.79c-3.402-1.055-7.16-.136-9.74 2.46-2.888 2.905-3.844 7.727-2.273 11.46.155.367.073.79-.21 1.07L36.06 59.48c-.282.28-.708.368-1.073.207-1.16-.492-2.425-.743-3.76-.743-2.838 0-5.578 1.123-7.527 3.084-2.558 2.574-3.506 6.227-2.59 9.63l5.73-5.755c1.18-1.194 3.2-1.265 4.337-.12l2.943 3.083c1.178 1.18 1.158 3.075-.057 4.298l-5.75 5.788c3.404 1.06 7.164.137 9.747-2.46 2.888-2.905 3.844-7.725 2.273-11.46-.154-.365-.072-.787.21-1.068l23.46-23.462c.282-.28.707-.366 1.074-.207 1.16.494 2.425.744 3.76.744 2.837 0 5.578-1.122 7.527-3.083 2.558-2.574 3.505-6.226 2.59-9.63l-5.73 5.755z"/><path fill="#F2F2F2" d="M79.537 25.562c-.314-.055-.645.04-.874.27l-6.825 6.862c-.42.422-1.134.418-1.566-.02l-2.93-2.93c-.442-.444-.44-1.11-.002-1.553l6.844-6.84c.226-.225.327-.545.272-.858-.055-.313-.26-.58-.548-.716-4.48-2.11-9.795-1.185-13.29 2.33-3.32 3.34-4.48 8.587-2.932 12.975l-22.56 22.56c-1.227-.437-2.536-.656-3.902-.656-3.352 0-6.602 1.334-8.914 3.66-3.484 3.504-4.465 8.68-2.504 13.19.13.298.396.514.715.572.32.06.648-.04.875-.272l6.825-6.86c.45-.453 1.176-.514 1.55-.133l2.947 3.084c.43.433.41 1.1-.043 1.555l-6.8 6.842c-.225.225-.324.546-.27.858s.258.578.545.714c1.62.765 3.325 1.15 5.065 1.15 3.073 0 5.992-1.236 8.225-3.48 3.32-3.34 4.48-8.588 2.93-12.975l22.56-22.564c1.228.438 2.538.657 3.904.657 3.35 0 6.6-1.333 8.913-3.66 3.484-3.504 4.466-8.68 2.505-13.19-.128-.298-.397-.512-.715-.57zM76.364 37.95c-1.95 1.96-4.69 3.083-7.527 3.083-1.335 0-2.6-.25-3.76-.743-.367-.16-.792-.073-1.073.207L40.544 63.96c-.283.28-.365.702-.21 1.068 1.57 3.734.613 8.554-2.274 11.46-2.583 2.596-6.343 3.52-9.747 2.46l5.75-5.788c1.215-1.223 1.234-3.117.057-4.298l-2.943-3.083c-1.137-1.146-3.156-1.075-4.337.12l-5.73 5.756c-.916-3.404.032-7.057 2.59-9.63 1.95-1.962 4.69-3.085 7.527-3.085 1.335 0 2.6.252 3.76.744.365.16.79.072 1.072-.207l23.46-23.46c.283-.283.365-.705.21-1.07-1.57-3.735-.613-8.557 2.274-11.462 2.58-2.596 6.338-3.515 9.74-2.46l-5.787 5.79c-1.204 1.207-1.204 3.1 0 4.31l2.93 2.932c1.172 1.177 3.178 1.183 4.338.018l5.73-5.756c.914 3.403-.033 7.055-2.59 9.63z"/><path fill="#F2F2F2" d="M24.9 30.146c.19.192.44.288.69.288s.5-.096.692-.286l1.264-1.265 14.95 14.95c.19.19.44.287.69.287s.5-.096.692-.286c.38-.38.38-1 0-1.382l-14.95-14.95 1.264-1.264c.384-.383.384-1 .002-1.384L24.33 18.99c-.382-.382-1.002-.382-1.383 0l-3.91 3.91c-.382.38-.382 1 0 1.38l5.864 5.866zm-1.263-9.083l4.482 4.483-2.528 2.528-4.483-4.483 2.527-2.527zM60.498 53.203c-.38-.38-1-.38-1.382 0-.382.382-.382 1.002 0 1.383l19.55 19.55c.447.45.447 1.103-.015 1.567l-2.793 2.92c-.432.434-1.18.434-1.616-.005L54.63 59.066c-.38-.377-1-.38-1.38.005-.383.382-.38 1.002 0 1.383L72.86 80c.587.59 1.365.914 2.194.914.828 0 1.606-.325 2.205-.928l2.794-2.918c1.203-1.21 1.203-3.104 0-4.313L60.497 53.203z"/></svg>
