<?xml version="1.0" encoding="utf-8"?>
<!DOCTYPE svg PUBLIC "-//W3C//DTD SVG 1.1//EN" "http://www.w3.org/Graphics/SVG/1.1/DTD/svg11.dtd">
<svg xmlns="http://www.w3.org/2000/svg" width="400" height="400" viewBox="0 0 400 400"><circle cx="200.5" cy="200.5" r="200" fill="#2C3E50"/><path fill="#F2F2F2" d="M200.495 54.22C117.66 54.22 50.5 121.383 50.5 204.217c0 66.282 42.973 122.495 102.577 142.324 7.502 1.38 10.24-3.26 10.24-7.21 0-3.57-.142-15.4-.206-27.92-41.71 9.06-50.53-17.7-50.53-17.7-6.83-17.32-16.65-21.93-16.65-21.93-13.63-9.303 1.03-9.13 1.03-9.13 15.06 1.044 22.99 15.45 22.99 15.45 13.39 22.927 35.12 16.297 43.65 12.45 1.36-9.67 5.24-16.294 9.53-20.03-33.3-3.79-68.323-16.66-68.323-74.14 0-16.39 5.85-29.75 15.43-40.25-1.53-3.81-6.692-19.07 1.484-39.714 0 0 12.58-4.026 41.25 15.386 11.95-3.34 24.787-4.985 37.535-5.045 12.743.06 25.58 1.727 37.554 5.064 28.615-19.423 41.213-15.385 41.213-15.385 8.204 20.663 3.04 35.906 1.504 39.696 9.603 10.5 15.416 23.865 15.416 40.253 0 57.622-35.085 70.31-68.498 74.027 5.4 4.65 10.18 13.77 10.18 27.76 0 20.05-.2 36.21-.2 41.16 0 3.99 2.725 8.66 10.323 7.194 59.57-19.87 102.508-76.08 102.508-142.324 0-82.833-67.16-149.994-149.994-149.994l-.01.018z"/></svg>
