<svg  role="img" xmlns="http://www.w3.org/2000/svg">
<!-- hamburger menu icon -->
 <symbol id="a" viewBox="0 -24 24 24">
    <path d="M2-19h20v3h-20v-3zm0 5h20v3h-20v-3zm0 8v-3h20v3h-20z"/>
    <path fill="none" d="M24-24h-24v24h24z"/>
  </symbol>
<symbol viewBox="0 0 15 15" id="icon-external-link">
<title>external-link</title>
<path class="path1" d="M11.786 7.768v2.679q0 0.996-0.707 1.703t-1.703 0.707h-6.964q-0.996 0-1.703-0.707t-0.707-1.703v-6.964q0-0.996 0.707-1.703t1.703-0.707h5.893q0.117 0 0.193 0.075t0.075 0.193v0.536q0 0.117-0.075 0.193t-0.193 0.075h-5.893q-0.552 0-0.946 0.393t-0.393 0.946v6.964q0 0.552 0.393 0.946t0.946 0.393h6.964q0.552 0 0.946-0.393t0.393-0.946v-2.679q0-0.117 0.075-0.193t0.193-0.075h0.536q0.117 0 0.193 0.075t0.075 0.193zM15 0.536v4.286q0 0.218-0.159 0.377t-0.377 0.159-0.377-0.159l-1.473-1.473-5.458 5.458q-0.084 0.084-0.193 0.084t-0.193-0.084l-0.954-0.954q-0.084-0.084-0.084-0.193t0.084-0.193l5.458-5.458-1.473-1.473q-0.159-0.159-0.159-0.377t0.159-0.377 0.377-0.159h4.286q0.218 0 0.377 0.159t0.159 0.377z"></path>
</symbol>

<symbol viewBox="0 0 15 15" id="icon-picture">
<title>Picture Icon</title>
<path class="path1" d="M0 1.875v12.188h15v-12.188h-15zM14.063 13.125h-13.125v-10.313h13.125v10.313zM10.313 5.156c0-0.777 0.63-1.406 1.406-1.406s1.406 0.63 1.406 1.406c0 0.777-0.63 1.406-1.406 1.406s-1.406-0.63-1.406-1.406zM13.125 12.188h-11.25l2.813-7.5 3.75 4.688 1.875-1.406z"></path>
</symbol>

<symbol viewBox="0 0 15 15" id="icon-youtube">
<title>YouTube Icon</title>
<path class="path1" d="M12.188 1.875h-9.375c-1.547 0-2.813 1.266-2.813 2.813v5.625c0 1.547 1.266 2.813 2.813 2.813h9.375c1.547 0 2.813-1.266 2.813-2.813v-5.625c0-1.547-1.266-2.813-2.813-2.813zM14.063 10.313c0 0.498-0.196 0.968-0.552 1.323s-0.826 0.552-1.323 0.552h-9.375c-0.498 0-0.968-0.196-1.323-0.552s-0.552-0.826-0.552-1.323v-5.625c0-0.498 0.196-0.968 0.552-1.323s0.826-0.552 1.323-0.552h9.375c0.498 0 0.968 0.196 1.323 0.552s0.552 0.826 0.552 1.323v5.625zM5.625 11.25l4.688-3.75-4.688-3.75z"></path>
</symbol>
<!-- home page -->
<symbol viewBox="0 0 350 266" id="icon-blog">
<title>blog</title>
<path fill="#999" d="M16 0h318v200h-318z"/>
<path fill="#2980B9" d="M26 9h298v178h-298z"/>
<path fill="#666" d="M350 254h-350l15.909-54h318.182z"/>
<path fill="#4D4D4D" d="M323.153 229h-296.306l7.292-29h281.722zm-83.954 23h-128.399l2.802-14h123.294z"/>
<path fill="#999" d="M0 254h350v12h-350z"/>
<path d="M136.014 84.697h8.47c3.979 0 6.856.595 8.634 1.784s2.666 3.069 2.666 5.64c0 1.777-.496 3.244-1.487 4.399s-2.437 1.904-4.337 2.246v.205c4.553.779 6.829 3.172 6.829 7.178 0 2.68-.906 4.771-2.717 6.275s-4.344 2.256-7.598 2.256h-10.459v-29.983zm3.486 12.838h5.742c2.461 0 4.231-.386 5.312-1.159s1.62-2.075 1.62-3.907c0-1.682-.602-2.895-1.805-3.64s-3.117-1.118-5.742-1.118h-5.127v9.824zm0 2.953v11.218h6.255c2.42 0 4.242-.468 5.465-1.405s1.835-2.403 1.835-4.399c0-1.859-.625-3.227-1.876-4.102s-3.155-1.313-5.711-1.313h-5.968zm26.62 14.192h-3.404v-31.91h3.404v31.91zm26.618-11.259c0 3.664-.922 6.525-2.768 8.583s-4.396 3.086-7.65 3.086c-2.01 0-3.793-.472-5.352-1.415s-2.762-2.297-3.61-4.061-1.271-3.828-1.271-6.193c0-3.664.916-6.518 2.748-8.562 1.833-2.044 4.375-3.066 7.629-3.066 3.145 0 5.643 1.046 7.496 3.138 1.853 2.091 2.778 4.922 2.778 8.49zm-17.123 0c0 2.871.574 5.059 1.723 6.563s2.836 2.256 5.064 2.256 3.92-.749 5.076-2.246c1.154-1.497 1.732-3.688 1.732-6.573 0-2.857-.578-5.028-1.732-6.511-1.156-1.483-2.861-2.225-5.117-2.225-2.229 0-3.91.731-5.045 2.194s-1.701 3.643-1.701 6.542zm41.487-11.218v2.153l-4.162.492c.383.479.725 1.104 1.025 1.876s.451 1.644.451 2.615c0 2.201-.752 3.958-2.256 5.271s-3.568 1.969-6.193 1.969c-.67 0-1.299-.055-1.887-.164-1.449.766-2.174 1.729-2.174 2.892 0 .615.252 1.07.758 1.364s1.375.441 2.605.441h3.979c2.434 0 4.303.513 5.609 1.538 1.305 1.025 1.957 2.516 1.957 4.471 0 2.488-.998 4.385-2.994 5.691s-4.908 1.958-8.736 1.958c-2.939 0-5.205-.547-6.797-1.641-1.594-1.094-2.391-2.639-2.391-4.635 0-1.367.438-2.55 1.313-3.548s2.105-1.675 3.691-2.03c-.574-.26-1.055-.663-1.445-1.21-.389-.547-.584-1.183-.584-1.907 0-.82.219-1.538.656-2.153s1.127-1.21 2.07-1.784c-1.162-.479-2.109-1.292-2.84-2.44-.732-1.148-1.098-2.461-1.098-3.938 0-2.461.738-4.358 2.215-5.691s3.568-2 6.275-2c1.176 0 2.236.137 3.18.41h7.773zm-17.924 26.25c0 1.217.514 2.14 1.539 2.769s2.494.943 4.408.943c2.857 0 4.975-.427 6.348-1.282 1.375-.854 2.061-2.013 2.061-3.476 0-1.217-.375-2.061-1.127-2.533s-2.168-.708-4.246-.708h-4.08c-1.545 0-2.748.369-3.609 1.107s-1.294 1.799-1.294 3.18zm1.845-19.052c0 1.572.445 2.762 1.334 3.568s2.125 1.21 3.711 1.21c3.322 0 4.984-1.613 4.984-4.84 0-3.377-1.682-5.065-5.045-5.065-1.6 0-2.83.431-3.691 1.292s-1.293 2.14-1.293 3.835z" fill="#ECF0F1"/>
</symbol>
<symbol viewBox="0 0 350 266" id="icon-contact">
<title>contact</title>
<path fill="#999" d="M16 0h318v200h-318z"/>
<path fill="#2980B9" d="M26 9h298v178h-298z"/>
<path fill="#666" d="M350 254h-350l15.909-54h318.182z"/>
<path fill="#4D4D4D" d="M323.153 229h-296.306l7.292-29h281.722zm-83.954 23h-128.399l2.802-14h123.294z"/>
<path fill="#999" d="M0 254h350v12h-350z"/>
<path d="M116.635 87.384c-3.295 0-5.896 1.097-7.803 3.292s-2.861 5.199-2.861 9.013c0 3.924.919 6.956 2.758 9.095s4.46 3.209 7.865 3.209c2.092 0 4.478-.376 7.157-1.128v3.056c-2.078.779-4.642 1.169-7.69 1.169-4.416 0-7.824-1.34-10.223-4.02s-3.599-6.487-3.599-11.423c0-3.09.578-5.797 1.733-8.121s2.823-4.115 5.004-5.373 4.748-1.887 7.701-1.887c3.145 0 5.893.574 8.244 1.723l-1.477 2.994c-2.27-1.066-4.539-1.599-6.809-1.599zm32.546 16.037c0 3.664-.923 6.525-2.769 8.583s-4.396 3.086-7.649 3.086c-2.01 0-3.794-.472-5.353-1.415s-2.762-2.297-3.609-4.061-1.271-3.828-1.271-6.193c0-3.664.916-6.518 2.748-8.562s4.375-3.066 7.629-3.066c3.145 0 5.643 1.046 7.495 3.138s2.779 4.922 2.779 8.49zm-17.124 0c0 2.871.574 5.059 1.723 6.563s2.837 2.256 5.065 2.256 3.92-.749 5.076-2.246c1.154-1.497 1.732-3.688 1.732-6.573 0-2.857-.578-5.028-1.732-6.511-1.156-1.483-2.861-2.225-5.117-2.225-2.229 0-3.91.731-5.045 2.194s-1.702 3.643-1.702 6.542zm38.473 11.259v-14.54c0-1.832-.417-3.199-1.251-4.102s-2.14-1.354-3.917-1.354c-2.352 0-4.074.636-5.168 1.907s-1.641 3.37-1.641 6.296v11.792h-3.404v-22.476h2.769l.554 3.076h.164c.697-1.107 1.675-1.965 2.933-2.574s2.659-.913 4.204-.913c2.707 0 4.744.653 6.111 1.958s2.051 3.394 2.051 6.265v14.663h-3.405zm17.658-2.4c.602 0 1.182-.044 1.742-.133s1.006-.181 1.334-.277v2.604c-.369.178-.912.325-1.631.441-.717.116-1.363.174-1.938.174-4.348 0-6.521-2.29-6.521-6.87v-13.37h-3.221v-1.641l3.221-1.415 1.436-4.799h1.969v5.209h6.521v2.646h-6.521v13.228c0 1.354.32 2.393.963 3.117s1.524 1.086 2.646 1.086zm21.388 2.4l-.676-3.199h-.164c-1.121 1.408-2.24 2.362-3.354 2.861-1.115.499-2.506.749-4.174.749-2.229 0-3.975-.574-5.238-1.723-1.266-1.148-1.898-2.782-1.898-4.901 0-4.539 3.631-6.918 10.891-7.137l3.814-.123v-1.395c0-1.764-.379-3.066-1.139-3.907-.758-.841-1.973-1.261-3.641-1.261-1.873 0-3.992.574-6.357 1.723l-1.045-2.604c1.107-.602 2.32-1.073 3.641-1.415 1.318-.342 2.641-.513 3.967-.513 2.68 0 4.666.595 5.959 1.784 1.291 1.189 1.938 3.097 1.938 5.722v15.34h-2.524zm-7.689-2.4c2.119 0 3.783-.581 4.994-1.743 1.209-1.162 1.814-2.789 1.814-4.881v-2.03l-3.404.144c-2.707.096-4.66.516-5.855 1.261-1.197.745-1.795 1.904-1.795 3.476 0 1.23.373 2.167 1.119 2.81.744.642 1.787.963 3.127.963zm26.209 2.81c-3.254 0-5.773-1.001-7.557-3.004-1.785-2.003-2.678-4.836-2.678-8.5 0-3.76.906-6.665 2.719-8.716 1.811-2.051 4.391-3.076 7.74-3.076 1.08 0 2.16.116 3.24.349s1.928.506 2.543.82l-1.045 2.892c-.752-.301-1.572-.55-2.461-.749s-1.676-.297-2.359-.297c-4.566 0-6.85 2.912-6.85 8.736 0 2.762.557 4.881 1.672 6.357 1.113 1.477 2.766 2.215 4.953 2.215 1.873 0 3.793-.403 5.762-1.21v3.015c-1.504.778-3.396 1.168-5.679 1.168zm18.271-2.81c.602 0 1.184-.044 1.744-.133s1.004-.181 1.332-.277v2.604c-.369.178-.912.325-1.629.441-.719.116-1.365.174-1.939.174-4.348 0-6.521-2.29-6.521-6.87v-13.37h-3.219v-1.641l3.219-1.415 1.436-4.799h1.969v5.209h6.521v2.646h-6.521v13.228c0 1.354.322 2.393.965 3.117s1.522 1.086 2.643 1.086z" fill="#ECF0F1"/>
</symbol>
<symbol viewBox="0 0 350 266" id="icon-demo">
<title>demo</title>
<path fill="#999" d="M16 0h318v200h-318z"/>
<path fill="#2980B9" d="M26 9h298v178h-298z"/>
<path fill="#666" d="M350 254h-350l15.909-54h318.182z"/>
<path fill="#4D4D4D" d="M323.153 229h-296.306l7.292-29h281.722zm-83.954 23h-128.399l2.802-14h123.294z"/>
<path fill="#999" d="M0 254h350v12h-350z"/>
<path d="M143.746 99.401c0 4.949-1.343 8.733-4.03 11.351s-6.552 3.927-11.597 3.927h-8.306v-29.982h9.187c4.662 0 8.285 1.292 10.869 3.876s3.877 6.194 3.877 10.828zm-3.692.123c0-3.91-.981-6.856-2.943-8.839s-4.877-2.974-8.747-2.974h-5.065v23.953h4.245c4.156 0 7.28-1.022 9.372-3.066s3.138-5.068 3.138-9.074zm19.36 15.566c-3.322 0-5.944-1.012-7.865-3.035s-2.881-4.833-2.881-8.429c0-3.623.892-6.501 2.676-8.634s4.18-3.199 7.188-3.199c2.816 0 5.045.926 6.686 2.779s2.461 4.296 2.461 7.332v2.153h-15.483c.068 2.639.735 4.642 2 6.009s3.045 2.051 5.342 2.051c2.42 0 4.813-.506 7.178-1.518v3.035c-1.203.52-2.342.892-3.414 1.118-1.076.225-2.371.338-3.888.338zm-.923-20.446c-1.805 0-3.244.588-4.317 1.764s-1.706 2.803-1.897 4.881h11.751c0-2.146-.479-3.791-1.436-4.932s-2.324-1.713-4.101-1.713zm43.64 20.036v-14.622c0-1.791-.383-3.134-1.148-4.03s-1.955-1.343-3.568-1.343c-2.119 0-3.684.608-4.695 1.825s-1.518 3.09-1.518 5.619v12.551h-3.404v-14.622c0-1.791-.383-3.134-1.148-4.03s-1.963-1.343-3.59-1.343c-2.133 0-3.695.639-4.686 1.917-.992 1.278-1.486 3.374-1.486 6.286v11.792h-3.405v-22.477h2.768l.555 3.076h.164c.643-1.094 1.549-1.948 2.717-2.563 1.17-.615 2.479-.923 3.928-.923 3.514 0 5.811 1.271 6.891 3.814h.164c.67-1.176 1.641-2.105 2.912-2.789s2.721-1.025 4.348-1.025c2.543 0 4.445.653 5.711 1.958 1.264 1.306 1.896 3.394 1.896 6.265v14.663h-3.406zm29.818-11.259c0 3.664-.922 6.525-2.768 8.583s-4.396 3.086-7.65 3.086c-2.01 0-3.793-.472-5.352-1.415s-2.762-2.297-3.609-4.061-1.271-3.828-1.271-6.193c0-3.664.916-6.518 2.748-8.562s4.375-3.066 7.629-3.066c3.145 0 5.643 1.046 7.496 3.138 1.851 2.091 2.777 4.922 2.777 8.49zm-17.123 0c0 2.871.574 5.059 1.723 6.563s2.836 2.256 5.064 2.256 3.92-.749 5.076-2.246c1.154-1.497 1.732-3.688 1.732-6.573 0-2.857-.578-5.028-1.732-6.511-1.156-1.483-2.861-2.225-5.117-2.225-2.229 0-3.91.731-5.045 2.194s-1.701 3.643-1.701 6.542z" fill="#ECF0F1"/>
</symbol>
<symbol viewBox="0 0 350 266" id="icon-work">
<title>work</title>
<path fill="#999" d="M16 0h318v200h-318z"/>
<path fill="#2980B9" d="M26 9h298v178h-298z"/>
<path fill="#666" d="M350 254h-350l15.909-54h318.182z"/>
<path fill="#4D4D4D" d="M323.153 229h-296.306l7.292-29h281.722zm-83.954 23h-128.399l2.802-14h123.294z"/>
<path fill="#999" d="M0 254h350v12h-350z"/>
<path d="M153.57 114.68h-3.445l-6.05-20.077c-.287-.889-.608-2.01-.964-3.363s-.54-2.167-.554-2.44c-.301 1.805-.779 3.78-1.436 5.927l-5.865 19.954h-3.445l-7.978-29.982h3.691l4.737 18.519c.656 2.598 1.135 4.949 1.436 7.055.369-2.502.916-4.949 1.641-7.342l5.373-18.231h3.691l5.64 18.396c.656 2.119 1.21 4.512 1.661 7.178.26-1.941.752-4.307 1.477-7.096l4.717-18.478h3.691l-8.018 29.98zm31.602-11.259c0 3.664-.922 6.525-2.768 8.583s-4.396 3.086-7.65 3.086c-2.01 0-3.794-.472-5.353-1.415s-2.762-2.297-3.609-4.061-1.271-3.828-1.271-6.193c0-3.664.916-6.518 2.748-8.562s4.375-3.066 7.629-3.066c3.145 0 5.643 1.046 7.495 3.138 1.853 2.091 2.779 4.922 2.779 8.49zm-17.124 0c0 2.871.574 5.059 1.723 6.563s2.837 2.256 5.065 2.256 3.919-.749 5.076-2.246c1.154-1.497 1.732-3.688 1.732-6.573 0-2.857-.578-5.028-1.732-6.511-1.156-1.483-2.861-2.225-5.117-2.225-2.229 0-3.91.731-5.045 2.194s-1.702 3.643-1.702 6.542zm33.347-11.628c.998 0 1.893.082 2.686.246l-.471 3.158c-.93-.205-1.75-.308-2.461-.308-1.818 0-3.375.738-4.666 2.215-1.293 1.477-1.938 3.315-1.938 5.517v12.059h-3.404v-22.477h2.809l.391 4.163h.164c.834-1.463 1.838-2.591 3.014-3.384s2.467-1.189 3.876-1.189zm10.253 11.382c.588-.834 1.482-1.928 2.686-3.281l7.26-7.69h4.041l-9.105 9.577 9.74 12.899h-4.121l-7.938-10.623-2.563 2.215v8.408h-3.363v-31.91h3.363v16.919c0 .752-.055 1.914-.164 3.486h.164z" fill="#ECF0F1"/>
</symbol>
<!-- Mobile Icons -->
<symbol viewBox="0 0 100 206.809" id="icon-blog-mobile">
<title>blog-mobile</title>
<path fill="#666" d="M99.905 9.615c-1.522-5-23.278-9.615-49.905-9.615-26.626 0-48.383 4.615-49.907 9.615h-.093v186h.093c-.056 0-.093.648-.093.852 0 5.641 22.386 10.342 50 10.342s50-4.763 50-10.404c0-.202-.036-.789-.095-.789h.095v-186h-.095zm-75.385-4.042c1.062 0 1.922.861 1.922 1.923s-.861 1.923-1.922 1.923c-1.063 0-1.923-.861-1.923-1.923s.86-1.923 1.923-1.923zm23.076 1.602c0-1.328 1.076-2.404 2.404-2.404s2.404 1.076 2.404 2.404c0 1.328-1.076 2.403-2.404 2.403s-2.404-1.075-2.404-2.403zm50.404 6.44v179h-96v-179h96zm-27 183.5c0 .828-.671 1.5-1.5 1.5h-41c-.829 0-1.5-.672-1.5-1.5s.671-1.5 1.5-1.5h41c.829 0 1.5.672 1.5 1.5z"/>
<path fill="#BDC3C7" d="M71 197.115c0-.828-.671-1.5-1.5-1.5h-41c-.829 0-1.5.672-1.5 1.5s.671 1.5 1.5 1.5h41c.829 0 1.5-.672 1.5-1.5z"/>
<circle fill="#BDC3C7" cx="24.52" cy="7.496" r="1.923"/>
<circle fill="#A9A9AA" cx="50" cy="7.175" r="2.404"/>
<path fill="#2980B9" d="M2 13.615h96v179h-96z"/>
<path d="M28.58 88.297h4.654c2.186 0 3.767.327 4.744.98.976.654 1.465 1.687 1.465 3.099 0 .977-.272 1.783-.817 2.417-.545.635-1.339 1.046-2.383 1.234v.113c2.501.428 3.752 1.743 3.752 3.944 0 1.473-.498 2.622-1.493 3.448-.996.826-2.387 1.239-4.175 1.239h-5.747v-16.474zm1.916 7.054h3.155c1.352 0 2.325-.212 2.918-.637.593-.424.89-1.14.89-2.146 0-.924-.331-1.591-.992-2-.661-.41-1.712-.614-3.155-.614h-2.817v5.397zm0 1.623v6.164h3.437c1.33 0 2.331-.257 3.003-.772s1.008-1.32 1.008-2.417c0-1.021-.343-1.773-1.031-2.253-.688-.481-1.733-.721-3.138-.721h-3.279zm14.625 7.797h-1.87v-17.533h1.87v17.533zm14.626-6.186c0 2.013-.507 3.585-1.521 4.715-1.014 1.131-2.415 1.696-4.203 1.696-1.104 0-2.084-.259-2.941-.778-.856-.518-1.518-1.262-1.983-2.231-.466-.969-.699-2.103-.699-3.403 0-2.013.503-3.582 1.51-4.705s2.404-1.685 4.192-1.685c1.728 0 3.101.575 4.118 1.724 1.018 1.151 1.527 2.706 1.527 4.667zm-9.409 0c0 1.578.315 2.779.947 3.605.631.827 1.559 1.24 2.783 1.24s2.154-.411 2.789-1.234.952-2.026.952-3.611c0-1.57-.317-2.763-.952-3.578s-1.572-1.223-2.812-1.223c-1.224 0-2.148.402-2.772 1.206-.623.804-.935 2.002-.935 3.595zm22.796-6.164v1.183l-2.288.271c.21.263.398.606.563 1.031.165.425.248.903.248 1.437 0 1.21-.413 2.175-1.239 2.896-.827.721-1.96 1.082-3.403 1.082-.368 0-.714-.03-1.037-.09-.796.421-1.194.95-1.194 1.589 0 .338.139.588.417.749.278.162.755.243 1.431.243h2.186c1.337 0 2.364.282 3.082.845.717.563 1.076 1.382 1.076 2.457 0 1.367-.548 2.41-1.645 3.127s-2.697 1.076-4.8 1.076c-1.615 0-2.86-.301-3.735-.901-.875-.601-1.313-1.45-1.313-2.547 0-.751.24-1.401.721-1.949.48-.548 1.157-.92 2.028-1.116-.315-.143-.581-.364-.794-.665-.214-.3-.321-.65-.321-1.048 0-.451.12-.845.361-1.183.24-.338.62-.665 1.138-.98-.638-.263-1.159-.71-1.561-1.341-.402-.631-.603-1.352-.603-2.164 0-1.352.405-2.395 1.217-3.127.811-.732 1.96-1.099 3.448-1.099.646 0 1.229.075 1.747.226h4.27zm-9.849 14.423c0 .668.282 1.176.845 1.521s1.371.518 2.423.518c1.57 0 2.732-.235 3.487-.704.755-.47 1.132-1.106 1.132-1.91 0-.668-.207-1.132-.62-1.392s-1.191-.389-2.333-.389h-2.242c-.849 0-1.51.203-1.983.608s-.709.989-.709 1.748zm1.014-10.468c0 .864.244 1.518.732 1.96.488.443 1.168.665 2.04.665 1.826 0 2.738-.887 2.738-2.66 0-1.855-.924-2.783-2.772-2.783-.879 0-1.555.237-2.028.71-.473.475-.71 1.177-.71 2.108z" fill="#ECF0F1"/>
</symbol>
<symbol viewBox="0 0 100 206.809" id="icon-contact-mobile">
<title>contact-mobile</title>
<path fill="#666" d="M99.905 9.615c-1.522-5-23.278-9.615-49.905-9.615-26.626 0-48.383 4.615-49.907 9.615h-.093v186h.093c-.056 0-.093.648-.093.852 0 5.641 22.386 10.342 50 10.342s50-4.763 50-10.404c0-.202-.036-.789-.095-.789h.095v-186h-.095zm-75.385-4.042c1.062 0 1.922.861 1.922 1.923s-.861 1.923-1.922 1.923c-1.063 0-1.923-.861-1.923-1.923s.86-1.923 1.923-1.923zm23.076 1.602c0-1.328 1.076-2.404 2.404-2.404s2.404 1.076 2.404 2.404c0 1.328-1.076 2.403-2.404 2.403s-2.404-1.075-2.404-2.403zm50.404 6.44v179h-96v-179h96zm-27 183.5c0 .828-.671 1.5-1.5 1.5h-41c-.829 0-1.5-.672-1.5-1.5s.671-1.5 1.5-1.5h41c.829 0 1.5.672 1.5 1.5z"/>
<path fill="#BDC3C7" d="M71 197.115c0-.828-.671-1.5-1.5-1.5h-41c-.829 0-1.5.672-1.5 1.5s.671 1.5 1.5 1.5h41c.829 0 1.5-.672 1.5-1.5z"/>
<circle fill="#BDC3C7" cx="24.52" cy="7.496" r="1.923"/>
<circle fill="#A9A9AA" cx="50" cy="7.175" r="2.404"/>
<path fill="#2980B9" d="M2 13.615h96v179h-96z"/>
<path d="M17.932 89.773c-1.811 0-3.24.603-4.288 1.808-1.048 1.206-1.572 2.856-1.572 4.953 0 2.156.505 3.822 1.515 4.997 1.01 1.176 2.451 1.764 4.321 1.764 1.149 0 2.46-.207 3.933-.62v1.679c-1.142.428-2.55.643-4.226.643-2.426 0-4.298-.736-5.617-2.209-1.318-1.472-1.978-3.564-1.978-6.276 0-1.698.317-3.185.952-4.462.634-1.277 1.551-2.261 2.749-2.952 1.198-.691 2.609-1.037 4.231-1.037 1.728 0 3.237.315 4.53.946l-.812 1.646c-1.245-.587-2.492-.88-3.738-.88zm17.881 8.812c0 2.013-.507 3.585-1.521 4.715-1.014 1.131-2.415 1.696-4.203 1.696-1.104 0-2.084-.259-2.941-.778-.856-.518-1.518-1.262-1.983-2.231-.466-.969-.699-2.103-.699-3.403 0-2.013.503-3.582 1.51-4.705s2.404-1.685 4.192-1.685c1.728 0 3.101.575 4.118 1.724 1.019 1.151 1.527 2.706 1.527 4.667zm-9.408 0c0 1.578.315 2.779.947 3.605.631.827 1.559 1.24 2.783 1.24s2.154-.411 2.789-1.234.952-2.026.952-3.611c0-1.57-.317-2.763-.952-3.578s-1.572-1.223-2.812-1.223c-1.224 0-2.148.402-2.772 1.206-.624.804-.935 2.002-.935 3.595zm21.139 6.186v-7.989c0-1.006-.229-1.758-.687-2.253-.458-.496-1.176-.744-2.152-.744-1.292 0-2.239.349-2.84 1.048s-.901 1.852-.901 3.459v6.479h-1.87v-12.35h1.521l.304 1.69h.09c.383-.608.92-1.08 1.611-1.414.691-.334 1.461-.501 2.31-.501 1.488 0 2.607.359 3.358 1.076.751.717 1.127 1.865 1.127 3.442v8.057h-1.871zm9.702-1.318c.331 0 .649-.024.958-.073s.552-.1.732-.152v1.431c-.203.098-.501.178-.896.242s-.75.096-1.065.096c-2.389 0-3.583-1.258-3.583-3.775v-7.347h-1.769v-.902l1.769-.777.789-2.637h1.082v2.862h3.583v1.454h-3.583v7.268c0 .744.177 1.315.53 1.713.352.398.836.597 1.453.597zm11.753 1.318l-.372-1.758h-.09c-.616.774-1.23 1.298-1.843 1.572-.612.274-1.377.412-2.293.412-1.225 0-2.185-.316-2.879-.947-.695-.631-1.042-1.528-1.042-2.693 0-2.494 1.995-3.801 5.984-3.921l2.096-.068v-.766c0-.969-.209-1.685-.626-2.146s-1.083-.693-2-.693c-1.029 0-2.193.315-3.493.946l-.574-1.431c.608-.331 1.274-.59 2-.778.725-.188 1.451-.282 2.181-.282 1.472 0 2.563.327 3.273.98.709.653 1.064 1.702 1.064 3.144v8.429h-1.386zm-4.226-1.318c1.164 0 2.079-.319 2.743-.958.665-.638.998-1.532.998-2.682v-1.115l-1.871.079c-1.487.053-2.56.284-3.217.693-.657.41-.986 1.046-.986 1.91 0 .676.205 1.19.614 1.543.409.353.983.53 1.719.53zm14.401 1.544c-1.788 0-3.172-.55-4.152-1.651-.981-1.101-1.471-2.657-1.471-4.671 0-2.065.497-3.662 1.494-4.789.995-1.127 2.413-1.69 4.254-1.69.593 0 1.187.064 1.78.191.593.128 1.059.278 1.396.451l-.575 1.589c-.413-.165-.864-.302-1.353-.411s-.92-.164-1.296-.164c-2.509 0-3.763 1.6-3.763 4.8 0 1.518.306 2.682.918 3.493.612.812 1.52 1.217 2.721 1.217 1.029 0 2.085-.221 3.167-.665v1.656c-.826.429-1.866.644-3.12.644zm10.039-1.544c.331 0 .65-.024.958-.073s.553-.1.732-.152v1.431c-.203.098-.501.178-.896.242s-.749.096-1.065.096c-2.389 0-3.583-1.258-3.583-3.775v-7.347h-1.769v-.902l1.769-.777.789-2.637h1.082v2.862h3.583v1.454h-3.583v7.268c0 .744.176 1.315.529 1.713.353.398.839.597 1.454.597z" fill="#ECF0F1"/>
</symbol>
<symbol viewBox="0 0 100 206.809" id="icon-demo-mobile">
<title>demo-mobile</title>
<path fill="#666" d="M99.905 9.615c-1.522-5-23.278-9.615-49.905-9.615-26.626 0-48.383 4.615-49.907 9.615h-.093v186h.093c-.056 0-.093.648-.093.852 0 5.641 22.386 10.342 50 10.342s50-4.763 50-10.404c0-.202-.036-.789-.095-.789h.095v-186h-.095zm-75.385-4.042c1.062 0 1.922.861 1.922 1.923s-.861 1.923-1.922 1.923c-1.063 0-1.923-.861-1.923-1.923s.86-1.923 1.923-1.923zm23.076 1.602c0-1.328 1.076-2.404 2.404-2.404s2.404 1.076 2.404 2.404c0 1.328-1.076 2.403-2.404 2.403s-2.404-1.075-2.404-2.403zm50.404 6.44v179h-96v-179h96zm-27 183.5c0 .828-.671 1.5-1.5 1.5h-41c-.829 0-1.5-.672-1.5-1.5s.671-1.5 1.5-1.5h41c.829 0 1.5.672 1.5 1.5z"/>
<path fill="#BDC3C7" d="M71 197.115c0-.828-.671-1.5-1.5-1.5h-41c-.829 0-1.5.672-1.5 1.5s.671 1.5 1.5 1.5h41c.829 0 1.5-.672 1.5-1.5z"/>
<circle fill="#BDC3C7" cx="24.52" cy="7.496" r="1.923"/>
<circle fill="#A9A9AA" cx="50" cy="7.175" r="2.404"/>
<path fill="#2980B9" d="M2 13.615h96v179h-96z"/>
<path d="M27.323 96.376c0 2.719-.738 4.798-2.214 6.237s-3.6 2.158-6.372 2.158h-4.564v-16.474h5.048c2.562 0 4.552.709 5.972 2.129 1.42 1.421 2.13 3.404 2.13 5.95zm-2.028.068c0-2.148-.539-3.767-1.617-4.856-1.078-1.089-2.68-1.634-4.806-1.634h-2.783v13.161h2.332c2.284 0 4-.562 5.15-1.685 1.149-1.123 1.724-2.785 1.724-4.986zm10.637 8.553c-1.825 0-3.266-.556-4.321-1.668-1.056-1.112-1.583-2.655-1.583-4.631 0-1.991.49-3.572 1.47-4.744.98-1.172 2.297-1.758 3.95-1.758 1.547 0 2.772.509 3.673 1.527.901 1.018 1.352 2.361 1.352 4.028v1.183h-8.507c.038 1.45.404 2.55 1.099 3.302.695.751 1.673 1.126 2.936 1.126 1.33 0 2.644-.278 3.944-.833v1.667c-.661.286-1.287.49-1.876.614s-1.303.187-2.137.187zm-.507-11.235c-.992 0-1.782.323-2.372.969-.59.646-.937 1.54-1.042 2.682h6.457c0-1.179-.263-2.083-.789-2.71s-1.278-.941-2.254-.941zm23.978 11.009v-8.034c0-.984-.21-1.722-.631-2.214-.421-.492-1.075-.738-1.961-.738-1.165 0-2.024.334-2.58 1.003-.556.668-.834 1.698-.834 3.087v6.896h-1.871v-8.034c0-.984-.21-1.722-.631-2.214-.421-.492-1.078-.738-1.972-.738-1.172 0-2.03.351-2.575 1.054-.544.702-.817 1.854-.817 3.454v6.479h-1.87v-12.35h1.521l.304 1.69h.09c.353-.601.851-1.07 1.493-1.408.643-.338 1.362-.507 2.158-.507 1.93 0 3.192.699 3.786 2.096h.09c.368-.646.901-1.157 1.6-1.532s1.495-.563 2.389-.563c1.397 0 2.443.359 3.138 1.076s1.042 1.865 1.042 3.442v8.057h-1.869zm16.385-6.186c0 2.013-.508 3.585-1.522 4.715-1.014 1.131-2.415 1.696-4.203 1.696-1.104 0-2.084-.259-2.94-.778-.856-.518-1.518-1.262-1.983-2.231s-.699-2.103-.699-3.403c0-2.013.503-3.582 1.51-4.705 1.006-1.123 2.403-1.685 4.191-1.685 1.728 0 3.101.575 4.118 1.724 1.018 1.151 1.528 2.706 1.528 4.667zm-9.41 0c0 1.578.315 2.779.946 3.605.631.827 1.559 1.24 2.783 1.24s2.154-.411 2.789-1.234.952-2.026.952-3.611c0-1.57-.317-2.763-.952-3.578s-1.572-1.223-2.812-1.223c-1.225 0-2.148.402-2.771 1.206-.623.804-.935 2.002-.935 3.595zm20.654 2.817c0 1.149-.428 2.036-1.284 2.659s-2.059.936-3.605.936c-1.638 0-2.915-.259-3.831-.778v-1.735c.593.301 1.229.538 1.909.71.681.173 1.336.259 1.967.259.977 0 1.728-.156 2.254-.468.525-.312.788-.787.788-1.425 0-.48-.208-.892-.625-1.234s-1.23-.746-2.439-1.211c-1.149-.428-1.967-.802-2.451-1.121-.484-.319-.845-.682-1.081-1.087-.237-.405-.355-.89-.355-1.454 0-1.006.409-1.801 1.229-2.383.818-.582 1.941-.874 3.369-.874 1.329 0 2.629.271 3.898.812l-.665 1.521c-1.239-.511-2.362-.766-3.369-.766-.886 0-1.555.139-2.006.417-.45.278-.676.661-.676 1.149 0 .331.085.612.254.845.169.233.441.455.816.665.376.21 1.097.515 2.164.913 1.465.534 2.454 1.07 2.969 1.611s.77 1.22.77 2.039z" fill="#ECF0F1"/>
</symbol>
<symbol viewBox="0 0 100 206.809" id="icon-work-mobile">
<title>work-mobile</title>
<path fill="#666" d="M99.905 9.615c-1.522-5-23.278-9.615-49.905-9.615-26.626 0-48.383 4.615-49.907 9.615h-.093v186h.093c-.056 0-.093.648-.093.852 0 5.641 22.386 10.342 50 10.342s50-4.763 50-10.404c0-.202-.036-.789-.095-.789h.095v-186h-.095zm-75.385-4.042c1.062 0 1.922.861 1.922 1.923s-.861 1.923-1.922 1.923c-1.063 0-1.923-.861-1.923-1.923s.86-1.923 1.923-1.923zm23.076 1.602c0-1.328 1.076-2.404 2.404-2.404s2.404 1.076 2.404 2.404c0 1.328-1.076 2.403-2.404 2.403s-2.404-1.075-2.404-2.403zm50.404 6.44v179h-96v-179h96zm-27 183.5c0 .828-.671 1.5-1.5 1.5h-41c-.829 0-1.5-.672-1.5-1.5s.671-1.5 1.5-1.5h41c.829 0 1.5.672 1.5 1.5z"/>
<path fill="#BDC3C7" d="M71 197.115c0-.828-.671-1.5-1.5-1.5h-41c-.829 0-1.5.672-1.5 1.5s.671 1.5 1.5 1.5h41c.829 0 1.5-.672 1.5-1.5z"/>
<circle fill="#BDC3C7" cx="24.52" cy="7.496" r="1.923"/>
<circle fill="#A9A9AA" cx="50" cy="7.175" r="2.404"/>
<path fill="#2980B9" d="M2 13.615h96v179h-96z"/>
<path d="M38.225 104.771h-1.893l-3.324-11.031c-.158-.488-.334-1.104-.53-1.848s-.297-1.19-.304-1.341c-.165.992-.428 2.077-.789 3.256l-3.223 10.964h-1.892l-4.383-16.474h2.028l2.603 10.175c.36 1.427.623 2.719.789 3.876.203-1.375.503-2.719.901-4.034l2.952-10.017h2.028l3.099 10.107c.361 1.164.665 2.479.913 3.943.143-1.066.413-2.366.811-3.898l2.592-10.152h2.028l-4.406 16.474zm17.364-6.186c0 2.013-.507 3.585-1.521 4.715-1.014 1.131-2.415 1.696-4.203 1.696-1.104 0-2.084-.259-2.941-.778-.856-.518-1.518-1.262-1.983-2.231-.466-.969-.699-2.103-.699-3.403 0-2.013.503-3.582 1.51-4.705s2.404-1.685 4.192-1.685c1.728 0 3.101.575 4.118 1.724 1.018 1.151 1.527 2.706 1.527 4.667zm-9.409 0c0 1.578.315 2.779.947 3.605.631.827 1.559 1.24 2.783 1.24s2.154-.411 2.789-1.234.952-2.026.952-3.611c0-1.57-.317-2.763-.952-3.578s-1.572-1.223-2.812-1.223c-1.224 0-2.148.402-2.772 1.206-.623.804-.935 2.002-.935 3.595zm18.322-6.389c.548 0 1.041.045 1.476.135l-.259 1.735c-.511-.113-.961-.169-1.352-.169-.999 0-1.854.406-2.563 1.217-.71.812-1.065 1.822-1.065 3.031v6.625h-1.87v-12.35h1.543l.214 2.287h.09c.458-.804 1.01-1.423 1.656-1.859s1.356-.652 2.13-.652zm5.634 6.254c.323-.458.815-1.059 1.476-1.803l3.989-4.226h2.22l-5.003 5.262 5.353 7.087h-2.265l-4.361-5.837-1.409 1.217v4.62h-1.848v-17.532h1.848v9.296c0 .413-.03 1.052-.09 1.916h.09z" fill="#ECF0F1"/>
</symbol>
<!-- demos page icons -->

  <symbol viewBox="0 0 350 266" id="demo-c5-demo">
    <title>c5-demo icon</title>
    <desc id="description">A computer with the concrete5 hand logo</desc>
    <path fill="#999" d="M16 0h318v200h-318z"/>
    <path fill="#2980B9" d="M26 9h298v178h-298z"/>
    <path fill="#666" d="M350 254h-350l15.909-54h318.182z"/>
    <path fill="#4D4D4D" d="M323.153 229h-296.306l7.292-29h281.722zM239.199 252h-128.399l2.802-14h123.294z"/>
    <path fill="#999" d="M0 254h350v12h-350z"/>
    <path fill="#ccc" d="M231.225 19.662c-1.481 0-2.689 1.206-2.689 2.688 0 1.481 1.208 2.688 2.689 2.688 1.479 0 2.688-1.207 2.688-2.688-.001-1.482-1.209-2.688-2.688-2.688zm0 5.094c-1.328 0-2.406-1.08-2.406-2.406 0-1.327 1.078-2.405 2.406-2.405s2.404 1.078 2.404 2.405c0 1.326-1.076 2.406-2.404 2.406zm.85-2.793c0-.49-.328-.723-.863-.723h-.86v2.217h.522v-.78h.272l.392.78h.56l-.436-.849c.242-.101.413-.294.413-.645zm-.899.329h-.302v-.583h.302c.254 0 .377.091.377.288 0 .206-.123.295-.377.295z"/>
    <path fill="#fff" d="M226.463 105.973c-12.623-15.039-32.043 16.678-42.507 23.545-7.222 4.746-18.187 5.118-25.888.589-10.54-6.196-7.313-21.011 3.814-24.688 9.894-3.272 27.196 7.153 33.479-3.28 7.736-12.847-18.707-15.86-26.533-15.548-14.103.554-27.688 5.125-36.058 15.797-9.01 11.493-6.952 25.387 2.986 35.816 10.123 9.789 24.779 13.563 39.37 12.364 3.685-.303 10.019-1.881 14.866-4.531 9.61-5.258 39.024-37.021 36.471-40.064zm-92.306-11.253c4.887.975-4.581-26.333-5.203-30.093-.746-4.544-2.425-10.956-6.934-11.623-5.237-.762-6.67 5.192-5.602 10.418 1.103 5.437 13.147 30.381 17.739 31.298zm40.445-14.099c7.573 1.073 7.052-35.269 7.062-40.209.004-4.44 1.738-16.744-4.26-17.903-8.228-1.595-9.045 9.25-9.222 15.081.339 5.825-1.502 41.91 6.42 43.031zm18.033 5.811c8.277 3.456 14.604-33.259 15.518-37.967.925-4.797 1.078-14.981-7.146-11.758-4.127 1.617-4.881 8.308-5.518 11.999-1.03 4.694-9.232 35.06-2.854 37.726zm-39.788-3.086c9.328.695.539-36.232-.196-41.155-.752-5.019-4.128-15.074-11.096-9.221-3.49 2.935-1.918 9.762-1.264 13.592.614 4.952 5.366 36.251 12.556 36.784z"/>
    <g fill="#ECF0F1">
      <path d="M102.721 163.802c-1.412 0-2.527.47-3.344 1.411-.817.939-1.226 2.228-1.226 3.862 0 1.682.394 2.981 1.182 3.897.788.918 1.912 1.376 3.371 1.376.896 0 1.919-.161 3.067-.483v1.31c-.891.334-1.989.501-3.296.501-1.893 0-3.353-.574-4.381-1.723s-1.542-2.78-1.542-4.896c0-1.324.248-2.484.743-3.48s1.21-1.764 2.145-2.303 2.035-.809 3.3-.809c1.348 0 2.525.246 3.533.738l-.633 1.283c-.973-.456-1.946-.684-2.919-.684zM116.669 170.675c0 1.57-.396 2.797-1.187 3.679s-1.884 1.322-3.278 1.322c-.861 0-1.626-.202-2.294-.606s-1.184-.984-1.547-1.74-.545-1.641-.545-2.654c0-1.57.393-2.793 1.178-3.669s1.875-1.314 3.27-1.314c1.348 0 2.418.448 3.212 1.345s1.191 2.108 1.191 3.637zm-7.338 0c0 1.23.246 2.168.738 2.813s1.216.967 2.171.967 1.68-.321 2.175-.962c.495-.643.743-1.581.743-2.817 0-1.225-.248-2.154-.743-2.79s-1.226-.954-2.193-.954c-.955 0-1.676.313-2.162.94s-.729 1.561-.729 2.803zM125.819 175.5v-6.231c0-.785-.179-1.371-.536-1.758s-.917-.58-1.679-.58c-1.008 0-1.746.272-2.215.817s-.703 1.444-.703 2.698v5.054h-1.459v-9.633h1.187l.237 1.318h.07c.299-.475.718-.842 1.257-1.104.539-.26 1.14-.391 1.802-.391 1.16 0 2.033.28 2.619.84s.879 1.454.879 2.685v6.284h-1.459zM134.125 175.676c-1.395 0-2.474-.429-3.239-1.287s-1.147-2.073-1.147-3.644c0-1.611.388-2.856 1.165-3.735s1.882-1.318 3.318-1.318c.463 0 .926.05 1.389.149s.826.217 1.09.352l-.448 1.239c-.322-.129-.674-.235-1.055-.32s-.718-.128-1.011-.128c-1.957 0-2.936 1.248-2.936 3.744 0 1.184.239 2.092.716 2.725s1.185.949 2.123.949c.803 0 1.626-.173 2.47-.519v1.292c-.645.334-1.457.501-2.435.501zM143.239 165.691c.428 0 .812.035 1.151.105l-.202 1.354c-.398-.088-.75-.132-1.055-.132-.779 0-1.446.316-2 .949s-.831 1.421-.831 2.364v5.168h-1.459v-9.633h1.204l.167 1.784h.07c.357-.627.788-1.11 1.292-1.45s1.059-.509 1.663-.509zM150.261 175.676c-1.424 0-2.547-.434-3.371-1.301s-1.235-2.071-1.235-3.612c0-1.553.382-2.786 1.147-3.7s1.792-1.371 3.081-1.371c1.207 0 2.162.397 2.865 1.191s1.055 1.841 1.055 3.142v.923h-6.636c.029 1.131.315 1.989.857 2.575s1.305.879 2.29.879c1.037 0 2.063-.217 3.076-.65v1.301c-.516.223-1.003.382-1.463.479-.46.095-1.015.144-1.666.144zm-.395-8.763c-.773 0-1.39.252-1.85.756s-.731 1.201-.813 2.092h5.036c0-.92-.205-1.624-.615-2.114-.411-.489-.997-.734-1.758-.734zM159.402 174.472c.258 0 .507-.019.747-.058.24-.037.431-.077.571-.118v1.116c-.158.076-.391.139-.699.189-.308.049-.584.074-.831.074-1.863 0-2.795-.981-2.795-2.944v-5.73h-1.38v-.703l1.38-.606.615-2.057h.844v2.232h2.795v1.134h-2.795v5.669c0 .58.138 1.025.413 1.336s.654.466 1.135.466zM166.714 175.676c-1.424 0-2.547-.434-3.371-1.301s-1.235-2.071-1.235-3.612c0-1.553.382-2.786 1.147-3.7s1.792-1.371 3.081-1.371c1.207 0 2.162.397 2.865 1.191s1.055 1.841 1.055 3.142v.923h-6.636c.029 1.131.315 1.989.857 2.575s1.305.879 2.29.879c1.037 0 2.063-.217 3.076-.65v1.301c-.516.223-1.003.382-1.463.479-.46.095-1.015.144-1.666.144zm-.395-8.763c-.773 0-1.39.252-1.85.756s-.731 1.201-.813 2.092h5.036c0-.92-.205-1.624-.615-2.114-.41-.489-.996-.734-1.758-.734zM180.768 167.651c1.354 0 2.419.336 3.195 1.007s1.164 1.589 1.164 2.755c0 1.33-.423 2.373-1.27 3.129s-2.014 1.134-3.502 1.134c-1.447 0-2.553-.231-3.314-.694v-1.406c.41.264.92.47 1.529.62.609.148 1.211.224 1.803.224 1.031 0 1.832-.243 2.403-.729s.856-1.189.856-2.109c0-1.793-1.098-2.689-3.295-2.689-.557 0-1.301.085-2.232.255l-.756-.483.482-6.012h6.391v1.345h-5.143l-.324 3.858c.675-.137 1.345-.205 2.013-.205zM200.684 175.5l-1.6-4.087h-5.15l-1.582 4.087h-1.512l5.08-12.902h1.258l5.053 12.902h-1.547zm-2.065-5.432l-1.494-3.981c-.193-.504-.393-1.122-.598-1.854-.129.563-.314 1.181-.555 1.854l-1.512 3.981h4.159zM210.334 174.208h-.078c-.674.979-1.682 1.468-3.023 1.468-1.26 0-2.24-.431-2.939-1.292-.701-.861-1.051-2.086-1.051-3.674s.352-2.821 1.055-3.7 1.682-1.318 2.936-1.318c1.307 0 2.309.475 3.006 1.424h.113l-.061-.694-.035-.677v-3.92h1.459v13.675h-1.188l-.194-1.292zm-2.918.246c.996 0 1.719-.271 2.168-.813.447-.541.672-1.416.672-2.623v-.308c0-1.365-.229-2.339-.682-2.923-.455-.582-1.18-.874-2.176-.874-.855 0-1.51.333-1.963.997-.455.666-.682 1.604-.682 2.817 0 1.23.225 2.159.676 2.786s1.114.941 1.987.941zM221.365 174.208h-.08c-.674.979-1.682 1.468-3.023 1.468-1.26 0-2.24-.431-2.939-1.292-.701-.861-1.051-2.086-1.051-3.674s.352-2.821 1.055-3.7 1.682-1.318 2.936-1.318c1.307 0 2.309.475 3.006 1.424h.115l-.063-.694-.035-.677v-3.92h1.459v13.675h-1.186l-.194-1.292zm-2.918.246c.996 0 1.719-.271 2.166-.813.449-.541.672-1.416.672-2.623v-.308c0-1.365-.227-2.339-.68-2.923-.455-.582-1.18-.874-2.176-.874-.855 0-1.512.333-1.965.997-.455.666-.682 1.604-.682 2.817 0 1.23.227 2.159.678 2.786s1.114.941 1.987.941zM225.029 171.343v-1.336h4.316v1.336h-4.316zM239.945 170.675c0 1.57-.396 2.797-1.188 3.679s-1.883 1.322-3.277 1.322c-.861 0-1.627-.202-2.295-.606s-1.184-.984-1.547-1.74-.545-1.641-.545-2.654c0-1.57.393-2.793 1.178-3.669s1.875-1.314 3.27-1.314c1.348 0 2.418.448 3.213 1.345.793.895 1.191 2.108 1.191 3.637zm-7.34 0c0 1.23.246 2.168.738 2.813s1.217.967 2.172.967 1.68-.321 2.176-.962c.494-.643.742-1.581.742-2.817 0-1.225-.248-2.154-.742-2.79-.496-.636-1.227-.954-2.193-.954-.955 0-1.676.313-2.162.94s-.731 1.561-.731 2.803zM249.094 175.5v-6.231c0-.785-.178-1.371-.535-1.758s-.918-.58-1.68-.58c-1.008 0-1.746.272-2.215.817s-.703 1.444-.703 2.698v5.054h-1.459v-9.633h1.188l.236 1.318h.07c.299-.475.719-.842 1.258-1.104.539-.26 1.139-.391 1.801-.391 1.16 0 2.033.28 2.619.84s.879 1.454.879 2.685v6.284h-1.459z"/>
    </g>
  </symbol>
<!-- Work Page Icons -->
  <symbol viewBox="0 0 350 266" id="icon-work">
      <title>Skip To Current Work Icon</title>
      <path fill="#999" d="M16 0h318v199h-318z"/>
      <path fill="#2980B9" d="M24 8h298v179h-298z"/>
      <path fill="#666" d="M350 250h-348.015l15.82-51h316.38z"/>
      <path fill="#4D4D4D" d="M323.309 226h-294.629l7.248-27h280.13zM239.829 250h-127.673l2.784-16h122.597z"/>
      <path fill="#999" d="M0 250h350v12h-350z"/>
      <path fill="#F2F2F2" d="M155 24h44v12h-44zM155.113 44l-6.742 93.311 28.055 37.302 27.405-37.575-5.216-93.038z"/>
    </symbol>
    <symbol viewBox="0 0 350 266" id="icon-demos">
      <title>Skip To Demos Icon</title>
      <path fill="#999" d="M16 0h318v200h-318z"/>
      <path fill="#2980B9" d="M26 9h298v178h-298z"/>
      <path fill="#666" d="M350 254h-350l15.909-54h318.182z"/>
      <path fill="#4D4D4D" d="M323.153 229h-296.306l7.292-29h281.722zM239.199 252h-128.399l2.802-14h123.294z"/>
      <path fill="#999" d="M0 254h350v12h-350z"/>
      <path fill="#ccc" d="M231.225 19.662c-1.482 0-2.69 1.206-2.69 2.688 0 1.481 1.208 2.688 2.69 2.688 1.479 0 2.688-1.207 2.688-2.688-.001-1.482-1.209-2.688-2.688-2.688zm0 5.094c-1.329 0-2.407-1.08-2.407-2.406 0-1.327 1.078-2.405 2.407-2.405 1.328 0 2.404 1.078 2.404 2.405 0 1.326-1.076 2.406-2.404 2.406zm.85-2.793c0-.49-.328-.723-.863-.723h-.86v2.217h.522v-.78h.272l.392.78h.559l-.435-.849c.243-.101.413-.294.413-.645zm-.899.329h-.302v-.583h.302c.254 0 .377.091.377.288 0 .206-.123.295-.377.295z"/>
      <path fill="#fff" d="M226.463 105.973c-12.623-15.039-32.043 16.678-42.507 23.545-7.222 4.745-18.187 5.118-25.888.589-10.54-6.196-7.313-21.011 3.814-24.688 9.894-3.272 27.196 7.153 33.48-3.28 7.736-12.847-18.708-15.86-26.534-15.548-14.103.554-27.688 5.125-36.058 15.797-9.01 11.493-6.952 25.387 2.986 35.816 10.123 9.789 24.779 13.563 39.37 12.364 3.684-.303 10.019-1.88 14.866-4.531 9.609-5.257 39.024-37.021 36.471-40.064zm-92.306-11.253c4.887.975-4.581-26.333-5.203-30.093-.746-4.544-2.425-10.956-6.934-11.623-5.237-.762-6.67 5.192-5.602 10.418 1.103 5.437 13.147 30.381 17.739 31.298zm40.445-14.099c7.573 1.073 7.053-35.269 7.062-40.209.004-4.44 1.738-16.744-4.259-17.903-8.228-1.595-9.046 9.25-9.223 15.081.339 5.825-1.502 41.91 6.42 43.031zm18.033 5.811c8.277 3.456 14.604-33.259 15.517-37.967.925-4.797 1.078-14.981-7.146-11.758-4.127 1.617-4.881 8.308-5.518 11.999-1.029 4.694-9.231 35.06-2.853 37.726zm-39.788-3.086c9.328.695.539-36.232-.196-41.155-.752-5.019-4.128-15.074-11.096-9.221-3.49 2.935-1.918 9.762-1.264 13.592.614 4.952 5.366 36.251 12.556 36.784z"/>
      <g fill="#ECF0F1">
        <path d="M151.416 168.654c0 2.828-.768 4.99-2.303 6.486s-3.744 2.244-6.627 2.244h-4.746v-17.133h5.25c2.664 0 4.734.738 6.211 2.215s2.215 3.54 2.215 6.188zm-2.109.071c0-2.234-.561-3.918-1.682-5.051s-2.787-1.699-4.998-1.699h-2.895v13.688h2.426c2.375 0 4.16-.584 5.355-1.752s1.794-2.897 1.794-5.186zM160.369 177.619c-1.898 0-3.396-.578-4.494-1.734s-1.646-2.762-1.646-4.816c0-2.07.51-3.715 1.529-4.934s2.389-1.828 4.107-1.828c1.609 0 2.883.529 3.82 1.588s1.406 2.455 1.406 4.189v1.23h-8.848c.039 1.508.42 2.652 1.143 3.434s1.74 1.172 3.053 1.172c1.383 0 2.75-.289 4.102-.867v1.734c-.688.297-1.338.51-1.951.639s-1.354.193-2.221.193zm-.527-11.683c-1.031 0-1.854.336-2.467 1.008s-.975 1.602-1.084 2.789h6.715c0-1.227-.273-2.166-.82-2.818s-1.329-.979-2.344-.979zM184.779 177.385v-8.355c0-1.023-.219-1.791-.656-2.303s-1.117-.768-2.039-.768c-1.211 0-2.105.348-2.684 1.043s-.867 1.766-.867 3.211v7.172h-1.945v-8.355c0-1.023-.219-1.791-.656-2.303s-1.121-.768-2.051-.768c-1.219 0-2.111.365-2.678 1.096s-.85 1.928-.85 3.592v6.738h-1.945v-12.844h1.582l.316 1.758h.094c.367-.625.885-1.113 1.553-1.465s1.416-.527 2.244-.527c2.008 0 3.32.727 3.938 2.18h.094c.383-.672.938-1.203 1.664-1.594s1.555-.586 2.484-.586c1.453 0 2.541.373 3.264 1.119s1.084 1.939 1.084 3.58v8.379h-1.946zM201.818 170.951c0 2.094-.527 3.729-1.582 4.904s-2.512 1.764-4.371 1.764c-1.148 0-2.168-.27-3.059-.809s-1.578-1.313-2.063-2.32-.727-2.188-.727-3.539c0-2.094.523-3.725 1.57-4.893s2.5-1.752 4.359-1.752c1.797 0 3.225.598 4.283 1.793s1.59 2.813 1.59 4.852zm-9.785 0c0 1.641.328 2.891.984 3.75s1.621 1.289 2.895 1.289 2.24-.428 2.9-1.283.99-2.107.99-3.756c0-1.633-.33-2.873-.99-3.721s-1.635-1.271-2.924-1.271c-1.273 0-2.234.418-2.883 1.254s-.972 2.082-.972 3.738zM213.514 173.881c0 1.195-.445 2.117-1.336 2.766s-2.141.973-3.75.973c-1.703 0-3.031-.27-3.984-.809v-1.805c.617.313 1.279.559 1.986.738s1.389.27 2.045.27c1.016 0 1.797-.162 2.344-.486s.82-.818.82-1.482c0-.5-.217-.928-.65-1.283s-1.279-.775-2.537-1.26c-1.195-.445-2.045-.834-2.549-1.166s-.879-.709-1.125-1.131-.369-.926-.369-1.512c0-1.047.426-1.873 1.277-2.479s2.02-.908 3.504-.908c1.383 0 2.734.281 4.055.844l-.691 1.582c-1.289-.531-2.457-.797-3.504-.797-.922 0-1.617.145-2.086.434s-.703.688-.703 1.195c0 .344.088.637.264.879s.459.473.85.691 1.141.535 2.25.949c1.523.555 2.553 1.113 3.088 1.676s.801 1.269.801 2.121z"/>
      </g>
    </symbol>

</svg>

