<svg  role="img" xmlns="http://www.w3.org/2000/svg">
<!-- hamburger menu icon -->
 <symbol id="a" viewBox="0 -24 24 24">
    <path d="M2-19h20v3h-20v-3zm0 5h20v3h-20v-3zm0 8v-3h20v3h-20z"/>
    <path fill="none" d="M24-24h-24v24h24z"/>
  </symbol>
<symbol viewBox="0 0 15 15" id="icon-external-link">
<title>external-link</title>
<path class="path1" d="M11.786 7.768v2.679q0 0.996-0.707 1.703t-1.703 0.707h-6.964q-0.996 0-1.703-0.707t-0.707-1.703v-6.964q0-0.996 0.707-1.703t1.703-0.707h5.893q0.117 0 0.193 0.075t0.075 0.193v0.536q0 0.117-0.075 0.193t-0.193 0.075h-5.893q-0.552 0-0.946 0.393t-0.393 0.946v6.964q0 0.552 0.393 0.946t0.946 0.393h6.964q0.552 0 0.946-0.393t0.393-0.946v-2.679q0-0.117 0.075-0.193t0.193-0.075h0.536q0.117 0 0.193 0.075t0.075 0.193zM15 0.536v4.286q0 0.218-0.159 0.377t-0.377 0.159-0.377-0.159l-1.473-1.473-5.458 5.458q-0.084 0.084-0.193 0.084t-0.193-0.084l-0.954-0.954q-0.084-0.084-0.084-0.193t0.084-0.193l5.458-5.458-1.473-1.473q-0.159-0.159-0.159-0.377t0.159-0.377 0.377-0.159h4.286q0.218 0 0.377 0.159t0.159 0.377z"></path>
</symbol>

<symbol viewBox="0 0 15 15" id="icon-picture">
<title>Picture Icon</title>
<path class="path1" d="M0 1.875v12.188h15v-12.188h-15zM14.063 13.125h-13.125v-10.313h13.125v10.313zM10.313 5.156c0-0.777 0.63-1.406 1.406-1.406s1.406 0.63 1.406 1.406c0 0.777-0.63 1.406-1.406 1.406s-1.406-0.63-1.406-1.406zM13.125 12.188h-11.25l2.813-7.5 3.75 4.688 1.875-1.406z"></path>
</symbol>

<symbol viewBox="0 0 15 15" id="icon-youtube">
<title>YouTube Icon</title>
<path class="path1" d="M12.188 1.875h-9.375c-1.547 0-2.813 1.266-2.813 2.813v5.625c0 1.547 1.266 2.813 2.813 2.813h9.375c1.547 0 2.813-1.266 2.813-2.813v-5.625c0-1.547-1.266-2.813-2.813-2.813zM14.063 10.313c0 0.498-0.196 0.968-0.552 1.323s-0.826 0.552-1.323 0.552h-9.375c-0.498 0-0.968-0.196-1.323-0.552s-0.552-0.826-0.552-1.323v-5.625c0-0.498 0.196-0.968 0.552-1.323s0.826-0.552 1.323-0.552h9.375c0.498 0 0.968 0.196 1.323 0.552s0.552 0.826 0.552 1.323v5.625zM5.625 11.25l4.688-3.75-4.688-3.75z"></path>
</symbol>

<!-- demos page icons -->

  <symbol viewBox="0 0 350 266" id="demo-c5-demo">
    <title>c5-demo icon</title>
    <desc id="description">A computer with the concrete5 hand logo</desc>
    <path fill="#999" d="M16 0h318v200h-318z"/>
    <path fill="#2980B9" d="M26 9h298v178h-298z"/>
    <path fill="#666" d="M350 254h-350l15.909-54h318.182z"/>
    <path fill="#4D4D4D" d="M323.153 229h-296.306l7.292-29h281.722zM239.199 252h-128.399l2.802-14h123.294z"/>
    <path fill="#999" d="M0 254h350v12h-350z"/>
    <path fill="#ccc" d="M231.225 19.662c-1.481 0-2.689 1.206-2.689 2.688 0 1.481 1.208 2.688 2.689 2.688 1.479 0 2.688-1.207 2.688-2.688-.001-1.482-1.209-2.688-2.688-2.688zm0 5.094c-1.328 0-2.406-1.08-2.406-2.406 0-1.327 1.078-2.405 2.406-2.405s2.404 1.078 2.404 2.405c0 1.326-1.076 2.406-2.404 2.406zm.85-2.793c0-.49-.328-.723-.863-.723h-.86v2.217h.522v-.78h.272l.392.78h.56l-.436-.849c.242-.101.413-.294.413-.645zm-.899.329h-.302v-.583h.302c.254 0 .377.091.377.288 0 .206-.123.295-.377.295z"/>
    <path fill="#fff" d="M226.463 105.973c-12.623-15.039-32.043 16.678-42.507 23.545-7.222 4.746-18.187 5.118-25.888.589-10.54-6.196-7.313-21.011 3.814-24.688 9.894-3.272 27.196 7.153 33.479-3.28 7.736-12.847-18.707-15.86-26.533-15.548-14.103.554-27.688 5.125-36.058 15.797-9.01 11.493-6.952 25.387 2.986 35.816 10.123 9.789 24.779 13.563 39.37 12.364 3.685-.303 10.019-1.881 14.866-4.531 9.61-5.258 39.024-37.021 36.471-40.064zm-92.306-11.253c4.887.975-4.581-26.333-5.203-30.093-.746-4.544-2.425-10.956-6.934-11.623-5.237-.762-6.67 5.192-5.602 10.418 1.103 5.437 13.147 30.381 17.739 31.298zm40.445-14.099c7.573 1.073 7.052-35.269 7.062-40.209.004-4.44 1.738-16.744-4.26-17.903-8.228-1.595-9.045 9.25-9.222 15.081.339 5.825-1.502 41.91 6.42 43.031zm18.033 5.811c8.277 3.456 14.604-33.259 15.518-37.967.925-4.797 1.078-14.981-7.146-11.758-4.127 1.617-4.881 8.308-5.518 11.999-1.03 4.694-9.232 35.06-2.854 37.726zm-39.788-3.086c9.328.695.539-36.232-.196-41.155-.752-5.019-4.128-15.074-11.096-9.221-3.49 2.935-1.918 9.762-1.264 13.592.614 4.952 5.366 36.251 12.556 36.784z"/>
    <g fill="#ECF0F1">
      <path d="M102.721 163.802c-1.412 0-2.527.47-3.344 1.411-.817.939-1.226 2.228-1.226 3.862 0 1.682.394 2.981 1.182 3.897.788.918 1.912 1.376 3.371 1.376.896 0 1.919-.161 3.067-.483v1.31c-.891.334-1.989.501-3.296.501-1.893 0-3.353-.574-4.381-1.723s-1.542-2.78-1.542-4.896c0-1.324.248-2.484.743-3.48s1.21-1.764 2.145-2.303 2.035-.809 3.3-.809c1.348 0 2.525.246 3.533.738l-.633 1.283c-.973-.456-1.946-.684-2.919-.684zM116.669 170.675c0 1.57-.396 2.797-1.187 3.679s-1.884 1.322-3.278 1.322c-.861 0-1.626-.202-2.294-.606s-1.184-.984-1.547-1.74-.545-1.641-.545-2.654c0-1.57.393-2.793 1.178-3.669s1.875-1.314 3.27-1.314c1.348 0 2.418.448 3.212 1.345s1.191 2.108 1.191 3.637zm-7.338 0c0 1.23.246 2.168.738 2.813s1.216.967 2.171.967 1.68-.321 2.175-.962c.495-.643.743-1.581.743-2.817 0-1.225-.248-2.154-.743-2.79s-1.226-.954-2.193-.954c-.955 0-1.676.313-2.162.94s-.729 1.561-.729 2.803zM125.819 175.5v-6.231c0-.785-.179-1.371-.536-1.758s-.917-.58-1.679-.58c-1.008 0-1.746.272-2.215.817s-.703 1.444-.703 2.698v5.054h-1.459v-9.633h1.187l.237 1.318h.07c.299-.475.718-.842 1.257-1.104.539-.26 1.14-.391 1.802-.391 1.16 0 2.033.28 2.619.84s.879 1.454.879 2.685v6.284h-1.459zM134.125 175.676c-1.395 0-2.474-.429-3.239-1.287s-1.147-2.073-1.147-3.644c0-1.611.388-2.856 1.165-3.735s1.882-1.318 3.318-1.318c.463 0 .926.05 1.389.149s.826.217 1.09.352l-.448 1.239c-.322-.129-.674-.235-1.055-.32s-.718-.128-1.011-.128c-1.957 0-2.936 1.248-2.936 3.744 0 1.184.239 2.092.716 2.725s1.185.949 2.123.949c.803 0 1.626-.173 2.47-.519v1.292c-.645.334-1.457.501-2.435.501zM143.239 165.691c.428 0 .812.035 1.151.105l-.202 1.354c-.398-.088-.75-.132-1.055-.132-.779 0-1.446.316-2 .949s-.831 1.421-.831 2.364v5.168h-1.459v-9.633h1.204l.167 1.784h.07c.357-.627.788-1.11 1.292-1.45s1.059-.509 1.663-.509zM150.261 175.676c-1.424 0-2.547-.434-3.371-1.301s-1.235-2.071-1.235-3.612c0-1.553.382-2.786 1.147-3.7s1.792-1.371 3.081-1.371c1.207 0 2.162.397 2.865 1.191s1.055 1.841 1.055 3.142v.923h-6.636c.029 1.131.315 1.989.857 2.575s1.305.879 2.29.879c1.037 0 2.063-.217 3.076-.65v1.301c-.516.223-1.003.382-1.463.479-.46.095-1.015.144-1.666.144zm-.395-8.763c-.773 0-1.39.252-1.85.756s-.731 1.201-.813 2.092h5.036c0-.92-.205-1.624-.615-2.114-.411-.489-.997-.734-1.758-.734zM159.402 174.472c.258 0 .507-.019.747-.058.24-.037.431-.077.571-.118v1.116c-.158.076-.391.139-.699.189-.308.049-.584.074-.831.074-1.863 0-2.795-.981-2.795-2.944v-5.73h-1.38v-.703l1.38-.606.615-2.057h.844v2.232h2.795v1.134h-2.795v5.669c0 .58.138 1.025.413 1.336s.654.466 1.135.466zM166.714 175.676c-1.424 0-2.547-.434-3.371-1.301s-1.235-2.071-1.235-3.612c0-1.553.382-2.786 1.147-3.7s1.792-1.371 3.081-1.371c1.207 0 2.162.397 2.865 1.191s1.055 1.841 1.055 3.142v.923h-6.636c.029 1.131.315 1.989.857 2.575s1.305.879 2.29.879c1.037 0 2.063-.217 3.076-.65v1.301c-.516.223-1.003.382-1.463.479-.46.095-1.015.144-1.666.144zm-.395-8.763c-.773 0-1.39.252-1.85.756s-.731 1.201-.813 2.092h5.036c0-.92-.205-1.624-.615-2.114-.41-.489-.996-.734-1.758-.734zM180.768 167.651c1.354 0 2.419.336 3.195 1.007s1.164 1.589 1.164 2.755c0 1.33-.423 2.373-1.27 3.129s-2.014 1.134-3.502 1.134c-1.447 0-2.553-.231-3.314-.694v-1.406c.41.264.92.47 1.529.62.609.148 1.211.224 1.803.224 1.031 0 1.832-.243 2.403-.729s.856-1.189.856-2.109c0-1.793-1.098-2.689-3.295-2.689-.557 0-1.301.085-2.232.255l-.756-.483.482-6.012h6.391v1.345h-5.143l-.324 3.858c.675-.137 1.345-.205 2.013-.205zM200.684 175.5l-1.6-4.087h-5.15l-1.582 4.087h-1.512l5.08-12.902h1.258l5.053 12.902h-1.547zm-2.065-5.432l-1.494-3.981c-.193-.504-.393-1.122-.598-1.854-.129.563-.314 1.181-.555 1.854l-1.512 3.981h4.159zM210.334 174.208h-.078c-.674.979-1.682 1.468-3.023 1.468-1.26 0-2.24-.431-2.939-1.292-.701-.861-1.051-2.086-1.051-3.674s.352-2.821 1.055-3.7 1.682-1.318 2.936-1.318c1.307 0 2.309.475 3.006 1.424h.113l-.061-.694-.035-.677v-3.92h1.459v13.675h-1.188l-.194-1.292zm-2.918.246c.996 0 1.719-.271 2.168-.813.447-.541.672-1.416.672-2.623v-.308c0-1.365-.229-2.339-.682-2.923-.455-.582-1.18-.874-2.176-.874-.855 0-1.51.333-1.963.997-.455.666-.682 1.604-.682 2.817 0 1.23.225 2.159.676 2.786s1.114.941 1.987.941zM221.365 174.208h-.08c-.674.979-1.682 1.468-3.023 1.468-1.26 0-2.24-.431-2.939-1.292-.701-.861-1.051-2.086-1.051-3.674s.352-2.821 1.055-3.7 1.682-1.318 2.936-1.318c1.307 0 2.309.475 3.006 1.424h.115l-.063-.694-.035-.677v-3.92h1.459v13.675h-1.186l-.194-1.292zm-2.918.246c.996 0 1.719-.271 2.166-.813.449-.541.672-1.416.672-2.623v-.308c0-1.365-.227-2.339-.68-2.923-.455-.582-1.18-.874-2.176-.874-.855 0-1.512.333-1.965.997-.455.666-.682 1.604-.682 2.817 0 1.23.227 2.159.678 2.786s1.114.941 1.987.941zM225.029 171.343v-1.336h4.316v1.336h-4.316zM239.945 170.675c0 1.57-.396 2.797-1.188 3.679s-1.883 1.322-3.277 1.322c-.861 0-1.627-.202-2.295-.606s-1.184-.984-1.547-1.74-.545-1.641-.545-2.654c0-1.57.393-2.793 1.178-3.669s1.875-1.314 3.27-1.314c1.348 0 2.418.448 3.213 1.345.793.895 1.191 2.108 1.191 3.637zm-7.34 0c0 1.23.246 2.168.738 2.813s1.217.967 2.172.967 1.68-.321 2.176-.962c.494-.643.742-1.581.742-2.817 0-1.225-.248-2.154-.742-2.79-.496-.636-1.227-.954-2.193-.954-.955 0-1.676.313-2.162.94s-.731 1.561-.731 2.803zM249.094 175.5v-6.231c0-.785-.178-1.371-.535-1.758s-.918-.58-1.68-.58c-1.008 0-1.746.272-2.215.817s-.703 1.444-.703 2.698v5.054h-1.459v-9.633h1.188l.236 1.318h.07c.299-.475.719-.842 1.258-1.104.539-.26 1.139-.391 1.801-.391 1.16 0 2.033.28 2.619.84s.879 1.454.879 2.685v6.284h-1.459z"/>
    </g>
  </symbol>
<!-- Work Page Icons -->
  <symbol viewBox="0 0 350 266" id="icon-work">
      <title>Skip To Current Work Icon</title>
      <path fill="#999" d="M16 0h318v199h-318z"/>
      <path fill="#2980B9" d="M24 8h298v179h-298z"/>
      <path fill="#666" d="M350 250h-348.015l15.82-51h316.38z"/>
      <path fill="#4D4D4D" d="M323.309 226h-294.629l7.248-27h280.13zM239.829 250h-127.673l2.784-16h122.597z"/>
      <path fill="#999" d="M0 250h350v12h-350z"/>
      <path fill="#F2F2F2" d="M155 24h44v12h-44zM155.113 44l-6.742 93.311 28.055 37.302 27.405-37.575-5.216-93.038z"/>
    </symbol>
    <symbol viewBox="0 0 350 266" id="icon-demos">
      <title>Skip To Demos Icon</title>
      <path fill="#999" d="M16 0h318v200h-318z"/>
      <path fill="#2980B9" d="M26 9h298v178h-298z"/>
      <path fill="#666" d="M350 254h-350l15.909-54h318.182z"/>
      <path fill="#4D4D4D" d="M323.153 229h-296.306l7.292-29h281.722zM239.199 252h-128.399l2.802-14h123.294z"/>
      <path fill="#999" d="M0 254h350v12h-350z"/>
      <path fill="#ccc" d="M231.225 19.662c-1.482 0-2.69 1.206-2.69 2.688 0 1.481 1.208 2.688 2.69 2.688 1.479 0 2.688-1.207 2.688-2.688-.001-1.482-1.209-2.688-2.688-2.688zm0 5.094c-1.329 0-2.407-1.08-2.407-2.406 0-1.327 1.078-2.405 2.407-2.405 1.328 0 2.404 1.078 2.404 2.405 0 1.326-1.076 2.406-2.404 2.406zm.85-2.793c0-.49-.328-.723-.863-.723h-.86v2.217h.522v-.78h.272l.392.78h.559l-.435-.849c.243-.101.413-.294.413-.645zm-.899.329h-.302v-.583h.302c.254 0 .377.091.377.288 0 .206-.123.295-.377.295z"/>
      <path fill="#fff" d="M226.463 105.973c-12.623-15.039-32.043 16.678-42.507 23.545-7.222 4.745-18.187 5.118-25.888.589-10.54-6.196-7.313-21.011 3.814-24.688 9.894-3.272 27.196 7.153 33.48-3.28 7.736-12.847-18.708-15.86-26.534-15.548-14.103.554-27.688 5.125-36.058 15.797-9.01 11.493-6.952 25.387 2.986 35.816 10.123 9.789 24.779 13.563 39.37 12.364 3.684-.303 10.019-1.88 14.866-4.531 9.609-5.257 39.024-37.021 36.471-40.064zm-92.306-11.253c4.887.975-4.581-26.333-5.203-30.093-.746-4.544-2.425-10.956-6.934-11.623-5.237-.762-6.67 5.192-5.602 10.418 1.103 5.437 13.147 30.381 17.739 31.298zm40.445-14.099c7.573 1.073 7.053-35.269 7.062-40.209.004-4.44 1.738-16.744-4.259-17.903-8.228-1.595-9.046 9.25-9.223 15.081.339 5.825-1.502 41.91 6.42 43.031zm18.033 5.811c8.277 3.456 14.604-33.259 15.517-37.967.925-4.797 1.078-14.981-7.146-11.758-4.127 1.617-4.881 8.308-5.518 11.999-1.029 4.694-9.231 35.06-2.853 37.726zm-39.788-3.086c9.328.695.539-36.232-.196-41.155-.752-5.019-4.128-15.074-11.096-9.221-3.49 2.935-1.918 9.762-1.264 13.592.614 4.952 5.366 36.251 12.556 36.784z"/>
      <g fill="#ECF0F1">
        <path d="M151.416 168.654c0 2.828-.768 4.99-2.303 6.486s-3.744 2.244-6.627 2.244h-4.746v-17.133h5.25c2.664 0 4.734.738 6.211 2.215s2.215 3.54 2.215 6.188zm-2.109.071c0-2.234-.561-3.918-1.682-5.051s-2.787-1.699-4.998-1.699h-2.895v13.688h2.426c2.375 0 4.16-.584 5.355-1.752s1.794-2.897 1.794-5.186zM160.369 177.619c-1.898 0-3.396-.578-4.494-1.734s-1.646-2.762-1.646-4.816c0-2.07.51-3.715 1.529-4.934s2.389-1.828 4.107-1.828c1.609 0 2.883.529 3.82 1.588s1.406 2.455 1.406 4.189v1.23h-8.848c.039 1.508.42 2.652 1.143 3.434s1.74 1.172 3.053 1.172c1.383 0 2.75-.289 4.102-.867v1.734c-.688.297-1.338.51-1.951.639s-1.354.193-2.221.193zm-.527-11.683c-1.031 0-1.854.336-2.467 1.008s-.975 1.602-1.084 2.789h6.715c0-1.227-.273-2.166-.82-2.818s-1.329-.979-2.344-.979zM184.779 177.385v-8.355c0-1.023-.219-1.791-.656-2.303s-1.117-.768-2.039-.768c-1.211 0-2.105.348-2.684 1.043s-.867 1.766-.867 3.211v7.172h-1.945v-8.355c0-1.023-.219-1.791-.656-2.303s-1.121-.768-2.051-.768c-1.219 0-2.111.365-2.678 1.096s-.85 1.928-.85 3.592v6.738h-1.945v-12.844h1.582l.316 1.758h.094c.367-.625.885-1.113 1.553-1.465s1.416-.527 2.244-.527c2.008 0 3.32.727 3.938 2.18h.094c.383-.672.938-1.203 1.664-1.594s1.555-.586 2.484-.586c1.453 0 2.541.373 3.264 1.119s1.084 1.939 1.084 3.58v8.379h-1.946zM201.818 170.951c0 2.094-.527 3.729-1.582 4.904s-2.512 1.764-4.371 1.764c-1.148 0-2.168-.27-3.059-.809s-1.578-1.313-2.063-2.32-.727-2.188-.727-3.539c0-2.094.523-3.725 1.57-4.893s2.5-1.752 4.359-1.752c1.797 0 3.225.598 4.283 1.793s1.59 2.813 1.59 4.852zm-9.785 0c0 1.641.328 2.891.984 3.75s1.621 1.289 2.895 1.289 2.24-.428 2.9-1.283.99-2.107.99-3.756c0-1.633-.33-2.873-.99-3.721s-1.635-1.271-2.924-1.271c-1.273 0-2.234.418-2.883 1.254s-.972 2.082-.972 3.738zM213.514 173.881c0 1.195-.445 2.117-1.336 2.766s-2.141.973-3.75.973c-1.703 0-3.031-.27-3.984-.809v-1.805c.617.313 1.279.559 1.986.738s1.389.27 2.045.27c1.016 0 1.797-.162 2.344-.486s.82-.818.82-1.482c0-.5-.217-.928-.65-1.283s-1.279-.775-2.537-1.26c-1.195-.445-2.045-.834-2.549-1.166s-.879-.709-1.125-1.131-.369-.926-.369-1.512c0-1.047.426-1.873 1.277-2.479s2.02-.908 3.504-.908c1.383 0 2.734.281 4.055.844l-.691 1.582c-1.289-.531-2.457-.797-3.504-.797-.922 0-1.617.145-2.086.434s-.703.688-.703 1.195c0 .344.088.637.264.879s.459.473.85.691 1.141.535 2.25.949c1.523.555 2.553 1.113 3.088 1.676s.801 1.269.801 2.121z"/>
      </g>
    </symbol>

</svg>

