<?xml version="1.0" encoding="utf-8"?>
<!-- Generated by IcoMoon.io -->
<!DOCTYPE svg PUBLIC "-//W3C//DTD SVG 1.1//EN" "http://www.w3.org/Graphics/SVG/1.1/DTD/svg11.dtd">
<svg version="1.1" xmlns="http://www.w3.org/2000/svg" xmlns:xlink="http://www.w3.org/1999/xlink" width="15" height="15" viewBox="0 0 15 15">
<g>
	<line stroke-width="1" x1="" y1="" x2="" y2="" stroke="#449FDB" opacity=""></line>
</g>
	<path d="M11.786 7.768v2.679q0 0.996-0.707 1.703t-1.703 0.707h-6.964q-0.996 0-1.703-0.707t-0.707-1.703v-6.964q0-0.996 0.707-1.703t1.703-0.707h5.893q0.117 0 0.193 0.075t0.075 0.193v0.536q0 0.117-0.075 0.193t-0.193 0.075h-5.893q-0.552 0-0.946 0.393t-0.393 0.946v6.964q0 0.552 0.393 0.946t0.946 0.393h6.964q0.552 0 0.946-0.393t0.393-0.946v-2.679q0-0.117 0.075-0.193t0.193-0.075h0.536q0.117 0 0.193 0.075t0.075 0.193zM15 0.536v4.286q0 0.218-0.159 0.377t-0.377 0.159-0.377-0.159l-1.473-1.473-5.458 5.458q-0.084 0.084-0.193 0.084t-0.193-0.084l-0.954-0.954q-0.084-0.084-0.084-0.193t0.084-0.193l5.458-5.458-1.473-1.473q-0.159-0.159-0.159-0.377t0.159-0.377 0.377-0.159h4.286q0.218 0 0.377 0.159t0.159 0.377z" fill="#444444"></path>
</svg>
