<?xml version="1.0" encoding="utf-8"?><svg baseProfile="tiny" xmlns="http://www.w3.org/2000/svg" width="350" height="266" viewBox="0 0 350 266"><path fill="#999" d="M16 0h318v200h-318z"/><path fill="#2980B9" d="M26 9h298v178h-298z"/><path fill="#666" d="M350 254h-350l15.909-54h318.182z"/><path fill="#4D4D4D" d="M323.153 229h-296.306l7.292-29h281.722zM239.199 252h-128.399l2.802-14h123.294z"/><path fill="#999" d="M0 254h350v12h-350z"/><path fill="#999" stroke="#666" stroke-miterlimit="10" d="M275.5 238.009c0 .824-.668 1.491-1.491 1.491h-197.018c-.824 0-1.491-.667-1.491-1.491v-130.018c0-.824.667-1.491 1.491-1.491h197.018c.823 0 1.491.667 1.491 1.491v130.018z"/><path fill="#34495E" d="M83 110h185v127h-185z"/><path fill="#666" d="M216.809 120c-1.135-4-17.355-7.169-37.208-7.169s-36.074 3.169-37.21 7.169h-.391v139h.391c-.041 0-.068.407-.068.559 0 4.206 16.69 7.673 37.278 7.673 20.589 0 37.279-3.493 37.279-7.7 0-.15-.026-.531-.071-.531h.191v-139.001h-.191zm-56.205-2.844c.791 0 1.432.642 1.432 1.434 0 .792-.641 1.434-1.432 1.434-.793 0-1.436-.642-1.436-1.434 0-.792.643-1.434 1.436-1.434zm17.205 1.195c0-.99.802-1.793 1.792-1.793s1.792.803 1.792 1.793c0 .99-.802 1.792-1.792 1.792s-1.792-.803-1.792-1.792zm37.191 4.649v134h-71v-134h71zm-20 137c0 .553-.447 1-1 1h-31c-.553 0-1-.447-1-1 0-.553.447-1 1-1h31c.553 0 1 .447 1 1z"/><path fill="#BDC3C7" d="M195 260c0-.553-.447-1-1-1h-31c-.553 0-1 .447-1 1 0 .553.447 1 1 1h31c.553 0 1-.447 1-1z"/><circle fill="#BDC3C7" cx="160.604" cy="118.59" r="1.434"/><circle fill="#A9A9AA" cx="179.601" cy="118.351" r="1.792"/><path fill="#2ECC71" d="M144 123h71v134h-71z"/></svg>