<?xml version="1.0" encoding="utf-8"?><svg baseProfile="tiny" xmlns="http://www.w3.org/2000/svg" width="424" height="341.193" viewBox="0 0 424 341.193"><path fill="#999" d="M16 0h318v200h-318z"/><path fill="#2980B9" d="M26 9h298v178h-298z"/><path fill="#666" d="M350 254h-350l15.909-54h318.182z"/><path fill="#4D4D4D" d="M323.153 229h-296.306l7.292-29h281.722zM239.199 252h-128.399l2.802-14h123.294z"/><path fill="#999" d="M0 254h350v12h-350z"/><path fill="#999" stroke="#666" stroke-miterlimit="10" d="M423.5 274.5c0 1.104-.896 2-2 2h-264c-1.104 0-2-.896-2-2v-175c0-1.104.896-2 2-2h264c1.104 0 2 .896 2 2v175z"/><path fill="#34495E" d="M165 102h248v170h-248z"/><path fill="#666" d="M344.905 144c-1.522-5-23.278-9.615-49.905-9.615s-48.383 4.615-49.907 9.615h-.093v186h.093c-.056 0-.093.648-.093.852 0 5.641 22.387 10.342 50 10.342 27.614 0 50-4.763 50-10.404 0-.202-.036-.789-.095-.789h.095v-186.001h-.095zm-75.385-4.042c1.062 0 1.922.861 1.922 1.923s-.86 1.923-1.922 1.923c-1.063 0-1.924-.861-1.924-1.923s.861-1.923 1.924-1.923zm23.076 1.602c0-1.328 1.076-2.404 2.404-2.404s2.404 1.076 2.404 2.404c0 1.328-1.076 2.403-2.404 2.403s-2.404-1.075-2.404-2.403zm50.404 6.44v179h-96v-179h96zm-27 183.5c0 .828-.672 1.5-1.5 1.5h-41c-.828 0-1.5-.672-1.5-1.5s.672-1.5 1.5-1.5h41c.828 0 1.5.672 1.5 1.5z"/><path fill="#BDC3C7" d="M316 331.5c0-.828-.672-1.5-1.5-1.5h-41c-.828 0-1.5.672-1.5 1.5s.672 1.5 1.5 1.5h41c.828 0 1.5-.672 1.5-1.5z"/><circle fill="#BDC3C7" cx="269.52" cy="141.881" r="1.923"/><circle fill="#A9A9AA" cx="295" cy="141.56" r="2.404"/><path fill="#2ECC71" d="M247 148h96v179h-96z"/></svg>