<svg viewBox="0 0 200 42.047">
<symbol viewBox="0 0 200 42.047" id="icon-logo">
<title>logo</title>
<g fill="#2980B9">
<path d="M13.968 9.196c-2.024 0-3.592.761-4.702 2.282-1.111 1.521-1.666 3.641-1.666 6.359 0 5.656 2.123 8.484 6.368 8.484 1.781 0 3.938-.445 6.472-1.336v4.512c-2.082.867-4.407 1.301-6.975 1.301-3.69 0-6.513-1.119-8.468-3.357s-2.933-5.45-2.933-9.638c0-2.638.48-4.948 1.44-6.932s2.34-3.505 4.139-4.563c1.798-1.059 3.906-1.588 6.324-1.588 2.464 0 4.939.596 7.426 1.787l-1.734 4.373c-.949-.451-1.903-.844-2.863-1.18s-1.903-.504-2.828-.504zM43.049 20.717c0 3.158-.833 5.628-2.499 7.409s-3.985 2.672-6.958 2.672c-1.862 0-3.505-.407-4.928-1.223s-2.516-1.987-3.279-3.514c-.763-1.527-1.145-3.309-1.145-5.345 0-3.169.826-5.633 2.48-7.391s3.979-2.638 6.976-2.638c1.862 0 3.505.405 4.928 1.215s2.516 1.972 3.279 3.487c.764 1.517 1.146 3.293 1.146 5.328zm-13.413 0c0 1.921.315 3.372.946 4.355.63.983 1.656 1.475 3.079 1.475 1.411 0 2.427-.488 3.046-1.466.618-.978.928-2.432.928-4.364 0-1.92-.313-3.36-.937-4.32-.625-.96-1.648-1.44-3.071-1.44-1.411 0-2.43.477-3.054 1.432-.625.953-.937 2.396-.937 4.328zM58.248 10.688c.717 0 1.313.052 1.787.156l-.399 4.962c-.428-.115-.948-.173-1.562-.173-1.688 0-3.005.434-3.947 1.301-.943.868-1.414 2.082-1.414 3.644v9.873h-5.292v-19.398h4.008l.781 3.262h.26c.602-1.087 1.414-1.963 2.438-2.628 1.024-.666 2.137-.999 3.34-.999zM60.781 11.053h5.795l3.661 10.914c.313.948.526 2.07.643 3.366h.104c.128-1.191.376-2.313.746-3.366l3.592-10.914h5.674l-8.207 21.88c-.752 2.023-1.824 3.539-3.219 4.546-1.394 1.006-3.021 1.51-4.884 1.51-.914 0-1.811-.099-2.689-.295v-4.199c.636.15 1.33.226 2.082.226.937 0 1.755-.286 2.455-.859.699-.572 1.246-1.438 1.64-2.594l.313-.954-7.706-19.261z"/>
</g>
<g fill="#2C3E50">
<path d="M102.812 18.709c0 4.176-1.188 7.374-3.565 9.596-2.377 2.221-5.81 3.331-10.298 3.331h-7.184v-25.367h7.965c4.141 0 7.356 1.093 9.646 3.279 2.291 2.186 3.436 5.24 3.436 9.161zm-5.587.139c0-5.448-2.406-8.172-7.218-8.172h-2.863v16.518h2.308c5.182-.001 7.773-2.782 7.773-8.346zM125.282 21.901c0 3.158-.833 5.628-2.499 7.409s-3.985 2.672-6.958 2.672c-1.862 0-3.505-.407-4.928-1.223s-2.516-1.987-3.279-3.514c-.763-1.527-1.145-3.309-1.145-5.345 0-3.169.826-5.633 2.48-7.391s3.979-2.638 6.976-2.638c1.862 0 3.505.405 4.928 1.215s2.516 1.972 3.279 3.487c.764 1.518 1.146 3.293 1.146 5.328zm-13.413 0c0 1.921.315 3.372.946 4.355.63.983 1.656 1.475 3.079 1.475 1.411 0 2.427-.488 3.046-1.466.618-.978.928-2.432.928-4.364 0-1.92-.313-3.359-.937-4.32-.625-.96-1.648-1.44-3.071-1.44-1.411 0-2.43.477-3.054 1.432-.624.954-.937 2.397-.937 4.328zM145.6 31.636l-1.492-6.784-2.013-8.572h-.121l-3.54 15.356h-5.691l-5.518-19.398h5.275l2.238 8.589c.358 1.538.723 3.661 1.093 6.367h.104c.046-.879.248-2.272.607-4.181l.277-1.476 2.395-9.3h5.83l2.272 9.3.217 1.128c.099.498.194 1.026.286 1.588.093.562.177 1.11.252 1.648s.118.969.13 1.292h.104c.104-.832.289-1.975.556-3.427.266-1.451.456-2.432.572-2.94l2.325-8.589h5.188l-5.587 19.398h-5.759zM166.214 31.982c-2.279 0-4.069-.885-5.371-2.654-1.301-1.77-1.951-4.222-1.951-7.357 0-3.181.662-5.659 1.986-7.435 1.324-1.775 3.149-2.664 5.475-2.664 2.44 0 4.303.949 5.587 2.846h.174c-.267-1.446-.399-2.735-.399-3.869v-6.212h5.31v26.999h-4.061l-1.023-2.516h-.226c-1.204 1.908-3.037 2.862-5.501 2.862zm1.856-4.215c1.354 0 2.345-.394 2.976-1.18.63-.787.975-2.123 1.032-4.009v-.572c0-2.082-.321-3.574-.963-4.477-.643-.902-1.687-1.354-3.132-1.354-1.18 0-2.097.5-2.75 1.501-.654 1.001-.98 2.455-.98 4.364 0 1.908.329 3.34.989 4.294.659.955 1.602 1.433 2.828 1.433zM179.781 12.237h5.795l3.661 10.914c.313.948.526 2.07.643 3.366h.104c.128-1.191.376-2.313.746-3.366l3.592-10.914h5.674l-8.207 21.88c-.752 2.023-1.824 3.539-3.219 4.546-1.394 1.006-3.021 1.51-4.884 1.51-.914 0-1.811-.099-2.689-.295v-4.199c.636.15 1.33.226 2.082.226.937 0 1.755-.286 2.455-.859.699-.572 1.246-1.438 1.64-2.594l.313-.954-7.706-19.261z"/>
</g>
</symbol>
</svg>