<?xml version="1.0" encoding="utf-8"?>
<!-- Generator: Adobe Illustrator 15.1.0, SVG Export Plug-In . SVG Version: 6.00 Build 0)  -->
<!DOCTYPE svg PUBLIC "-//W3C//DTD SVG 1.1//EN" "http://www.w3.org/Graphics/SVG/1.1/DTD/svg11.dtd">
<svg version="1.1" id="Layer_1" xmlns="http://www.w3.org/2000/svg" xmlns:xlink="http://www.w3.org/1999/xlink" x="0px" y="0px"
	 width="350px" height="266px" viewBox="0 0 350 266" enable-background="new 0 0 350 266" xml:space="preserve">
<rect x="16" fill="#999999" width="318" height="200"/>
<rect x="26" y="9" fill="#2980B9" width="298" height="178"/>
<polygon fill="#666666" points="350,254 0,254 15.909,200 334.091,200 "/>
<polygon fill="#4D4D4D" points="323.153,229 26.847,229 34.139,200 315.861,200 "/>
<polygon fill="#4D4D4D" points="239.199,252 110.8,252 113.602,238 236.896,238 "/>
<rect y="254" fill="#999999" width="350" height="12"/>
<g>
	<path fill="#CCCCCC" d="M231.225,19.662c-1.481,0-2.689,1.206-2.689,2.688c0,1.481,1.208,2.688,2.689,2.688
		c1.479,0,2.688-1.207,2.688-2.688C233.912,20.868,232.704,19.662,231.225,19.662z M231.225,24.756c-1.328,0-2.406-1.08-2.406-2.406
		c0-1.327,1.078-2.405,2.406-2.405s2.404,1.078,2.404,2.405C233.629,23.676,232.553,24.756,231.225,24.756z M232.075,21.963
		c0-0.49-0.328-0.723-0.863-0.723h-0.86v2.217h0.522c0,0,0-0.737,0-0.78h0.272l0.392,0.78h0.56l-0.436-0.849
		C231.904,22.507,232.075,22.314,232.075,21.963z M231.176,22.292h-0.302v-0.583h0.302c0.254,0,0.377,0.091,0.377,0.288
		C231.553,22.203,231.43,22.292,231.176,22.292z"/>
	<path fill="#FFFFFF" d="M226.463,105.973c-12.623-15.039-32.043,16.678-42.507,23.545c-7.222,4.746-18.187,5.118-25.888,0.589
		c-10.54-6.196-7.313-21.011,3.814-24.688c9.894-3.272,27.196,7.153,33.479-3.28c7.736-12.847-18.707-15.86-26.533-15.548
		c-14.103,0.554-27.688,5.125-36.058,15.797c-9.01,11.493-6.952,25.387,2.986,35.816c10.123,9.789,24.779,13.563,39.37,12.364
		c3.685-0.303,10.019-1.881,14.866-4.531C199.602,140.779,229.016,109.016,226.463,105.973z M134.157,94.72
		c4.887,0.975-4.581-26.333-5.203-30.093c-0.746-4.544-2.425-10.956-6.934-11.623c-5.237-0.762-6.67,5.192-5.602,10.418
		C117.521,68.859,129.565,93.803,134.157,94.72z M174.602,80.621c7.573,1.073,7.052-35.269,7.062-40.209
		c0.004-4.44,1.738-16.744-4.26-17.903c-8.228-1.595-9.045,9.25-9.222,15.081C168.521,43.415,166.68,79.5,174.602,80.621z
		 M192.635,86.432c8.277,3.456,14.604-33.259,15.518-37.967c0.925-4.797,1.078-14.981-7.146-11.758
		c-4.127,1.617-4.881,8.308-5.518,11.999C194.459,53.4,186.257,83.766,192.635,86.432z M152.847,83.346
		c9.328,0.695,0.539-36.232-0.196-41.155c-0.752-5.019-4.128-15.074-11.096-9.221c-3.49,2.935-1.918,9.762-1.264,13.592
		C140.905,51.514,145.657,82.813,152.847,83.346z"/>
</g>
<g>
	<path fill="#ECF0F1" d="M102.721,163.802c-1.412,0-2.527,0.47-3.344,1.411c-0.817,0.939-1.226,2.228-1.226,3.862
		c0,1.682,0.394,2.981,1.182,3.897c0.788,0.918,1.912,1.376,3.371,1.376c0.896,0,1.919-0.161,3.067-0.483v1.31
		c-0.891,0.334-1.989,0.501-3.296,0.501c-1.893,0-3.353-0.574-4.381-1.723s-1.542-2.78-1.542-4.896c0-1.324,0.248-2.484,0.743-3.48
		s1.21-1.764,2.145-2.303s2.035-0.809,3.3-0.809c1.348,0,2.525,0.246,3.533,0.738l-0.633,1.283
		C104.667,164.03,103.694,163.802,102.721,163.802z"/>
	<path fill="#ECF0F1" d="M116.669,170.675c0,1.57-0.396,2.797-1.187,3.679s-1.884,1.322-3.278,1.322
		c-0.861,0-1.626-0.202-2.294-0.606s-1.184-0.984-1.547-1.74s-0.545-1.641-0.545-2.654c0-1.57,0.393-2.793,1.178-3.669
		s1.875-1.314,3.27-1.314c1.348,0,2.418,0.448,3.212,1.345S116.669,169.146,116.669,170.675z M109.331,170.675
		c0,1.23,0.246,2.168,0.738,2.813s1.216,0.967,2.171,0.967s1.68-0.321,2.175-0.962c0.495-0.643,0.743-1.581,0.743-2.817
		c0-1.225-0.248-2.154-0.743-2.79s-1.226-0.954-2.193-0.954c-0.955,0-1.676,0.313-2.162,0.94S109.331,169.433,109.331,170.675z"/>
	<path fill="#ECF0F1" d="M125.819,175.5v-6.231c0-0.785-0.179-1.371-0.536-1.758s-0.917-0.58-1.679-0.58
		c-1.008,0-1.746,0.272-2.215,0.817s-0.703,1.444-0.703,2.698v5.054h-1.459v-9.633h1.187l0.237,1.318h0.07
		c0.299-0.475,0.718-0.842,1.257-1.104c0.539-0.26,1.14-0.391,1.802-0.391c1.16,0,2.033,0.28,2.619,0.84s0.879,1.454,0.879,2.685
		v6.284H125.819z"/>
	<path fill="#ECF0F1" d="M134.125,175.676c-1.395,0-2.474-0.429-3.239-1.287s-1.147-2.073-1.147-3.644
		c0-1.611,0.388-2.856,1.165-3.735s1.882-1.318,3.318-1.318c0.463,0,0.926,0.05,1.389,0.149s0.826,0.217,1.09,0.352l-0.448,1.239
		c-0.322-0.129-0.674-0.235-1.055-0.32s-0.718-0.128-1.011-0.128c-1.957,0-2.936,1.248-2.936,3.744c0,1.184,0.239,2.092,0.716,2.725
		s1.185,0.949,2.123,0.949c0.803,0,1.626-0.173,2.47-0.519v1.292C135.915,175.509,135.103,175.676,134.125,175.676z"/>
	<path fill="#ECF0F1" d="M143.239,165.691c0.428,0,0.812,0.035,1.151,0.105l-0.202,1.354c-0.398-0.088-0.75-0.132-1.055-0.132
		c-0.779,0-1.446,0.316-2,0.949s-0.831,1.421-0.831,2.364v5.168h-1.459v-9.633h1.204l0.167,1.784h0.07
		c0.357-0.627,0.788-1.11,1.292-1.45S142.635,165.691,143.239,165.691z"/>
	<path fill="#ECF0F1" d="M150.261,175.676c-1.424,0-2.547-0.434-3.371-1.301s-1.235-2.071-1.235-3.612
		c0-1.553,0.382-2.786,1.147-3.7s1.792-1.371,3.081-1.371c1.207,0,2.162,0.397,2.865,1.191s1.055,1.841,1.055,3.142v0.923h-6.636
		c0.029,1.131,0.315,1.989,0.857,2.575s1.305,0.879,2.29,0.879c1.037,0,2.063-0.217,3.076-0.65v1.301
		c-0.516,0.223-1.003,0.382-1.463,0.479C151.467,175.627,150.912,175.676,150.261,175.676z M149.866,166.913
		c-0.773,0-1.39,0.252-1.85,0.756s-0.731,1.201-0.813,2.092h5.036c0-0.92-0.205-1.624-0.615-2.114
		C151.213,167.158,150.627,166.913,149.866,166.913z"/>
	<path fill="#ECF0F1" d="M159.402,174.472c0.258,0,0.507-0.019,0.747-0.058c0.24-0.037,0.431-0.077,0.571-0.118v1.116
		c-0.158,0.076-0.391,0.139-0.699,0.189c-0.308,0.049-0.584,0.074-0.831,0.074c-1.863,0-2.795-0.981-2.795-2.944v-5.73h-1.38v-0.703
		l1.38-0.606l0.615-2.057h0.844v2.232h2.795v1.134h-2.795v5.669c0,0.58,0.138,1.025,0.413,1.336S158.921,174.472,159.402,174.472z"
		/>
	<path fill="#ECF0F1" d="M166.714,175.676c-1.424,0-2.547-0.434-3.371-1.301s-1.235-2.071-1.235-3.612
		c0-1.553,0.382-2.786,1.147-3.7s1.792-1.371,3.081-1.371c1.207,0,2.162,0.397,2.865,1.191s1.055,1.841,1.055,3.142v0.923h-6.636
		c0.029,1.131,0.315,1.989,0.857,2.575s1.305,0.879,2.29,0.879c1.037,0,2.063-0.217,3.076-0.65v1.301
		c-0.516,0.223-1.003,0.382-1.463,0.479C167.92,175.627,167.365,175.676,166.714,175.676z M166.319,166.913
		c-0.773,0-1.39,0.252-1.85,0.756s-0.731,1.201-0.813,2.092h5.036c0-0.92-0.205-1.624-0.615-2.114
		C167.667,167.158,167.081,166.913,166.319,166.913z"/>
	<path fill="#ECF0F1" d="M180.768,167.651c1.354,0,2.419,0.336,3.195,1.007s1.164,1.589,1.164,2.755c0,1.33-0.423,2.373-1.27,3.129
		s-2.014,1.134-3.502,1.134c-1.447,0-2.553-0.231-3.314-0.694v-1.406c0.41,0.264,0.92,0.47,1.529,0.62
		c0.609,0.148,1.211,0.224,1.803,0.224c1.031,0,1.832-0.243,2.403-0.729s0.856-1.189,0.856-2.109c0-1.793-1.098-2.689-3.295-2.689
		c-0.557,0-1.301,0.085-2.232,0.255l-0.756-0.483l0.482-6.012h6.391v1.345h-5.143l-0.324,3.858
		C179.43,167.719,180.1,167.651,180.768,167.651z"/>
	<path fill="#ECF0F1" d="M200.684,175.5l-1.6-4.087h-5.15l-1.582,4.087h-1.512l5.08-12.902h1.258l5.053,12.902H200.684z
		 M198.619,170.068l-1.494-3.981c-0.193-0.504-0.393-1.122-0.598-1.854c-0.129,0.563-0.314,1.181-0.555,1.854l-1.512,3.981H198.619z
		"/>
	<path fill="#ECF0F1" d="M210.334,174.208h-0.078c-0.674,0.979-1.682,1.468-3.023,1.468c-1.26,0-2.24-0.431-2.939-1.292
		c-0.701-0.861-1.051-2.086-1.051-3.674s0.352-2.821,1.055-3.7s1.682-1.318,2.936-1.318c1.307,0,2.309,0.475,3.006,1.424h0.113
		l-0.061-0.694l-0.035-0.677v-3.92h1.459V175.5h-1.188L210.334,174.208z M207.416,174.454c0.996,0,1.719-0.271,2.168-0.813
		c0.447-0.541,0.672-1.416,0.672-2.623v-0.308c0-1.365-0.229-2.339-0.682-2.923c-0.455-0.582-1.18-0.874-2.176-0.874
		c-0.855,0-1.51,0.333-1.963,0.997c-0.455,0.666-0.682,1.604-0.682,2.817c0,1.23,0.225,2.159,0.676,2.786
		S206.543,174.454,207.416,174.454z"/>
	<path fill="#ECF0F1" d="M221.365,174.208h-0.08c-0.674,0.979-1.682,1.468-3.023,1.468c-1.26,0-2.24-0.431-2.939-1.292
		c-0.701-0.861-1.051-2.086-1.051-3.674s0.352-2.821,1.055-3.7s1.682-1.318,2.936-1.318c1.307,0,2.309,0.475,3.006,1.424h0.115
		l-0.063-0.694l-0.035-0.677v-3.92h1.459V175.5h-1.186L221.365,174.208z M218.447,174.454c0.996,0,1.719-0.271,2.166-0.813
		c0.449-0.541,0.672-1.416,0.672-2.623v-0.308c0-1.365-0.227-2.339-0.68-2.923c-0.455-0.582-1.18-0.874-2.176-0.874
		c-0.855,0-1.512,0.333-1.965,0.997c-0.455,0.666-0.682,1.604-0.682,2.817c0,1.23,0.227,2.159,0.678,2.786
		S217.574,174.454,218.447,174.454z"/>
	<path fill="#ECF0F1" d="M225.029,171.343v-1.336h4.316v1.336H225.029z"/>
	<path fill="#ECF0F1" d="M239.945,170.675c0,1.57-0.396,2.797-1.188,3.679s-1.883,1.322-3.277,1.322
		c-0.861,0-1.627-0.202-2.295-0.606s-1.184-0.984-1.547-1.74s-0.545-1.641-0.545-2.654c0-1.57,0.393-2.793,1.178-3.669
		s1.875-1.314,3.27-1.314c1.348,0,2.418,0.448,3.213,1.345C239.547,167.933,239.945,169.146,239.945,170.675z M232.605,170.675
		c0,1.23,0.246,2.168,0.738,2.813s1.217,0.967,2.172,0.967s1.68-0.321,2.176-0.962c0.494-0.643,0.742-1.581,0.742-2.817
		c0-1.225-0.248-2.154-0.742-2.79c-0.496-0.636-1.227-0.954-2.193-0.954c-0.955,0-1.676,0.313-2.162,0.94
		S232.605,169.433,232.605,170.675z"/>
	<path fill="#ECF0F1" d="M249.094,175.5v-6.231c0-0.785-0.178-1.371-0.535-1.758s-0.918-0.58-1.68-0.58
		c-1.008,0-1.746,0.272-2.215,0.817s-0.703,1.444-0.703,2.698v5.054h-1.459v-9.633h1.188l0.236,1.318h0.07
		c0.299-0.475,0.719-0.842,1.258-1.104c0.539-0.26,1.139-0.391,1.801-0.391c1.16,0,2.033,0.28,2.619,0.84s0.879,1.454,0.879,2.685
		v6.284H249.094z"/>
</g>
</svg>
