<?xml version="1.0" encoding="utf-8"?><svg xmlns="http://www.w3.org/2000/svg" width="15" height="15" viewBox="0 0 15 15"><path stroke="#449FDB" d="M0 0"/><path d="M11.786 7.768v2.679q0 .996-.707 1.703t-1.703.707h-6.964q-.996 0-1.703-.707t-.707-1.703v-6.964q0-.996.707-1.703t1.703-.707h5.893q.117 0 .193.075t.075.193v.536q0 .117-.075.193t-.193.075h-5.893q-.552 0-.946.393t-.393.946v6.964q0 .552.393.946t.946.393h6.964q.552 0 .946-.393t.393-.946v-2.679q0-.117.075-.193t.193-.075h.536q.117 0 .193.075t.075.193zm3.214-7.232v4.286q0 .218-.159.377t-.377.159-.377-.159l-1.473-1.473-5.458 5.458q-.084.084-.193.084t-.193-.084l-.954-.954q-.084-.084-.084-.193t.084-.193l5.458-5.458-1.473-1.473q-.159-.159-.159-.377t.159-.377.377-.159h4.286q.218 0 .377.159t.159.377z" fill="#444"/></svg>