<?xml version="1.0" encoding="utf-8"?><svg xmlns="http://www.w3.org/2000/svg" width="15" height="15" viewBox="0 0 15 15"><path stroke="#449FDB" d="M0 0"/><path d="M13.125 3.75h-2.783s-.029-.056-.029-.703-.525-1.172-1.172-1.172h-3.75c-.647 0-1.172.525-1.172 1.172l.029.703h-2.842c-.518 0-.938.42-.938.938v7.5c0 .518.42.938.938.938h11.719c.518 0 .938-.42.938-.938v-7.5c0-.518-.42-.938-.938-.938zm-5.838 7.487c-1.553 0-2.813-1.259-2.813-2.813s1.259-2.813 2.813-2.813c1.553 0 2.813 1.259 2.813 2.813s-1.26 2.813-2.813 2.813z" fill="#444"/></svg>