<?xml version="1.0" encoding="utf-8"?>
<!-- Generated by IcoMoon.io -->
<!DOCTYPE svg PUBLIC "-//W3C//DTD SVG 1.1//EN" "http://www.w3.org/Graphics/SVG/1.1/DTD/svg11.dtd">
<svg version="1.1" xmlns="http://www.w3.org/2000/svg" xmlns:xlink="http://www.w3.org/1999/xlink" width="15" height="15" viewBox="0 0 15 15">
<g>
	<line stroke-width="1" x1="" y1="" x2="" y2="" stroke="#449FDB" opacity=""></line>
</g>
	<path d="M13.125 3.75h-2.783c0 0-0.029-0.056-0.029-0.703s-0.525-1.172-1.172-1.172h-3.75c-0.647 0-1.172 0.525-1.172 1.172s0.029 0.703 0.029 0.703h-2.842c-0.518 0-0.938 0.42-0.938 0.938v7.5c0 0.518 0.42 0.938 0.938 0.938h11.719c0.518 0 0.938-0.42 0.938-0.938v-7.5c0-0.518-0.42-0.938-0.938-0.938zM7.287 11.237c-1.553 0-2.813-1.259-2.813-2.813s1.259-2.813 2.813-2.813c1.553 0 2.813 1.259 2.813 2.813s-1.26 2.813-2.813 2.813z" fill="#444444"></path>
</svg>
