<?xml version="1.0" encoding="utf-8"?>
<!-- Generated by IcoMoon.io -->
<!DOCTYPE svg PUBLIC "-//W3C//DTD SVG 1.1//EN" "http://www.w3.org/Graphics/SVG/1.1/DTD/svg11.dtd">
<svg version="1.1" xmlns="http://www.w3.org/2000/svg" xmlns:xlink="http://www.w3.org/1999/xlink" width="15" height="15" viewBox="0 0 15 15">
<g>
	<line stroke-width="1" x1="" y1="" x2="" y2="" stroke="#449FDB" opacity=""></line>
</g>
	<path d="M12.188 1.875h-9.375c-1.547 0-2.813 1.266-2.813 2.813v5.625c0 1.547 1.266 2.813 2.813 2.813h9.375c1.547 0 2.813-1.266 2.813-2.813v-5.625c0-1.547-1.266-2.813-2.813-2.813zM14.063 10.313c0 0.498-0.196 0.968-0.552 1.323s-0.826 0.552-1.323 0.552h-9.375c-0.498 0-0.968-0.196-1.323-0.552s-0.552-0.826-0.552-1.323v-5.625c0-0.498 0.196-0.968 0.552-1.323s0.826-0.552 1.323-0.552h9.375c0.498 0 0.968 0.196 1.323 0.552s0.552 0.826 0.552 1.323v5.625zM5.625 11.25l4.688-3.75-4.688-3.75z" fill="#444444"></path>
</svg>
