<?xml version="1.0" encoding="utf-8"?>
<!DOCTYPE svg PUBLIC "-//W3C//DTD SVG 1.1//EN" "http://www.w3.org/Graphics/SVG/1.1/DTD/svg11.dtd">
<svg version="1.1" xmlns="http://www.w3.org/2000/svg" xmlns:xlink="http://www.w3.org/1999/xlink" width="100" height="206.809" viewBox="0 0 100 206.809" id="icon-blog-mobile">
<title>blog-mobile</title>
<path fill="#666" d="M99.905 9.615c-1.522-5-23.278-9.615-49.905-9.615-26.626 0-48.383 4.615-49.907 9.615h-.093v186h.093c-.056 0-.093.648-.093.852 0 5.641 22.386 10.342 50 10.342s50-4.763 50-10.404c0-.202-.036-.789-.095-.789h.095v-186h-.095zm-75.385-4.042c1.062 0 1.922.861 1.922 1.923s-.861 1.923-1.922 1.923c-1.063 0-1.923-.861-1.923-1.923s.86-1.923 1.923-1.923zm23.076 1.602c0-1.328 1.076-2.404 2.404-2.404s2.404 1.076 2.404 2.404c0 1.328-1.076 2.403-2.404 2.403s-2.404-1.075-2.404-2.403zm50.404 6.44v179h-96v-179h96zm-27 183.5c0 .828-.671 1.5-1.5 1.5h-41c-.829 0-1.5-.672-1.5-1.5s.671-1.5 1.5-1.5h41c.829 0 1.5.672 1.5 1.5z"/>
<path fill="#BDC3C7" d="M71 197.115c0-.828-.671-1.5-1.5-1.5h-41c-.829 0-1.5.672-1.5 1.5s.671 1.5 1.5 1.5h41c.829 0 1.5-.672 1.5-1.5z"/>
<circle fill="#BDC3C7" cx="24.52" cy="7.496" r="1.923"/>
<circle fill="#A9A9AA" cx="50" cy="7.175" r="2.404"/>
<path fill="#2980B9" d="M2 13.615h96v179h-96z"/>
<path d="M28.58 88.297h4.654c2.186 0 3.767.327 4.744.98.976.654 1.465 1.687 1.465 3.099 0 .977-.272 1.783-.817 2.417-.545.635-1.339 1.046-2.383 1.234v.113c2.501.428 3.752 1.743 3.752 3.944 0 1.473-.498 2.622-1.493 3.448-.996.826-2.387 1.239-4.175 1.239h-5.747v-16.474zm1.916 7.054h3.155c1.352 0 2.325-.212 2.918-.637.593-.424.89-1.14.89-2.146 0-.924-.331-1.591-.992-2-.661-.41-1.712-.614-3.155-.614h-2.817v5.397zm0 1.623v6.164h3.437c1.33 0 2.331-.257 3.003-.772s1.008-1.32 1.008-2.417c0-1.021-.343-1.773-1.031-2.253-.688-.481-1.733-.721-3.138-.721h-3.279zm14.625 7.797h-1.87v-17.533h1.87v17.533zm14.626-6.186c0 2.013-.507 3.585-1.521 4.715-1.014 1.131-2.415 1.696-4.203 1.696-1.104 0-2.084-.259-2.941-.778-.856-.518-1.518-1.262-1.983-2.231-.466-.969-.699-2.103-.699-3.403 0-2.013.503-3.582 1.51-4.705s2.404-1.685 4.192-1.685c1.728 0 3.101.575 4.118 1.724 1.018 1.151 1.527 2.706 1.527 4.667zm-9.409 0c0 1.578.315 2.779.947 3.605.631.827 1.559 1.24 2.783 1.24s2.154-.411 2.789-1.234.952-2.026.952-3.611c0-1.57-.317-2.763-.952-3.578s-1.572-1.223-2.812-1.223c-1.224 0-2.148.402-2.772 1.206-.623.804-.935 2.002-.935 3.595zm22.796-6.164v1.183l-2.288.271c.21.263.398.606.563 1.031.165.425.248.903.248 1.437 0 1.21-.413 2.175-1.239 2.896-.827.721-1.96 1.082-3.403 1.082-.368 0-.714-.03-1.037-.09-.796.421-1.194.95-1.194 1.589 0 .338.139.588.417.749.278.162.755.243 1.431.243h2.186c1.337 0 2.364.282 3.082.845.717.563 1.076 1.382 1.076 2.457 0 1.367-.548 2.41-1.645 3.127s-2.697 1.076-4.8 1.076c-1.615 0-2.86-.301-3.735-.901-.875-.601-1.313-1.45-1.313-2.547 0-.751.24-1.401.721-1.949.48-.548 1.157-.92 2.028-1.116-.315-.143-.581-.364-.794-.665-.214-.3-.321-.65-.321-1.048 0-.451.12-.845.361-1.183.24-.338.62-.665 1.138-.98-.638-.263-1.159-.71-1.561-1.341-.402-.631-.603-1.352-.603-2.164 0-1.352.405-2.395 1.217-3.127.811-.732 1.96-1.099 3.448-1.099.646 0 1.229.075 1.747.226h4.27zm-9.849 14.423c0 .668.282 1.176.845 1.521s1.371.518 2.423.518c1.57 0 2.732-.235 3.487-.704.755-.47 1.132-1.106 1.132-1.91 0-.668-.207-1.132-.62-1.392s-1.191-.389-2.333-.389h-2.242c-.849 0-1.51.203-1.983.608s-.709.989-.709 1.748zm1.014-10.468c0 .864.244 1.518.732 1.96.488.443 1.168.665 2.04.665 1.826 0 2.738-.887 2.738-2.66 0-1.855-.924-2.783-2.772-2.783-.879 0-1.555.237-2.028.71-.473.475-.71 1.177-.71 2.108z" fill="#ECF0F1"/>
</svg>