<?xml version="1.0" encoding="utf-8"?>
<!-- Generator: Adobe Illustrator 15.1.0, SVG Export Plug-In . SVG Version: 6.00 Build 0)  -->
<!DOCTYPE svg PUBLIC "-//W3C//DTD SVG 1.1//EN" "http://www.w3.org/Graphics/SVG/1.1/DTD/svg11.dtd">
<svg version="1.1" id="icon-external-link" xmlns="http://www.w3.org/2000/svg" xmlns:xlink="http://www.w3.org/1999/xlink" x="0px"
	 y="0px" width="15px" height="15px" viewBox="0 0 15 15" enable-background="new 0 0 15 15" xml:space="preserve">
<title>external-link</title>
<path fill="#008CBA" d="M11.786,7.768v2.679c0,0.664-0.235,1.231-0.707,1.703c-0.472,0.471-1.039,0.707-1.703,0.707H2.412
	c-0.664,0-1.232-0.236-1.703-0.707c-0.471-0.472-0.707-1.039-0.707-1.703V3.483c0-0.664,0.236-1.231,0.707-1.703
	C1.18,1.309,1.748,1.073,2.412,1.073h5.893c0.078,0,0.143,0.025,0.193,0.075c0.051,0.05,0.076,0.114,0.075,0.193v0.536
	c0,0.078-0.025,0.143-0.075,0.193c-0.05,0.051-0.114,0.076-0.193,0.075H2.412c-0.368,0-0.684,0.131-0.946,0.393
	C1.203,2.8,1.072,3.115,1.073,3.484v6.964c0,0.368,0.131,0.683,0.393,0.946c0.262,0.262,0.578,0.393,0.946,0.393h6.964
	c0.368,0,0.684-0.131,0.946-0.393c0.262-0.263,0.394-0.578,0.393-0.946V7.769c0-0.078,0.025-0.143,0.075-0.193
	c0.05-0.051,0.114-0.076,0.192-0.075h0.537c0.078,0,0.142,0.025,0.192,0.075C11.763,7.626,11.787,7.69,11.786,7.768L11.786,7.768z
	 M15,0.536v4.286c0,0.146-0.053,0.271-0.159,0.377c-0.106,0.106-0.231,0.159-0.377,0.159s-0.271-0.053-0.377-0.159l-1.474-1.473
	L7.156,9.184C7.1,9.24,7.036,9.268,6.963,9.268S6.826,9.24,6.77,9.184L5.816,8.23C5.76,8.174,5.732,8.109,5.732,8.037
	c0-0.073,0.028-0.137,0.084-0.193l5.458-5.458L9.801,0.913C9.695,0.807,9.643,0.681,9.643,0.536c0-0.146,0.053-0.271,0.158-0.377
	C9.907,0.053,10.033,0,10.178,0h4.286c0.146,0,0.271,0.053,0.377,0.159S15,0.391,15,0.536z"/>
</svg>
