<?xml version="1.0" encoding="utf-8"?>
<!DOCTYPE svg PUBLIC "-//W3C//DTD SVG 1.1//EN" "http://www.w3.org/Graphics/SVG/1.1/DTD/svg11.dtd">
<svg version="1.1" xmlns="http://www.w3.org/2000/svg" xmlns:xlink="http://www.w3.org/1999/xlink" width="100" height="206.809" viewBox="0 0 100 206.809" id="icon-work-mobile">
<title>work-mobile</title>
<path fill="#666" d="M99.905 9.615c-1.522-5-23.278-9.615-49.905-9.615-26.626 0-48.383 4.615-49.907 9.615h-.093v186h.093c-.056 0-.093.648-.093.852 0 5.641 22.386 10.342 50 10.342s50-4.763 50-10.404c0-.202-.036-.789-.095-.789h.095v-186h-.095zm-75.385-4.042c1.062 0 1.922.861 1.922 1.923s-.861 1.923-1.922 1.923c-1.063 0-1.923-.861-1.923-1.923s.86-1.923 1.923-1.923zm23.076 1.602c0-1.328 1.076-2.404 2.404-2.404s2.404 1.076 2.404 2.404c0 1.328-1.076 2.403-2.404 2.403s-2.404-1.075-2.404-2.403zm50.404 6.44v179h-96v-179h96zm-27 183.5c0 .828-.671 1.5-1.5 1.5h-41c-.829 0-1.5-.672-1.5-1.5s.671-1.5 1.5-1.5h41c.829 0 1.5.672 1.5 1.5z"/>
<path fill="#BDC3C7" d="M71 197.115c0-.828-.671-1.5-1.5-1.5h-41c-.829 0-1.5.672-1.5 1.5s.671 1.5 1.5 1.5h41c.829 0 1.5-.672 1.5-1.5z"/>
<circle fill="#BDC3C7" cx="24.52" cy="7.496" r="1.923"/>
<circle fill="#A9A9AA" cx="50" cy="7.175" r="2.404"/>
<path fill="#2980B9" d="M2 13.615h96v179h-96z"/>
<path d="M38.225 104.771h-1.893l-3.324-11.031c-.158-.488-.334-1.104-.53-1.848s-.297-1.19-.304-1.341c-.165.992-.428 2.077-.789 3.256l-3.223 10.964h-1.892l-4.383-16.474h2.028l2.603 10.175c.36 1.427.623 2.719.789 3.876.203-1.375.503-2.719.901-4.034l2.952-10.017h2.028l3.099 10.107c.361 1.164.665 2.479.913 3.943.143-1.066.413-2.366.811-3.898l2.592-10.152h2.028l-4.406 16.474zm17.364-6.186c0 2.013-.507 3.585-1.521 4.715-1.014 1.131-2.415 1.696-4.203 1.696-1.104 0-2.084-.259-2.941-.778-.856-.518-1.518-1.262-1.983-2.231-.466-.969-.699-2.103-.699-3.403 0-2.013.503-3.582 1.51-4.705s2.404-1.685 4.192-1.685c1.728 0 3.101.575 4.118 1.724 1.018 1.151 1.527 2.706 1.527 4.667zm-9.409 0c0 1.578.315 2.779.947 3.605.631.827 1.559 1.24 2.783 1.24s2.154-.411 2.789-1.234.952-2.026.952-3.611c0-1.57-.317-2.763-.952-3.578s-1.572-1.223-2.812-1.223c-1.224 0-2.148.402-2.772 1.206-.623.804-.935 2.002-.935 3.595zm18.322-6.389c.548 0 1.041.045 1.476.135l-.259 1.735c-.511-.113-.961-.169-1.352-.169-.999 0-1.854.406-2.563 1.217-.71.812-1.065 1.822-1.065 3.031v6.625h-1.87v-12.35h1.543l.214 2.287h.09c.458-.804 1.01-1.423 1.656-1.859s1.356-.652 2.13-.652zm5.634 6.254c.323-.458.815-1.059 1.476-1.803l3.989-4.226h2.22l-5.003 5.262 5.353 7.087h-2.265l-4.361-5.837-1.409 1.217v4.62h-1.848v-17.532h1.848v9.296c0 .413-.03 1.052-.09 1.916h.09z" fill="#ECF0F1"/>
</svg>