<?xml version="1.0" encoding="utf-8"?>
<!DOCTYPE svg PUBLIC "-//W3C//DTD SVG 1.1//EN" "http://www.w3.org/Graphics/SVG/1.1/DTD/svg11.dtd">
<svg version="1.1" xmlns="http://www.w3.org/2000/svg" xmlns:xlink="http://www.w3.org/1999/xlink" width="350" height="266" viewBox="0 0 350 266" id="icon-work">
<title>work</title>
<path fill="#999" d="M16 0h318v200h-318z"/>
<path fill="#2980B9" d="M26 9h298v178h-298z"/>
<path fill="#666" d="M350 254h-350l15.909-54h318.182z"/>
<path fill="#4D4D4D" d="M323.153 229h-296.306l7.292-29h281.722zm-83.954 23h-128.399l2.802-14h123.294z"/>
<path fill="#999" d="M0 254h350v12h-350z"/>
<path d="M153.57 114.68h-3.445l-6.05-20.077c-.287-.889-.608-2.01-.964-3.363s-.54-2.167-.554-2.44c-.301 1.805-.779 3.78-1.436 5.927l-5.865 19.954h-3.445l-7.978-29.982h3.691l4.737 18.519c.656 2.598 1.135 4.949 1.436 7.055.369-2.502.916-4.949 1.641-7.342l5.373-18.231h3.691l5.64 18.396c.656 2.119 1.21 4.512 1.661 7.178.26-1.941.752-4.307 1.477-7.096l4.717-18.478h3.691l-8.018 29.98zm31.602-11.259c0 3.664-.922 6.525-2.768 8.583s-4.396 3.086-7.65 3.086c-2.01 0-3.794-.472-5.353-1.415s-2.762-2.297-3.609-4.061-1.271-3.828-1.271-6.193c0-3.664.916-6.518 2.748-8.562s4.375-3.066 7.629-3.066c3.145 0 5.643 1.046 7.495 3.138 1.853 2.091 2.779 4.922 2.779 8.49zm-17.124 0c0 2.871.574 5.059 1.723 6.563s2.837 2.256 5.065 2.256 3.919-.749 5.076-2.246c1.154-1.497 1.732-3.688 1.732-6.573 0-2.857-.578-5.028-1.732-6.511-1.156-1.483-2.861-2.225-5.117-2.225-2.229 0-3.91.731-5.045 2.194s-1.702 3.643-1.702 6.542zm33.347-11.628c.998 0 1.893.082 2.686.246l-.471 3.158c-.93-.205-1.75-.308-2.461-.308-1.818 0-3.375.738-4.666 2.215-1.293 1.477-1.938 3.315-1.938 5.517v12.059h-3.404v-22.477h2.809l.391 4.163h.164c.834-1.463 1.838-2.591 3.014-3.384s2.467-1.189 3.876-1.189zm10.253 11.382c.588-.834 1.482-1.928 2.686-3.281l7.26-7.69h4.041l-9.105 9.577 9.74 12.899h-4.121l-7.938-10.623-2.563 2.215v8.408h-3.363v-31.91h3.363v16.919c0 .752-.055 1.914-.164 3.486h.164z" fill="#ECF0F1"/>
</svg>