<?xml version="1.0" encoding="utf-8"?>
<!-- Generator: Adobe Illustrator 15.1.0, SVG Export Plug-In . SVG Version: 6.00 Build 0)  -->
<!DOCTYPE svg PUBLIC "-//W3C//DTD SVG 1.1//EN" "http://www.w3.org/Graphics/SVG/1.1/DTD/svg11.dtd">
<svg version="1.1" id="icon-youtube" xmlns="http://www.w3.org/2000/svg" xmlns:xlink="http://www.w3.org/1999/xlink" x="0px"
	 y="0px" width="15px" height="15px" viewBox="0 0 15 15" enable-background="new 0 0 15 15" xml:space="preserve">
<title>YouTube Icon</title>
<path fill="#008CBA" d="M12.188,1.875H2.813C1.266,1.875,0,3.141,0,4.688v5.625c0,1.547,1.266,2.813,2.813,2.813h9.375
	c1.547,0,2.813-1.267,2.813-2.813V4.688C15.001,3.141,13.734,1.875,12.188,1.875z M14.063,10.313c0,0.498-0.195,0.969-0.551,1.323
	c-0.357,0.355-0.826,0.552-1.324,0.552H2.813c-0.498,0-0.968-0.195-1.323-0.552c-0.355-0.356-0.552-0.825-0.552-1.323V4.688
	c0-0.498,0.196-0.968,0.552-1.323C1.846,3.01,2.316,2.813,2.813,2.813h9.375c0.498,0,0.969,0.196,1.324,0.552
	c0.354,0.356,0.551,0.826,0.551,1.323V10.313z M5.625,11.25l4.688-3.75L5.625,3.75V11.25z"/>
</svg>
