<?xml version="1.0" encoding="utf-8"?><svg baseProfile="tiny" xmlns="http://www.w3.org/2000/svg" width="350" height="266" viewBox="0 0 350 266"><path fill="#999" d="M16 0h318v200h-318z"/><path fill="#2980B9" d="M26 9h298v178h-298z"/><path fill="#666" d="M350 254h-350l15.909-54h318.182z"/><path fill="#4D4D4D" d="M323.153 229h-296.306l7.292-29h281.722zM239.199 252h-128.399l2.802-14h123.294z"/><path fill="#999" d="M0 254h350v12h-350z"/><g fill="#ECF0F1"><path d="M136.014 84.697h8.47c3.979 0 6.856.595 8.634 1.784s2.666 3.069 2.666 5.64c0 1.777-.496 3.244-1.487 4.399s-2.437 1.904-4.337 2.246v.205c4.553.779 6.829 3.172 6.829 7.178 0 2.68-.906 4.771-2.717 6.275s-4.344 2.256-7.598 2.256h-10.459v-29.983zm3.486 12.838h5.742c2.461 0 4.231-.386 5.312-1.159s1.62-2.075 1.62-3.907c0-1.682-.602-2.895-1.805-3.64s-3.117-1.118-5.742-1.118h-5.127v9.824zm0 2.953v11.218h6.255c2.42 0 4.242-.468 5.465-1.405s1.835-2.403 1.835-4.399c0-1.859-.625-3.227-1.876-4.102s-3.155-1.313-5.711-1.313h-5.968zM166.12 114.68h-3.404v-31.91h3.404v31.91zM192.738 103.421c0 3.664-.922 6.525-2.768 8.583s-4.396 3.086-7.65 3.086c-2.01 0-3.793-.472-5.352-1.415s-2.762-2.297-3.61-4.061-1.271-3.828-1.271-6.193c0-3.664.916-6.518 2.748-8.562 1.833-2.044 4.375-3.066 7.629-3.066 3.145 0 5.643 1.046 7.496 3.138 1.853 2.091 2.778 4.922 2.778 8.49zm-17.123 0c0 2.871.574 5.059 1.723 6.563s2.836 2.256 5.064 2.256 3.92-.749 5.076-2.246c1.154-1.497 1.732-3.688 1.732-6.573 0-2.857-.578-5.028-1.732-6.511-1.156-1.483-2.861-2.225-5.117-2.225-2.229 0-3.91.731-5.045 2.194s-1.701 3.643-1.701 6.542zM217.102 92.203v2.153l-4.162.492c.383.479.725 1.104 1.025 1.876s.451 1.644.451 2.615c0 2.201-.752 3.958-2.256 5.271s-3.568 1.969-6.193 1.969c-.67 0-1.299-.055-1.887-.164-1.449.766-2.174 1.729-2.174 2.892 0 .615.252 1.07.758 1.364s1.375.441 2.605.441h3.979c2.434 0 4.303.513 5.609 1.538 1.305 1.025 1.957 2.516 1.957 4.471 0 2.488-.998 4.385-2.994 5.691s-4.908 1.958-8.736 1.958c-2.939 0-5.205-.547-6.797-1.641-1.594-1.094-2.391-2.639-2.391-4.635 0-1.367.438-2.55 1.313-3.548s2.105-1.675 3.691-2.03c-.574-.26-1.055-.663-1.445-1.21-.389-.547-.584-1.183-.584-1.907 0-.82.219-1.538.656-2.153s1.127-1.21 2.07-1.784c-1.162-.479-2.109-1.292-2.84-2.44-.732-1.148-1.098-2.461-1.098-3.938 0-2.461.738-4.358 2.215-5.691s3.568-2 6.275-2c1.176 0 2.236.137 3.18.41h7.773zm-17.924 26.25c0 1.217.514 2.14 1.539 2.769s2.494.943 4.408.943c2.857 0 4.975-.427 6.348-1.282 1.375-.854 2.061-2.013 2.061-3.476 0-1.217-.375-2.061-1.127-2.533s-2.168-.708-4.246-.708h-4.08c-1.545 0-2.748.369-3.609 1.107s-1.294 1.799-1.294 3.18zm1.845-19.052c0 1.572.445 2.762 1.334 3.568s2.125 1.21 3.711 1.21c3.322 0 4.984-1.613 4.984-4.84 0-3.377-1.682-5.065-5.045-5.065-1.6 0-2.83.431-3.691 1.292s-1.293 2.14-1.293 3.835z"/></g></svg>