<?xml version="1.0" encoding="utf-8"?><svg baseProfile="tiny" xmlns="http://www.w3.org/2000/svg" width="87.75" height="67" viewBox="0 0 87.75 67"><path fill="#999" d="M4 0h79v50h-79z"/><path fill="#2980B9" d="M6 2h75v45h-75z"/><path fill="#666" d="M87.75 64h-87.75l3.99-14h79.771z"/><path fill="#4D4D4D" d="M81.019 57h-74.287l1.828-7h70.63zM59.971 63h-32.191l.702-3h30.913z"/><path fill="#999" d="M0 64h87v3h-87z"/><path fill="#ccc" d="M57.972 4.583c-.372 0-.675.302-.675.674s.303.674.675.674c.37 0 .674-.303.674-.674s-.304-.674-.674-.674zm0 1.277c-.334 0-.604-.271-.604-.603s.27-.603.604-.603c.333 0 .603.271.603.603s-.27.603-.603.603zm.213-.7c0-.123-.082-.181-.217-.181h-.215v.556h.131v-.195h.068l.099.195h.14l-.108-.212c.06-.026.102-.074.102-.163zm-.226.083h-.075v-.146h.075c.064 0 .096.023.096.072 0 .051-.032.074-.096.074z"/><path fill="#fff" d="M56.777 26.223c-3.164-3.771-8.032 4.182-10.656 5.903-1.811 1.19-4.56 1.283-6.491.148-2.643-1.554-1.833-5.268.957-6.19 2.48-.82 6.818 1.793 8.394-.822 1.939-3.221-4.689-3.977-6.652-3.898-3.536.139-6.942 1.285-9.041 3.96-2.259 2.882-1.743 6.365.749 8.98 2.538 2.454 6.213 3.4 9.871 3.1.923-.076 2.512-.472 3.727-1.136 2.408-1.319 9.783-9.283 9.142-10.045zm-23.142-2.822c1.226.245-1.148-6.602-1.304-7.545-.188-1.139-.608-2.747-1.739-2.914-1.313-.191-1.672 1.302-1.404 2.613.276 1.363 3.296 7.616 4.447 7.846zm10.14-3.534c1.899.269 1.769-8.843 1.771-10.082.001-1.113.436-4.197-1.067-4.488-2.063-.399-2.268 2.319-2.313 3.781.084 1.46-.376 10.507 1.609 10.789zm4.521 1.456c2.076.866 3.662-8.338 3.892-9.519.231-1.203.27-3.756-1.792-2.948-1.035.405-1.224 2.083-1.384 3.008-.257 1.178-2.314 8.791-.716 9.459zm-9.975-.773c2.339.174.135-9.084-.049-10.318-.188-1.259-1.035-3.779-2.782-2.312-.875.736-.481 2.447-.317 3.408.154 1.241 1.346 9.088 3.148 9.222z"/><g fill="#ECF0F1"><path d="M37.963 41.937c0 .709-.192 1.251-.577 1.626s-.938.563-1.662.563h-1.19v-4.295h1.316c.668 0 1.187.185 1.557.555s.556.887.556 1.551zm-.529.018c0-.56-.141-.982-.421-1.266-.281-.284-.699-.426-1.253-.426h-.726v3.431h.608c.595 0 1.043-.146 1.343-.439.299-.293.449-.726.449-1.3zM40.208 44.185c-.476 0-.852-.145-1.127-.435-.275-.29-.413-.692-.413-1.208 0-.519.128-.932.383-1.237.256-.306.599-.458 1.03-.458.404 0 .723.133.958.398.235.266.353.616.353 1.05v.309h-2.218c.01.378.105.665.287.861.181.196.436.294.765.294.347 0 .689-.072 1.028-.217v.435c-.172.075-.335.128-.489.16s-.34.048-.557.048zm-.133-2.93c-.258 0-.465.084-.618.253-.154.168-.245.401-.272.699h1.684c0-.308-.069-.543-.206-.707-.137-.163-.333-.245-.588-.245zM46.327 44.126v-2.095c0-.257-.055-.449-.164-.578-.109-.128-.28-.192-.512-.192-.303 0-.527.087-.672.262-.146.174-.218.442-.218.805v1.798h-.488v-2.095c0-.257-.055-.449-.164-.578-.11-.128-.281-.192-.514-.192-.306 0-.529.092-.671.275s-.213.483-.213.9v1.689h-.488v-3.22h.396l.08.441h.023c.092-.157.222-.279.389-.367.167-.088.355-.132.563-.132.503 0 .833.182.988.546h.023c.096-.168.234-.302.417-.399.182-.098.39-.147.623-.147.364 0 .637.094.818.281.181.187.271.486.271.897v2.101h-.487zM50.6 42.513c0 .525-.133.935-.397 1.229-.264.295-.629.442-1.096.442-.288 0-.543-.067-.767-.203s-.396-.329-.517-.582c-.122-.253-.183-.548-.183-.887 0-.525.131-.934.394-1.227.263-.292.627-.439 1.093-.439.451 0 .809.15 1.074.45.266.3.399.706.399 1.217zm-2.454 0c0 .411.083.725.247.94.165.215.406.323.726.323s.562-.107.728-.322c.165-.214.248-.528.248-.941 0-.41-.083-.721-.248-.933-.166-.212-.41-.319-.733-.319-.319 0-.56.105-.723.314-.163.21-.245.523-.245.938zM53.532 43.248c0 .3-.112.531-.335.693-.224.163-.537.244-.94.244-.427 0-.76-.067-.999-.203v-.452c.154.078.32.14.498.185.177.045.348.067.513.067.255 0 .45-.041.588-.122.137-.081.205-.205.205-.372 0-.125-.054-.232-.163-.322-.108-.089-.32-.194-.636-.316-.3-.111-.513-.209-.64-.292-.126-.083-.22-.178-.281-.284-.063-.106-.093-.232-.093-.379 0-.263.106-.47.32-.622.213-.152.506-.228.878-.228.347 0 .686.07 1.017.211l-.173.396c-.323-.133-.616-.2-.879-.2-.23 0-.405.037-.522.109-.118.072-.177.172-.177.3 0 .086.022.16.066.22s.115.119.213.173.286.134.564.238c.382.139.64.279.773.42.136.145.203.322.203.536z"/></g></svg>