<?xml version="1.0" encoding="utf-8"?><svg baseProfile="tiny" xmlns="http://www.w3.org/2000/svg" width="350" height="266" viewBox="0 0 350 266"><path fill="#999" d="M16 0h318v200h-318z"/><path fill="#2980B9" d="M26 9h298v178h-298z"/><path fill="#666" d="M350 254h-350l15.909-54h318.182z"/><path fill="#4D4D4D" d="M323.153 229h-296.306l7.292-29h281.722zM239.199 252h-128.399l2.802-14h123.294z"/><path fill="#999" d="M0 254h350v12h-350z"/><path fill="#ccc" d="M231.225 19.662c-1.482 0-2.69 1.206-2.69 2.688 0 1.481 1.208 2.688 2.69 2.688 1.479 0 2.688-1.207 2.688-2.688-.001-1.482-1.209-2.688-2.688-2.688zm0 5.094c-1.329 0-2.407-1.08-2.407-2.406 0-1.327 1.078-2.405 2.407-2.405 1.328 0 2.404 1.078 2.404 2.405 0 1.326-1.076 2.406-2.404 2.406zm.85-2.793c0-.49-.328-.723-.863-.723h-.86v2.217h.522v-.78h.272l.392.78h.559l-.435-.849c.243-.101.413-.294.413-.645zm-.899.329h-.302v-.583h.302c.254 0 .377.091.377.288 0 .206-.123.295-.377.295z"/><path fill="#fff" d="M226.463 105.973c-12.623-15.039-32.043 16.678-42.507 23.545-7.222 4.745-18.187 5.118-25.888.589-10.54-6.196-7.313-21.011 3.814-24.688 9.894-3.272 27.196 7.153 33.48-3.28 7.736-12.847-18.708-15.86-26.534-15.548-14.103.554-27.688 5.125-36.058 15.797-9.01 11.493-6.952 25.387 2.986 35.816 10.123 9.789 24.779 13.563 39.37 12.364 3.684-.303 10.019-1.88 14.866-4.531 9.609-5.257 39.024-37.021 36.471-40.064zm-92.306-11.253c4.887.975-4.581-26.333-5.203-30.093-.746-4.544-2.425-10.956-6.934-11.623-5.237-.762-6.67 5.192-5.602 10.418 1.103 5.437 13.147 30.381 17.739 31.298zm40.445-14.099c7.573 1.073 7.053-35.269 7.062-40.209.004-4.44 1.738-16.744-4.259-17.903-8.228-1.595-9.046 9.25-9.223 15.081.339 5.825-1.502 41.91 6.42 43.031zm18.033 5.811c8.277 3.456 14.604-33.259 15.517-37.967.925-4.797 1.078-14.981-7.146-11.758-4.127 1.617-4.881 8.308-5.518 11.999-1.029 4.694-9.231 35.06-2.853 37.726zm-39.788-3.086c9.328.695.539-36.232-.196-41.155-.752-5.019-4.128-15.074-11.096-9.221-3.49 2.935-1.918 9.762-1.264 13.592.614 4.952 5.366 36.251 12.556 36.784z"/><g fill="#ECF0F1"><path d="M151.416 168.654c0 2.828-.768 4.99-2.303 6.486s-3.744 2.244-6.627 2.244h-4.746v-17.133h5.25c2.664 0 4.734.738 6.211 2.215s2.215 3.54 2.215 6.188zm-2.109.071c0-2.234-.561-3.918-1.682-5.051s-2.787-1.699-4.998-1.699h-2.895v13.688h2.426c2.375 0 4.16-.584 5.355-1.752s1.794-2.897 1.794-5.186zM160.369 177.619c-1.898 0-3.396-.578-4.494-1.734s-1.646-2.762-1.646-4.816c0-2.07.51-3.715 1.529-4.934s2.389-1.828 4.107-1.828c1.609 0 2.883.529 3.82 1.588s1.406 2.455 1.406 4.189v1.23h-8.848c.039 1.508.42 2.652 1.143 3.434s1.74 1.172 3.053 1.172c1.383 0 2.75-.289 4.102-.867v1.734c-.688.297-1.338.51-1.951.639s-1.354.193-2.221.193zm-.527-11.683c-1.031 0-1.854.336-2.467 1.008s-.975 1.602-1.084 2.789h6.715c0-1.227-.273-2.166-.82-2.818s-1.329-.979-2.344-.979zM184.779 177.385v-8.355c0-1.023-.219-1.791-.656-2.303s-1.117-.768-2.039-.768c-1.211 0-2.105.348-2.684 1.043s-.867 1.766-.867 3.211v7.172h-1.945v-8.355c0-1.023-.219-1.791-.656-2.303s-1.121-.768-2.051-.768c-1.219 0-2.111.365-2.678 1.096s-.85 1.928-.85 3.592v6.738h-1.945v-12.844h1.582l.316 1.758h.094c.367-.625.885-1.113 1.553-1.465s1.416-.527 2.244-.527c2.008 0 3.32.727 3.938 2.18h.094c.383-.672.938-1.203 1.664-1.594s1.555-.586 2.484-.586c1.453 0 2.541.373 3.264 1.119s1.084 1.939 1.084 3.58v8.379h-1.946zM201.818 170.951c0 2.094-.527 3.729-1.582 4.904s-2.512 1.764-4.371 1.764c-1.148 0-2.168-.27-3.059-.809s-1.578-1.313-2.063-2.32-.727-2.188-.727-3.539c0-2.094.523-3.725 1.57-4.893s2.5-1.752 4.359-1.752c1.797 0 3.225.598 4.283 1.793s1.59 2.813 1.59 4.852zm-9.785 0c0 1.641.328 2.891.984 3.75s1.621 1.289 2.895 1.289 2.24-.428 2.9-1.283.99-2.107.99-3.756c0-1.633-.33-2.873-.99-3.721s-1.635-1.271-2.924-1.271c-1.273 0-2.234.418-2.883 1.254s-.972 2.082-.972 3.738zM213.514 173.881c0 1.195-.445 2.117-1.336 2.766s-2.141.973-3.75.973c-1.703 0-3.031-.27-3.984-.809v-1.805c.617.313 1.279.559 1.986.738s1.389.27 2.045.27c1.016 0 1.797-.162 2.344-.486s.82-.818.82-1.482c0-.5-.217-.928-.65-1.283s-1.279-.775-2.537-1.26c-1.195-.445-2.045-.834-2.549-1.166s-.879-.709-1.125-1.131-.369-.926-.369-1.512c0-1.047.426-1.873 1.277-2.479s2.02-.908 3.504-.908c1.383 0 2.734.281 4.055.844l-.691 1.582c-1.289-.531-2.457-.797-3.504-.797-.922 0-1.617.145-2.086.434s-.703.688-.703 1.195c0 .344.088.637.264.879s.459.473.85.691 1.141.535 2.25.949c1.523.555 2.553 1.113 3.088 1.676s.801 1.269.801 2.121z"/></g></svg>