<?xml version="1.0" encoding="utf-8"?><svg baseProfile="tiny" xmlns="http://www.w3.org/2000/svg" width="350" height="266" viewBox="0 0 350 266"><path fill="#999" d="M16 0h318v200h-318z"/><path fill="#8E44AD" d="M26 9h298v178h-298z"/><path fill="#666" d="M350 254h-350l15.909-54h318.182z"/><path fill="#4D4D4D" d="M323.153 229h-296.306l7.292-29h281.722zM239.199 252h-128.399l2.802-14h123.294z"/><path fill="#999" d="M0 254h350v12h-350z"/><g fill="#ECF0F1"><path d="M116.635 87.384c-3.295 0-5.896 1.097-7.803 3.292s-2.861 5.199-2.861 9.013c0 3.924.919 6.956 2.758 9.095s4.46 3.209 7.865 3.209c2.092 0 4.478-.376 7.157-1.128v3.056c-2.078.779-4.642 1.169-7.69 1.169-4.416 0-7.824-1.34-10.223-4.02s-3.599-6.487-3.599-11.423c0-3.09.578-5.797 1.733-8.121s2.823-4.115 5.004-5.373 4.748-1.887 7.701-1.887c3.145 0 5.893.574 8.244 1.723l-1.477 2.994c-2.27-1.066-4.539-1.599-6.809-1.599zM149.181 103.421c0 3.664-.923 6.525-2.769 8.583s-4.396 3.086-7.649 3.086c-2.01 0-3.794-.472-5.353-1.415s-2.762-2.297-3.609-4.061-1.271-3.828-1.271-6.193c0-3.664.916-6.518 2.748-8.562s4.375-3.066 7.629-3.066c3.145 0 5.643 1.046 7.495 3.138s2.779 4.922 2.779 8.49zm-17.124 0c0 2.871.574 5.059 1.723 6.563s2.837 2.256 5.065 2.256 3.92-.749 5.076-2.246c1.154-1.497 1.732-3.688 1.732-6.573 0-2.857-.578-5.028-1.732-6.511-1.156-1.483-2.861-2.225-5.117-2.225-2.229 0-3.91.731-5.045 2.194s-1.702 3.643-1.702 6.542zM170.53 114.68v-14.54c0-1.832-.417-3.199-1.251-4.102s-2.14-1.354-3.917-1.354c-2.352 0-4.074.636-5.168 1.907s-1.641 3.37-1.641 6.296v11.792h-3.404v-22.476h2.769l.554 3.076h.164c.697-1.107 1.675-1.965 2.933-2.574s2.659-.913 4.204-.913c2.707 0 4.744.653 6.111 1.958s2.051 3.394 2.051 6.265v14.663h-3.405zM188.188 112.28c.602 0 1.182-.044 1.742-.133s1.006-.181 1.334-.277v2.604c-.369.178-.912.325-1.631.441-.717.116-1.363.174-1.938.174-4.348 0-6.521-2.29-6.521-6.87v-13.37h-3.221v-1.641l3.221-1.415 1.436-4.799h1.969v5.209h6.521v2.646h-6.521v13.228c0 1.354.32 2.393.963 3.117s1.524 1.086 2.646 1.086zM209.576 114.68l-.676-3.199h-.164c-1.121 1.408-2.24 2.362-3.354 2.861-1.115.499-2.506.749-4.174.749-2.229 0-3.975-.574-5.238-1.723-1.266-1.148-1.898-2.782-1.898-4.901 0-4.539 3.631-6.918 10.891-7.137l3.814-.123v-1.395c0-1.764-.379-3.066-1.139-3.907-.758-.841-1.973-1.261-3.641-1.261-1.873 0-3.992.574-6.357 1.723l-1.045-2.604c1.107-.602 2.32-1.073 3.641-1.415 1.318-.342 2.641-.513 3.967-.513 2.68 0 4.666.595 5.959 1.784 1.291 1.189 1.938 3.097 1.938 5.722v15.34h-2.524zm-7.689-2.4c2.119 0 3.783-.581 4.994-1.743 1.209-1.162 1.814-2.789 1.814-4.881v-2.03l-3.404.144c-2.707.096-4.66.516-5.855 1.261-1.197.745-1.795 1.904-1.795 3.476 0 1.23.373 2.167 1.119 2.81.744.642 1.787.963 3.127.963zM228.096 115.09c-3.254 0-5.773-1.001-7.557-3.004-1.785-2.003-2.678-4.836-2.678-8.5 0-3.76.906-6.665 2.719-8.716 1.811-2.051 4.391-3.076 7.74-3.076 1.08 0 2.16.116 3.24.349s1.928.506 2.543.82l-1.045 2.892c-.752-.301-1.572-.55-2.461-.749s-1.676-.297-2.359-.297c-4.566 0-6.85 2.912-6.85 8.736 0 2.762.557 4.881 1.672 6.357 1.113 1.477 2.766 2.215 4.953 2.215 1.873 0 3.793-.403 5.762-1.21v3.015c-1.504.778-3.396 1.168-5.679 1.168zM246.367 112.28c.602 0 1.184-.044 1.744-.133s1.004-.181 1.332-.277v2.604c-.369.178-.912.325-1.629.441-.719.116-1.365.174-1.939.174-4.348 0-6.521-2.29-6.521-6.87v-13.37h-3.219v-1.641l3.219-1.415 1.436-4.799h1.969v5.209h6.521v2.646h-6.521v13.228c0 1.354.322 2.393.965 3.117s1.522 1.086 2.643 1.086z"/></g></svg>