<?xml version="1.0" encoding="utf-8"?><svg baseProfile="tiny" xmlns="http://www.w3.org/2000/svg" width="100" height="206.809" viewBox="0 0 100 206.809"><path fill="#666" d="M99.905 9.615c-1.522-5-23.278-9.615-49.905-9.615-26.626 0-48.383 4.615-49.907 9.615h-.093v186h.093c-.056 0-.093.648-.093.852 0 5.641 22.386 10.342 50 10.342s50-4.763 50-10.404c0-.202-.036-.789-.095-.789h.095v-186h-.095zm-75.385-4.042c1.062 0 1.922.861 1.922 1.923s-.861 1.923-1.922 1.923c-1.063 0-1.923-.861-1.923-1.923s.86-1.923 1.923-1.923zm23.076 1.602c0-1.328 1.076-2.404 2.404-2.404s2.404 1.076 2.404 2.404c0 1.328-1.076 2.403-2.404 2.403s-2.404-1.075-2.404-2.403zm50.404 6.44v179h-96v-179h96zm-27 183.5c0 .828-.671 1.5-1.5 1.5h-41c-.829 0-1.5-.672-1.5-1.5s.671-1.5 1.5-1.5h41c.829 0 1.5.672 1.5 1.5z"/><path fill="#BDC3C7" d="M71 197.115c0-.828-.671-1.5-1.5-1.5h-41c-.829 0-1.5.672-1.5 1.5s.671 1.5 1.5 1.5h41c.829 0 1.5-.672 1.5-1.5z"/><circle fill="#BDC3C7" cx="24.52" cy="7.496" r="1.923"/><circle fill="#A9A9AA" cx="50" cy="7.175" r="2.404"/><path fill="#8E44AD" d="M2 13.615h96v179h-96z"/><g fill="#ECF0F1"><path d="M17.932 89.773c-1.811 0-3.24.603-4.288 1.808-1.048 1.206-1.572 2.856-1.572 4.953 0 2.156.505 3.822 1.515 4.997 1.01 1.176 2.451 1.764 4.321 1.764 1.149 0 2.46-.207 3.933-.62v1.679c-1.142.428-2.55.643-4.226.643-2.426 0-4.298-.736-5.617-2.209-1.318-1.472-1.978-3.564-1.978-6.276 0-1.698.317-3.185.952-4.462.634-1.277 1.551-2.261 2.749-2.952 1.198-.691 2.609-1.037 4.231-1.037 1.728 0 3.237.315 4.53.946l-.812 1.646c-1.245-.587-2.492-.88-3.738-.88zM35.813 98.585c0 2.013-.507 3.585-1.521 4.715-1.014 1.131-2.415 1.696-4.203 1.696-1.104 0-2.084-.259-2.941-.778-.856-.518-1.518-1.262-1.983-2.231-.466-.969-.699-2.103-.699-3.403 0-2.013.503-3.582 1.51-4.705s2.404-1.685 4.192-1.685c1.728 0 3.101.575 4.118 1.724 1.019 1.151 1.527 2.706 1.527 4.667zm-9.408 0c0 1.578.315 2.779.947 3.605.631.827 1.559 1.24 2.783 1.24s2.154-.411 2.789-1.234.952-2.026.952-3.611c0-1.57-.317-2.763-.952-3.578s-1.572-1.223-2.812-1.223c-1.224 0-2.148.402-2.772 1.206-.624.804-.935 2.002-.935 3.595zM47.544 104.771v-7.989c0-1.006-.229-1.758-.687-2.253-.458-.496-1.176-.744-2.152-.744-1.292 0-2.239.349-2.84 1.048s-.901 1.852-.901 3.459v6.479h-1.87v-12.35h1.521l.304 1.69h.09c.383-.608.92-1.08 1.611-1.414.691-.334 1.461-.501 2.31-.501 1.488 0 2.607.359 3.358 1.076.751.717 1.127 1.865 1.127 3.442v8.057h-1.871zM57.246 103.453c.331 0 .649-.024.958-.073s.552-.1.732-.152v1.431c-.203.098-.501.178-.896.242s-.75.096-1.065.096c-2.389 0-3.583-1.258-3.583-3.775v-7.347h-1.769v-.902l1.769-.777.789-2.637h1.082v2.862h3.583v1.454h-3.583v7.268c0 .744.177 1.315.53 1.713.352.398.836.597 1.453.597zM68.999 104.771l-.372-1.758h-.09c-.616.774-1.23 1.298-1.843 1.572-.612.274-1.377.412-2.293.412-1.225 0-2.185-.316-2.879-.947-.695-.631-1.042-1.528-1.042-2.693 0-2.494 1.995-3.801 5.984-3.921l2.096-.068v-.766c0-.969-.209-1.685-.626-2.146s-1.083-.693-2-.693c-1.029 0-2.193.315-3.493.946l-.574-1.431c.608-.331 1.274-.59 2-.778.725-.188 1.451-.282 2.181-.282 1.472 0 2.563.327 3.273.98.709.653 1.064 1.702 1.064 3.144v8.429h-1.386zm-4.226-1.318c1.164 0 2.079-.319 2.743-.958.665-.638.998-1.532.998-2.682v-1.115l-1.871.079c-1.487.053-2.56.284-3.217.693-.657.41-.986 1.046-.986 1.91 0 .676.205 1.19.614 1.543.409.353.983.53 1.719.53zM79.174 104.997c-1.788 0-3.172-.55-4.152-1.651-.981-1.101-1.471-2.657-1.471-4.671 0-2.065.497-3.662 1.494-4.789.995-1.127 2.413-1.69 4.254-1.69.593 0 1.187.064 1.78.191.593.128 1.059.278 1.396.451l-.575 1.589c-.413-.165-.864-.302-1.353-.411s-.92-.164-1.296-.164c-2.509 0-3.763 1.6-3.763 4.8 0 1.518.306 2.682.918 3.493.612.812 1.52 1.217 2.721 1.217 1.029 0 2.085-.221 3.167-.665v1.656c-.826.429-1.866.644-3.12.644zM89.213 103.453c.331 0 .65-.024.958-.073s.553-.1.732-.152v1.431c-.203.098-.501.178-.896.242s-.749.096-1.065.096c-2.389 0-3.583-1.258-3.583-3.775v-7.347h-1.769v-.902l1.769-.777.789-2.637h1.082v2.862h3.583v1.454h-3.583v7.268c0 .744.176 1.315.529 1.713.353.398.839.597 1.454.597z"/></g></svg>