<?xml version="1.0" encoding="utf-8"?><svg baseProfile="tiny" xmlns="http://www.w3.org/2000/svg" width="100" height="206.809" viewBox="0 0 100 206.809"><path fill="#666" d="M99.905 9.615c-1.522-5-23.278-9.615-49.905-9.615-26.626 0-48.383 4.615-49.907 9.615h-.093v186h.093c-.056 0-.093.648-.093.852 0 5.641 22.386 10.342 50 10.342s50-4.763 50-10.404c0-.202-.036-.789-.095-.789h.095v-186h-.095zm-75.385-4.042c1.062 0 1.922.861 1.922 1.923s-.861 1.923-1.922 1.923c-1.063 0-1.923-.861-1.923-1.923s.86-1.923 1.923-1.923zm23.076 1.602c0-1.328 1.076-2.404 2.404-2.404s2.404 1.076 2.404 2.404c0 1.328-1.076 2.403-2.404 2.403s-2.404-1.075-2.404-2.403zm50.404 6.44v179h-96v-179h96zm-27 183.5c0 .828-.671 1.5-1.5 1.5h-41c-.829 0-1.5-.672-1.5-1.5s.671-1.5 1.5-1.5h41c.829 0 1.5.672 1.5 1.5z"/><path fill="#BDC3C7" d="M71 197.115c0-.828-.671-1.5-1.5-1.5h-41c-.829 0-1.5.672-1.5 1.5s.671 1.5 1.5 1.5h41c.829 0 1.5-.672 1.5-1.5z"/><circle fill="#BDC3C7" cx="24.52" cy="7.496" r="1.923"/><circle fill="#A9A9AA" cx="50" cy="7.175" r="2.404"/><path fill="#F1C40F" d="M2 13.615h96v179h-96z"/><g fill="#ECF0F1"><path d="M27.323 96.376c0 2.719-.738 4.798-2.214 6.237s-3.6 2.158-6.372 2.158h-4.564v-16.474h5.048c2.562 0 4.552.709 5.972 2.129 1.42 1.421 2.13 3.404 2.13 5.95zm-2.028.068c0-2.148-.539-3.767-1.617-4.856-1.078-1.089-2.68-1.634-4.806-1.634h-2.783v13.161h2.332c2.284 0 4-.562 5.15-1.685 1.149-1.123 1.724-2.785 1.724-4.986zM35.932 104.997c-1.825 0-3.266-.556-4.321-1.668-1.056-1.112-1.583-2.655-1.583-4.631 0-1.991.49-3.572 1.47-4.744.98-1.172 2.297-1.758 3.95-1.758 1.547 0 2.772.509 3.673 1.527.901 1.018 1.352 2.361 1.352 4.028v1.183h-8.507c.038 1.45.404 2.55 1.099 3.302.695.751 1.673 1.126 2.936 1.126 1.33 0 2.644-.278 3.944-.833v1.667c-.661.286-1.287.49-1.876.614s-1.303.187-2.137.187zm-.507-11.235c-.992 0-1.782.323-2.372.969-.59.646-.937 1.54-1.042 2.682h6.457c0-1.179-.263-2.083-.789-2.71s-1.278-.941-2.254-.941zM59.403 104.771v-8.034c0-.984-.21-1.722-.631-2.214-.421-.492-1.075-.738-1.961-.738-1.165 0-2.024.334-2.58 1.003-.556.668-.834 1.698-.834 3.087v6.896h-1.871v-8.034c0-.984-.21-1.722-.631-2.214-.421-.492-1.078-.738-1.972-.738-1.172 0-2.03.351-2.575 1.054-.544.702-.817 1.854-.817 3.454v6.479h-1.87v-12.35h1.521l.304 1.69h.09c.353-.601.851-1.07 1.493-1.408.643-.338 1.362-.507 2.158-.507 1.93 0 3.192.699 3.786 2.096h.09c.368-.646.901-1.157 1.6-1.532s1.495-.563 2.389-.563c1.397 0 2.443.359 3.138 1.076s1.042 1.865 1.042 3.442v8.057h-1.869zM75.788 98.585c0 2.013-.508 3.585-1.522 4.715-1.014 1.131-2.415 1.696-4.203 1.696-1.104 0-2.084-.259-2.94-.778-.856-.518-1.518-1.262-1.983-2.231s-.699-2.103-.699-3.403c0-2.013.503-3.582 1.51-4.705 1.006-1.123 2.403-1.685 4.191-1.685 1.728 0 3.101.575 4.118 1.724 1.018 1.151 1.528 2.706 1.528 4.667zm-9.41 0c0 1.578.315 2.779.946 3.605.631.827 1.559 1.24 2.783 1.24s2.154-.411 2.789-1.234.952-2.026.952-3.611c0-1.57-.317-2.763-.952-3.578s-1.572-1.223-2.812-1.223c-1.225 0-2.148.402-2.771 1.206-.623.804-.935 2.002-.935 3.595zM87.032 101.402c0 1.149-.428 2.036-1.284 2.659s-2.059.936-3.605.936c-1.638 0-2.915-.259-3.831-.778v-1.735c.593.301 1.229.538 1.909.71.681.173 1.336.259 1.967.259.977 0 1.728-.156 2.254-.468.525-.312.788-.787.788-1.425 0-.48-.208-.892-.625-1.234s-1.23-.746-2.439-1.211c-1.149-.428-1.967-.802-2.451-1.121-.484-.319-.845-.682-1.081-1.087-.237-.405-.355-.89-.355-1.454 0-1.006.409-1.801 1.229-2.383.818-.582 1.941-.874 3.369-.874 1.329 0 2.629.271 3.898.812l-.665 1.521c-1.239-.511-2.362-.766-3.369-.766-.886 0-1.555.139-2.006.417-.45.278-.676.661-.676 1.149 0 .331.085.612.254.845.169.233.441.455.816.665.376.21 1.097.515 2.164.913 1.465.534 2.454 1.07 2.969 1.611s.77 1.22.77 2.039z"/></g></svg>