<?xml version="1.0" encoding="utf-8"?><svg baseProfile="tiny" xmlns="http://www.w3.org/2000/svg" width="350" height="266" viewBox="0 0 350 266"><path fill="#999" d="M16 0h318v200h-318z"/><path fill="#2980B9" d="M26 9h298v178h-298z"/><path fill="#666" d="M350 254h-350l15.909-54h318.182z"/><path fill="#4D4D4D" d="M323.153 229h-296.306l7.292-29h281.722zM239.199 252h-128.399l2.802-14h123.294z"/><path fill="#999" d="M0 254h350v12h-350z"/><g fill="#ECF0F1"><path d="M143.746 99.401c0 4.949-1.343 8.733-4.03 11.351s-6.552 3.927-11.597 3.927h-8.306v-29.982h9.187c4.662 0 8.285 1.292 10.869 3.876s3.877 6.194 3.877 10.828zm-3.692.123c0-3.91-.981-6.856-2.943-8.839s-4.877-2.974-8.747-2.974h-5.065v23.953h4.245c4.156 0 7.28-1.022 9.372-3.066s3.138-5.068 3.138-9.074zM159.414 115.09c-3.322 0-5.944-1.012-7.865-3.035s-2.881-4.833-2.881-8.429c0-3.623.892-6.501 2.676-8.634s4.18-3.199 7.188-3.199c2.816 0 5.045.926 6.686 2.779s2.461 4.296 2.461 7.332v2.153h-15.483c.068 2.639.735 4.642 2 6.009s3.045 2.051 5.342 2.051c2.42 0 4.813-.506 7.178-1.518v3.035c-1.203.52-2.342.892-3.414 1.118-1.076.225-2.371.338-3.888.338zm-.923-20.446c-1.805 0-3.244.588-4.317 1.764s-1.706 2.803-1.897 4.881h11.751c0-2.146-.479-3.791-1.436-4.932s-2.324-1.713-4.101-1.713zM202.131 114.68v-14.622c0-1.791-.383-3.134-1.148-4.03s-1.955-1.343-3.568-1.343c-2.119 0-3.684.608-4.695 1.825s-1.518 3.09-1.518 5.619v12.551h-3.404v-14.622c0-1.791-.383-3.134-1.148-4.03s-1.963-1.343-3.59-1.343c-2.133 0-3.695.639-4.686 1.917-.992 1.278-1.486 3.374-1.486 6.286v11.792h-3.405v-22.477h2.768l.555 3.076h.164c.643-1.094 1.549-1.948 2.717-2.563 1.17-.615 2.479-.923 3.928-.923 3.514 0 5.811 1.271 6.891 3.814h.164c.67-1.176 1.641-2.105 2.912-2.789s2.721-1.025 4.348-1.025c2.543 0 4.445.653 5.711 1.958 1.264 1.306 1.896 3.394 1.896 6.265v14.663h-3.406zM231.949 103.421c0 3.664-.922 6.525-2.768 8.583s-4.396 3.086-7.65 3.086c-2.01 0-3.793-.472-5.352-1.415s-2.762-2.297-3.609-4.061-1.271-3.828-1.271-6.193c0-3.664.916-6.518 2.748-8.562s4.375-3.066 7.629-3.066c3.145 0 5.643 1.046 7.496 3.138 1.851 2.091 2.777 4.922 2.777 8.49zm-17.123 0c0 2.871.574 5.059 1.723 6.563s2.836 2.256 5.064 2.256 3.92-.749 5.076-2.246c1.154-1.497 1.732-3.688 1.732-6.573 0-2.857-.578-5.028-1.732-6.511-1.156-1.483-2.861-2.225-5.117-2.225-2.229 0-3.91.731-5.045 2.194s-1.701 3.643-1.701 6.542z"/></g></svg>