<?xml version="1.0" encoding="utf-8"?><svg xmlns="http://www.w3.org/2000/svg" width="193.481" height="40.605" viewBox="0 0 193.481 40.605"><path fill="#34495E" d="M14.537 7.453c-2.824 0-5.054.94-6.688 2.821s-2.453 4.456-2.453 7.726c0 3.363.788 5.962 2.364 7.796s3.823 2.751 6.741 2.751c1.793 0 3.838-.322 6.135-.967v2.619c-1.781.668-3.979 1.002-6.592 1.002-3.785 0-6.706-1.148-8.763-3.445s-3.085-5.561-3.085-9.791c0-2.648.495-4.969 1.485-6.961s2.42-3.527 4.289-4.605 4.069-1.617 6.601-1.617c2.695 0 5.051.492 7.066 1.477l-1.266 2.566c-1.943-.915-3.889-1.372-5.834-1.372zM42.434 21.199c0 3.141-.791 5.593-2.373 7.356s-3.768 2.646-6.557 2.646c-1.723 0-3.252-.404-4.588-1.213s-2.367-1.969-3.094-3.48-1.09-3.281-1.09-5.309c0-3.141.785-5.587 2.355-7.339s3.75-2.628 6.539-2.628c2.695 0 4.837.896 6.425 2.689s2.383 4.22 2.383 7.278zm-14.678 0c0 2.461.492 4.336 1.477 5.625s2.432 1.934 4.342 1.934 3.36-.642 4.351-1.925 1.485-3.161 1.485-5.634c0-2.449-.495-4.31-1.485-5.581s-2.452-1.907-4.386-1.907c-1.91 0-3.352.627-4.324 1.881s-1.46 3.123-1.46 5.607zM56.338 11.232c.855 0 1.623.07 2.303.211l-.404 2.707c-.797-.176-1.5-.264-2.109-.264-1.559 0-2.892.633-3.999 1.898s-1.661 2.842-1.661 4.729v10.337h-2.918v-19.266h2.408l.334 3.568h.141c.715-1.254 1.576-2.221 2.584-2.9s2.114-1.02 3.321-1.02zM59.186 11.584h3.129l4.219 10.986c.926 2.508 1.5 4.318 1.723 5.432h.141c.152-.598.472-1.62.958-3.067s2.077-5.897 4.772-13.351h3.128l-8.279 21.938c-.82 2.168-1.778 3.706-2.874 4.614s-2.44 1.362-4.034 1.362c-.891 0-1.77-.1-2.637-.299v-2.338c.645.141 1.365.211 2.162.211 2.004 0 3.434-1.125 4.289-3.375l1.072-2.742-7.769-19.371z"/><path fill="#2980B9" d="M101.337 17.754c0 4.242-1.15 7.485-3.453 9.729-2.303 2.244-5.617 3.366-9.941 3.366h-7.119v-25.699h7.875c3.996 0 7.102 1.107 9.316 3.322 2.214 2.216 3.322 5.309 3.322 9.282zm-3.164.105c0-3.352-.84-5.877-2.522-7.576s-4.181-2.549-7.497-2.549h-4.342v20.531h3.639c3.563 0 6.24-.876 8.033-2.628s2.689-4.344 2.689-7.778zM123.257 21.199c0 3.141-.791 5.593-2.373 7.356s-3.768 2.646-6.557 2.646c-1.723 0-3.252-.404-4.588-1.213s-2.367-1.969-3.094-3.48-1.09-3.281-1.09-5.309c0-3.141.785-5.587 2.355-7.339s3.75-2.628 6.539-2.628c2.695 0 4.838.896 6.426 2.689s2.382 4.22 2.382 7.278zm-14.678 0c0 2.461.492 4.336 1.477 5.625s2.432 1.934 4.342 1.934 3.361-.642 4.352-1.925 1.484-3.161 1.484-5.634c0-2.449-.494-4.31-1.484-5.581s-2.453-1.907-4.387-1.907c-1.91 0-3.352.627-4.324 1.881s-1.46 3.123-1.46 5.607zM144.104 30.85l-3.533-11.303c-.223-.691-.639-2.262-1.248-4.711h-.141c-.469 2.051-.879 3.633-1.23 4.746l-3.639 11.268h-3.375l-5.256-19.266h3.059c1.242 4.84 2.189 8.525 2.84 11.057s1.021 4.236 1.115 5.115h.141c.129-.668.338-1.532.625-2.593s.535-1.901.746-2.522l3.533-11.057h3.164l3.445 11.057c.656 2.016 1.102 3.709 1.336 5.08h.141c.047-.422.174-1.072.379-1.951s1.426-5.607 3.664-14.186h3.023l-5.326 19.266h-3.463zM169.487 28.266h-.158c-1.348 1.957-3.363 2.936-6.047 2.936-2.52 0-4.479-.861-5.879-2.584s-2.102-4.172-2.102-7.348.703-5.643 2.109-7.4 3.363-2.637 5.871-2.637c2.613 0 4.617.949 6.012 2.848h.229l-.123-1.389-.07-1.354v-7.84h2.918v27.352h-2.373l-.387-2.584zm-5.836.492c1.992 0 3.438-.542 4.334-1.626s1.344-2.833 1.344-5.247v-.615c0-2.73-.453-4.679-1.361-5.845s-2.359-1.749-4.352-1.749c-1.711 0-3.02.665-3.928 1.995s-1.363 3.208-1.363 5.634c0 2.461.451 4.318 1.354 5.572s2.226 1.881 3.972 1.881zM175.376 11.584h3.129l4.219 10.986c.926 2.508 1.5 4.318 1.723 5.432h.141c.152-.598.473-1.62.959-3.067s2.076-5.897 4.771-13.351h3.129l-8.279 21.938c-.82 2.168-1.777 3.706-2.873 4.614s-2.441 1.362-4.035 1.362c-.891 0-1.77-.1-2.637-.299v-2.338c.645.141 1.365.211 2.162.211 2.004 0 3.434-1.125 4.289-3.375l1.072-2.742-7.77-19.371z"/></svg>