<?xml version="1.0" encoding="utf-8"?>
<!-- Generator: Adobe Illustrator 15.1.0, SVG Export Plug-In . SVG Version: 6.00 Build 0)  -->
<!DOCTYPE svg PUBLIC "-//W3C//DTD SVG 1.1//EN" "http://www.w3.org/Graphics/SVG/1.1/DTD/svg11.dtd">
<svg version="1.1" id="Layer_1" xmlns="http://www.w3.org/2000/svg" xmlns:xlink="http://www.w3.org/1999/xlink" x="0px" y="0px"
	 width="286px" height="368.935px" viewBox="0 0 286 368.935" enable-background="new 0 0 286 368.935" xml:space="preserve">
<path fill="#FFFFFF" stroke="#000000" stroke-width="6" stroke-miterlimit="10" d="M273,3H13C7.477,3,3,7.477,3,13v340
	c0,5.522,4.477,10,10,10h260c5.522,0,10-4.478,10-10V13C283,7.477,278.522,3,273,3z"/>
<g>
	<path d="M77.898,64.747c0,4.74-1.471,8.925-4.41,12.555c-2.94,3.631-6.99,5.445-12.15,5.445c-4.74,0-8.745-1.845-12.015-5.535
		c-3.271-3.69-4.905-8.114-4.905-13.275h8.28c0,3.181,0.794,5.701,2.385,7.56c1.589,1.86,3.614,2.79,6.075,2.79
		c2.279,0,4.259-0.914,5.94-2.745c1.679-1.83,2.489-3.974,2.43-6.435c-0.06-1.98-0.796-4.064-2.205-6.255
		c-1.411-2.189-4.005-4.484-7.785-6.885c-4.32-2.759-7.47-5.504-9.45-8.235c-1.98-2.729-2.97-5.294-2.97-7.695
		c-0.061-4.32,1.319-7.995,4.14-11.025c2.82-3.029,6.42-4.575,10.8-4.635c4.62,0,8.415,1.516,11.385,4.545
		c2.97,3.031,4.455,6.705,4.455,11.025h-8.82c0.059-2.34-0.675-4.169-2.205-5.49c-1.53-1.319-3.136-1.919-4.815-1.8
		c-1.98,0.121-3.51,0.855-4.59,2.205c-1.08,1.35-1.591,2.986-1.53,4.905c0.059,1.26,0.599,2.49,1.62,3.69
		c1.02,1.201,3.24,3.001,6.66,5.4c4.799,3.24,8.264,6.421,10.395,9.54C76.742,57.518,77.837,60.967,77.898,64.747z"/>
	<path d="M103.097,53.317h-8.28v28.35h-8.64v-60.3h18c4.739,0,8.564,1.471,11.475,4.41c2.91,2.94,4.365,6.84,4.365,11.7
		c-0.061,4.32-1.485,8.041-4.275,11.16C112.952,51.757,108.736,53.317,103.097,53.317z M111.557,37.207c0-2.28-0.72-4.08-2.16-5.4
		c-1.44-1.319-3.33-1.98-5.67-1.98h-8.91v14.85h8.91c2.16,0,4.005-0.72,5.535-2.16C110.792,41.077,111.557,39.308,111.557,37.207z"
		/>
	<path d="M160.246,81.667h-30.69v-60.3h28.351v8.46h-19.71v15.21h12.509v8.28h-12.509v19.89h22.05V81.667z"/>
	<path d="M201.195,81.667h-30.69v-60.3h28.351v8.46h-19.711v15.21h12.51v8.28h-12.51v19.89h22.051V81.667z"/>
	<path d="M243.674,51.517c0,9.72-1.574,17.176-4.725,22.365c-3.15,5.19-7.816,7.785-13.996,7.785h-14.939v-60.3h14.939
		c6.18,0,10.846,2.596,13.996,7.785C242.1,34.342,243.674,41.797,243.674,51.517z M235.305,51.337
		c0-7.619-0.977-13.125-2.926-16.515c-1.951-3.389-4.545-5.085-7.785-5.085h-6.21v21.69v21.69h6.21c3.24,0,5.834-1.695,7.785-5.085
		C234.328,64.643,235.305,59.077,235.305,51.337z"/>
</g>
<g>
	<path d="M134.777,288.96c-0.118,12.368-4.26,22.05-12.425,29.05c-8.167,7-19.775,10.5-34.825,10.5
		c-14.35,0-25.813-3.587-34.388-10.762c-8.575-7.176-12.862-16.771-12.862-28.788c0.115-12.95,4.665-22.165,13.65-27.649
		c-6.65-5.482-9.975-12.833-9.975-22.051c0-9.682,4.025-17.439,12.075-23.274c8.05-5.833,18.55-8.75,31.5-8.75
		c13.182,0,23.74,2.917,31.675,8.75c7.933,5.835,11.9,13.593,11.9,23.274c0.232,9.101-3.035,16.336-9.8,21.7
		C130.052,266.445,134.542,275.777,134.777,288.96z M113.952,289.485c0.115-11.9-8.692-17.965-26.425-18.2
		c-17.385,0.117-26.135,6.186-26.25,18.2c0,12.25,8.807,18.667,26.425,19.25C104.735,308.385,113.485,301.971,113.952,289.485z
		 M110.102,238.385c0-7.932-7.585-12.015-22.75-12.25c-14.935,0.235-22.4,4.318-22.4,12.25c0,8.168,7.583,12.368,22.75,12.601
		C102.635,250.753,110.102,246.553,110.102,238.385z"/>
	<path d="M245.725,288.96c-0.117,12.368-4.26,22.05-12.424,29.05c-8.168,7-19.775,10.5-34.826,10.5
		c-14.35,0-25.813-3.587-34.387-10.762c-8.575-7.176-12.863-16.771-12.863-28.788c0.115-12.95,4.665-22.165,13.65-27.649
		c-6.65-5.482-9.975-12.833-9.975-22.051c0-9.682,4.024-17.439,12.074-23.274c8.051-5.833,18.551-8.75,31.5-8.75
		c13.183,0,23.74,2.917,31.676,8.75c7.932,5.835,11.9,13.593,11.9,23.274c0.232,9.101-3.035,16.336-9.801,21.7
		C241,266.445,245.49,275.777,245.725,288.96z M224.9,289.485c0.114-11.9-8.693-17.965-26.426-18.2
		c-17.385,0.117-26.135,6.186-26.25,18.2c0,12.25,8.808,18.667,26.426,19.25C215.683,308.385,224.433,301.971,224.9,289.485z
		 M221.05,238.385c0-7.932-7.585-12.015-22.75-12.25c-14.935,0.235-22.399,4.318-22.399,12.25c0,8.168,7.582,12.368,22.75,12.601
		C213.582,250.753,221.05,246.553,221.05,238.385z"/>
</g>
<g>
	<path d="M94.097,163.59h-30.69v-60.3h8.64v51.84h22.05V163.59z"/>
	<path d="M114.436,163.59h-8.46v-60.3h8.46V163.59z"/>
	<path d="M166.186,163.59h-8.73v-33.84l-11.16,33.84l-11.25-33.84v33.84h-8.64v-60.3h8.64l11.25,33.84l11.16-33.84h8.73V163.59z"/>
	<path d="M186.435,163.59h-8.46v-60.3h8.46V163.59z"/>
	<path d="M226.844,111.39h-10.98v52.2h-8.729v-52.2h-10.979v-8.1h30.689V111.39z"/>
</g>
</svg>
