<?xml version="1.0" encoding="utf-8"?>
<!-- Generator: Adobe Illustrator 15.1.0, SVG Export Plug-In . SVG Version: 6.00 Build 0)  -->
<!DOCTYPE svg PUBLIC "-//W3C//DTD SVG 1.1//EN" "http://www.w3.org/Graphics/SVG/1.1/DTD/svg11.dtd">
<svg version="1.1" id="Layer_1" xmlns="http://www.w3.org/2000/svg" xmlns:xlink="http://www.w3.org/1999/xlink" x="0px" y="0px"
	 width="200px" height="42.047px" viewBox="0 0 200 42.047" enable-background="new 0 0 200 42.047" xml:space="preserve">
<g>
	<g>
		<path fill="#2980B9" d="M13.968,9.196c-2.024,0-3.592,0.761-4.702,2.282C8.155,12.999,7.6,15.119,7.6,17.837
			c0,5.656,2.123,8.484,6.368,8.484c1.781,0,3.938-0.445,6.472-1.336v4.512c-2.082,0.867-4.407,1.301-6.975,1.301
			c-3.69,0-6.513-1.119-8.468-3.357s-2.933-5.45-2.933-9.638c0-2.638,0.48-4.948,1.44-6.932s2.34-3.505,4.139-4.563
			c1.798-1.059,3.906-1.588,6.324-1.588c2.464,0,4.939,0.596,7.426,1.787l-1.734,4.373c-0.949-0.451-1.903-0.844-2.863-1.18
			S14.893,9.196,13.968,9.196z"/>
		<path fill="#2980B9" d="M43.049,20.717c0,3.158-0.833,5.628-2.499,7.409s-3.985,2.672-6.958,2.672
			c-1.862,0-3.505-0.407-4.928-1.223s-2.516-1.987-3.279-3.514c-0.763-1.527-1.145-3.309-1.145-5.345
			c0-3.169,0.826-5.633,2.48-7.391s3.979-2.638,6.976-2.638c1.862,0,3.505,0.405,4.928,1.215s2.516,1.972,3.279,3.487
			C42.667,16.906,43.049,18.682,43.049,20.717z M29.636,20.717c0,1.921,0.315,3.372,0.946,4.355c0.63,0.983,1.656,1.475,3.079,1.475
			c1.411,0,2.427-0.488,3.046-1.466c0.618-0.978,0.928-2.432,0.928-4.364c0-1.92-0.313-3.36-0.937-4.32
			c-0.625-0.96-1.648-1.44-3.071-1.44c-1.411,0-2.43,0.477-3.054,1.432C29.948,17.342,29.636,18.785,29.636,20.717z"/>
		<path fill="#2980B9" d="M58.248,10.688c0.717,0,1.313,0.052,1.787,0.156l-0.399,4.962c-0.428-0.115-0.948-0.173-1.562-0.173
			c-1.688,0-3.005,0.434-3.947,1.301c-0.943,0.868-1.414,2.082-1.414,3.644v9.873h-5.292V11.053h4.008l0.781,3.262h0.26
			c0.602-1.087,1.414-1.963,2.438-2.628C55.932,11.021,57.045,10.688,58.248,10.688z"/>
		<path fill="#2980B9" d="M60.781,11.053h5.795l3.661,10.914c0.313,0.948,0.526,2.07,0.643,3.366h0.104
			c0.128-1.191,0.376-2.313,0.746-3.366l3.592-10.914h5.674l-8.207,21.88c-0.752,2.023-1.824,3.539-3.219,4.546
			c-1.394,1.006-3.021,1.51-4.884,1.51c-0.914,0-1.811-0.099-2.689-0.295v-4.199c0.636,0.15,1.33,0.226,2.082,0.226
			c0.937,0,1.755-0.286,2.455-0.859c0.699-0.572,1.246-1.438,1.64-2.594l0.313-0.954L60.781,11.053z"/>
	</g>
	<g>
		<path fill="#2C3E50" d="M102.812,18.709c0,4.176-1.188,7.374-3.565,9.596c-2.377,2.221-5.81,3.331-10.298,3.331h-7.184V6.269
			h7.965c4.141,0,7.356,1.093,9.646,3.279C101.667,11.734,102.812,14.788,102.812,18.709z M97.225,18.848
			c0-5.448-2.406-8.172-7.218-8.172h-2.863v16.518h2.308C94.634,27.193,97.225,24.412,97.225,18.848z"/>
		<path fill="#2C3E50" d="M125.282,21.901c0,3.158-0.833,5.628-2.499,7.409s-3.985,2.672-6.958,2.672
			c-1.862,0-3.505-0.407-4.928-1.223s-2.516-1.987-3.279-3.514c-0.763-1.527-1.145-3.309-1.145-5.345
			c0-3.169,0.826-5.633,2.48-7.391s3.979-2.638,6.976-2.638c1.862,0,3.505,0.405,4.928,1.215s2.516,1.972,3.279,3.487
			C124.9,18.091,125.282,19.866,125.282,21.901z M111.869,21.901c0,1.921,0.315,3.372,0.946,4.355
			c0.63,0.983,1.656,1.475,3.079,1.475c1.411,0,2.427-0.488,3.046-1.466c0.618-0.978,0.928-2.432,0.928-4.364
			c0-1.92-0.313-3.359-0.937-4.32c-0.625-0.96-1.648-1.44-3.071-1.44c-1.411,0-2.43,0.477-3.054,1.432
			C112.182,18.527,111.869,19.97,111.869,21.901z"/>
		<path fill="#2C3E50" d="M145.6,31.636l-1.492-6.784l-2.013-8.572h-0.121l-3.54,15.356h-5.691l-5.518-19.398h5.275l2.238,8.589
			c0.358,1.538,0.723,3.661,1.093,6.367h0.104c0.046-0.879,0.248-2.272,0.607-4.181l0.277-1.476l2.395-9.3h5.83l2.272,9.3
			c0.046,0.255,0.119,0.631,0.217,1.128c0.099,0.498,0.194,1.026,0.286,1.588c0.093,0.562,0.177,1.11,0.252,1.648
			s0.118,0.969,0.13,1.292h0.104c0.104-0.832,0.289-1.975,0.556-3.427c0.266-1.451,0.456-2.432,0.572-2.94l2.325-8.589h5.188
			l-5.587,19.398H145.6z"/>
		<path fill="#2C3E50" d="M166.214,31.982c-2.279,0-4.069-0.885-5.371-2.654c-1.301-1.77-1.951-4.222-1.951-7.357
			c0-3.181,0.662-5.659,1.986-7.435c1.324-1.775,3.149-2.664,5.475-2.664c2.44,0,4.303,0.949,5.587,2.846h0.174
			c-0.267-1.446-0.399-2.735-0.399-3.869V4.637h5.31v26.999h-4.061l-1.023-2.516h-0.226
			C170.511,31.028,168.678,31.982,166.214,31.982z M168.07,27.767c1.354,0,2.345-0.394,2.976-1.18
			c0.63-0.787,0.975-2.123,1.032-4.009v-0.572c0-2.082-0.321-3.574-0.963-4.477c-0.643-0.902-1.687-1.354-3.132-1.354
			c-1.18,0-2.097,0.5-2.75,1.501c-0.654,1.001-0.98,2.455-0.98,4.364c0,1.908,0.329,3.34,0.989,4.294
			C165.901,27.289,166.844,27.767,168.07,27.767z"/>
		<path fill="#2C3E50" d="M179.781,12.237h5.795l3.661,10.914c0.313,0.948,0.526,2.07,0.643,3.366h0.104
			c0.128-1.191,0.376-2.313,0.746-3.366l3.592-10.914h5.674l-8.207,21.88c-0.752,2.023-1.824,3.539-3.219,4.546
			c-1.394,1.006-3.021,1.51-4.884,1.51c-0.914,0-1.811-0.099-2.689-0.295v-4.199c0.636,0.15,1.33,0.226,2.082,0.226
			c0.937,0,1.755-0.286,2.455-0.859c0.699-0.572,1.246-1.438,1.64-2.594l0.313-0.954L179.781,12.237z"/>
	</g>
</g>
</svg>
