<?xml version="1.0" encoding="utf-8"?>
<!-- Generator: Adobe Illustrator 15.1.0, SVG Export Plug-In . SVG Version: 6.00 Build 0)  -->
<!DOCTYPE svg PUBLIC "-//W3C//DTD SVG 1.1 Tiny//EN" "http://www.w3.org/Graphics/SVG/1.1/DTD/svg11-tiny.dtd">
<svg version="1.1" baseProfile="tiny" id="Layer_1" xmlns="http://www.w3.org/2000/svg" xmlns:xlink="http://www.w3.org/1999/xlink"
	 x="0px" y="0px" width="350px" height="266px" viewBox="0 0 350 266" xml:space="preserve">
<rect x="16" fill="#999999" width="318" height="200"/>
<rect x="26" y="9" fill="#2980B9" width="298" height="178"/>
<polygon fill="#666666" points="350,254 0,254 15.909,200 334.091,200 "/>
<polygon fill="#4D4D4D" points="323.153,229 26.847,229 34.139,200 315.861,200 "/>
<polygon fill="#4D4D4D" points="239.199,252 110.8,252 113.602,238 236.896,238 "/>
<rect y="254" fill="#999999" width="350" height="12"/>
<g>
	<path fill="#ECF0F1" d="M136.014,84.697h8.47c3.979,0,6.856,0.595,8.634,1.784s2.666,3.069,2.666,5.64
		c0,1.777-0.496,3.244-1.487,4.399s-2.437,1.904-4.337,2.246v0.205c4.553,0.779,6.829,3.172,6.829,7.178
		c0,2.68-0.906,4.771-2.717,6.275s-4.344,2.256-7.598,2.256h-10.459V84.697z M139.5,97.535h5.742c2.461,0,4.231-0.386,5.312-1.159
		s1.62-2.075,1.62-3.907c0-1.682-0.602-2.895-1.805-3.64s-3.117-1.118-5.742-1.118H139.5V97.535z M139.5,100.488v11.218h6.255
		c2.42,0,4.242-0.468,5.465-1.405s1.835-2.403,1.835-4.399c0-1.859-0.625-3.227-1.876-4.102s-3.155-1.313-5.711-1.313H139.5z"/>
	<path fill="#ECF0F1" d="M166.12,114.68h-3.404V82.77h3.404V114.68z"/>
	<path fill="#ECF0F1" d="M192.738,103.421c0,3.664-0.922,6.525-2.768,8.583s-4.396,3.086-7.65,3.086
		c-2.01,0-3.793-0.472-5.352-1.415s-2.762-2.297-3.61-4.061s-1.271-3.828-1.271-6.193c0-3.664,0.916-6.518,2.748-8.562
		c1.833-2.044,4.375-3.066,7.629-3.066c3.145,0,5.643,1.046,7.496,3.138C191.813,97.022,192.738,99.853,192.738,103.421z
		 M175.615,103.421c0,2.871,0.574,5.059,1.723,6.563s2.836,2.256,5.064,2.256s3.92-0.749,5.076-2.246
		c1.154-1.497,1.732-3.688,1.732-6.573c0-2.857-0.578-5.028-1.732-6.511c-1.156-1.483-2.861-2.225-5.117-2.225
		c-2.229,0-3.91,0.731-5.045,2.194S175.615,100.522,175.615,103.421z"/>
	<path fill="#ECF0F1" d="M217.102,92.203v2.153l-4.162,0.492c0.383,0.479,0.725,1.104,1.025,1.876s0.451,1.644,0.451,2.615
		c0,2.201-0.752,3.958-2.256,5.271s-3.568,1.969-6.193,1.969c-0.67,0-1.299-0.055-1.887-0.164c-1.449,0.766-2.174,1.729-2.174,2.892
		c0,0.615,0.252,1.07,0.758,1.364s1.375,0.441,2.605,0.441h3.979c2.434,0,4.303,0.513,5.609,1.538
		c1.305,1.025,1.957,2.516,1.957,4.471c0,2.488-0.998,4.385-2.994,5.691s-4.908,1.958-8.736,1.958c-2.939,0-5.205-0.547-6.797-1.641
		c-1.594-1.094-2.391-2.639-2.391-4.635c0-1.367,0.438-2.55,1.313-3.548s2.105-1.675,3.691-2.03c-0.574-0.26-1.055-0.663-1.445-1.21
		c-0.389-0.547-0.584-1.183-0.584-1.907c0-0.82,0.219-1.538,0.656-2.153s1.127-1.21,2.07-1.784c-1.162-0.479-2.109-1.292-2.84-2.44
		c-0.732-1.148-1.098-2.461-1.098-3.938c0-2.461,0.738-4.358,2.215-5.691s3.568-2,6.275-2c1.176,0,2.236,0.137,3.18,0.41H217.102z
		 M199.178,118.453c0,1.217,0.514,2.14,1.539,2.769s2.494,0.943,4.408,0.943c2.857,0,4.975-0.427,6.348-1.282
		c1.375-0.854,2.061-2.013,2.061-3.476c0-1.217-0.375-2.061-1.127-2.533s-2.168-0.708-4.246-0.708h-4.08
		c-1.545,0-2.748,0.369-3.609,1.107S199.178,117.072,199.178,118.453z M201.023,99.401c0,1.572,0.445,2.762,1.334,3.568
		s2.125,1.21,3.711,1.21c3.322,0,4.984-1.613,4.984-4.84c0-3.377-1.682-5.065-5.045-5.065c-1.6,0-2.83,0.431-3.691,1.292
		S201.023,97.706,201.023,99.401z"/>
</g>
<g>
</g>
</svg>
