<?xml version="1.0" encoding="utf-8"?>
<!-- Generator: Adobe Illustrator 15.1.0, SVG Export Plug-In . SVG Version: 6.00 Build 0)  -->
<!DOCTYPE svg PUBLIC "-//W3C//DTD SVG 1.1 Tiny//EN" "http://www.w3.org/Graphics/SVG/1.1/DTD/svg11-tiny.dtd">
<svg version="1.1" baseProfile="tiny" id="Layer_1" xmlns="http://www.w3.org/2000/svg" xmlns:xlink="http://www.w3.org/1999/xlink"
	 x="0px" y="0px" width="100px" height="206.809px" viewBox="0 0 100 206.809" xml:space="preserve">
<path fill="#666666" d="M99.905,9.615C98.383,4.615,76.627,0,50,0C23.374,0,1.617,4.615,0.093,9.615H0v186h0.093
	c-0.056,0-0.093,0.648-0.093,0.852c0,5.641,22.386,10.342,50,10.342c27.614,0,50-4.763,50-10.404c0-0.202-0.036-0.789-0.095-0.789
	H100v-186H99.905z M24.52,5.573c1.062,0,1.922,0.861,1.922,1.923s-0.861,1.923-1.922,1.923c-1.063,0-1.923-0.861-1.923-1.923
	S23.457,5.573,24.52,5.573z M47.596,7.175c0-1.328,1.076-2.404,2.404-2.404s2.404,1.076,2.404,2.404
	c0,1.328-1.076,2.403-2.404,2.403S47.596,8.503,47.596,7.175z M98,13.615v179H2v-179H98z M71,197.115c0,0.828-0.671,1.5-1.5,1.5h-41
	c-0.829,0-1.5-0.672-1.5-1.5l0,0c0-0.828,0.671-1.5,1.5-1.5h41C70.329,195.615,71,196.287,71,197.115L71,197.115z"/>
<path fill="#BDC3C7" d="M71,197.115c0-0.828-0.671-1.5-1.5-1.5h-41c-0.829,0-1.5,0.672-1.5,1.5l0,0c0,0.828,0.671,1.5,1.5,1.5h41
	C70.329,198.615,71,197.943,71,197.115L71,197.115z"/>
<circle fill="#BDC3C7" cx="24.52" cy="7.496" r="1.923"/>
<circle fill="#A9A9AA" cx="50" cy="7.175" r="2.404"/>
<rect x="2" y="13.615" fill="#2980B9" width="96" height="179"/>
<g>
	<path fill="#ECF0F1" d="M28.58,88.297h4.654c2.186,0,3.767,0.327,4.744,0.98c0.976,0.654,1.465,1.687,1.465,3.099
		c0,0.977-0.272,1.783-0.817,2.417c-0.545,0.635-1.339,1.046-2.383,1.234v0.113c2.501,0.428,3.752,1.743,3.752,3.944
		c0,1.473-0.498,2.622-1.493,3.448c-0.996,0.826-2.387,1.239-4.175,1.239H28.58V88.297z M30.496,95.351h3.155
		c1.352,0,2.325-0.212,2.918-0.637c0.593-0.424,0.89-1.14,0.89-2.146c0-0.924-0.331-1.591-0.992-2
		c-0.661-0.41-1.712-0.614-3.155-0.614h-2.817V95.351z M30.496,96.974v6.164h3.437c1.33,0,2.331-0.257,3.003-0.772
		s1.008-1.32,1.008-2.417c0-1.021-0.343-1.773-1.031-2.253c-0.688-0.481-1.733-0.721-3.138-0.721H30.496z"/>
	<path fill="#ECF0F1" d="M45.121,104.771h-1.87V87.238h1.87V104.771z"/>
	<path fill="#ECF0F1" d="M59.747,98.585c0,2.013-0.507,3.585-1.521,4.715c-1.014,1.131-2.415,1.696-4.203,1.696
		c-1.104,0-2.084-0.259-2.941-0.778c-0.856-0.518-1.518-1.262-1.983-2.231c-0.466-0.969-0.699-2.103-0.699-3.403
		c0-2.013,0.503-3.582,1.51-4.705s2.404-1.685,4.192-1.685c1.728,0,3.101,0.575,4.118,1.724
		C59.238,95.069,59.747,96.624,59.747,98.585z M50.338,98.585c0,1.578,0.315,2.779,0.947,3.605c0.631,0.827,1.559,1.24,2.783,1.24
		c1.224,0,2.154-0.411,2.789-1.234s0.952-2.026,0.952-3.611c0-1.57-0.317-2.763-0.952-3.578s-1.572-1.223-2.812-1.223
		c-1.224,0-2.148,0.402-2.772,1.206C50.65,95.794,50.338,96.992,50.338,98.585z"/>
	<path fill="#ECF0F1" d="M73.134,92.421v1.183l-2.288,0.271c0.21,0.263,0.398,0.606,0.563,1.031
		c0.165,0.425,0.248,0.903,0.248,1.437c0,1.21-0.413,2.175-1.239,2.896c-0.827,0.721-1.96,1.082-3.403,1.082
		c-0.368,0-0.714-0.03-1.037-0.09c-0.796,0.421-1.194,0.95-1.194,1.589c0,0.338,0.139,0.588,0.417,0.749
		c0.278,0.162,0.755,0.243,1.431,0.243h2.186c1.337,0,2.364,0.282,3.082,0.845c0.717,0.563,1.076,1.382,1.076,2.457
		c0,1.367-0.548,2.41-1.645,3.127s-2.697,1.076-4.8,1.076c-1.615,0-2.86-0.301-3.735-0.901c-0.875-0.601-1.313-1.45-1.313-2.547
		c0-0.751,0.24-1.401,0.721-1.949c0.48-0.548,1.157-0.92,2.028-1.116c-0.315-0.143-0.581-0.364-0.794-0.665
		c-0.214-0.3-0.321-0.65-0.321-1.048c0-0.451,0.12-0.845,0.361-1.183c0.24-0.338,0.62-0.665,1.138-0.98
		c-0.638-0.263-1.159-0.71-1.561-1.341c-0.402-0.631-0.603-1.352-0.603-2.164c0-1.352,0.405-2.395,1.217-3.127
		c0.811-0.732,1.96-1.099,3.448-1.099c0.646,0,1.229,0.075,1.747,0.226H73.134z M63.285,106.844c0,0.668,0.282,1.176,0.845,1.521
		c0.563,0.345,1.371,0.518,2.423,0.518c1.57,0,2.732-0.235,3.487-0.704c0.755-0.47,1.132-1.106,1.132-1.91
		c0-0.668-0.207-1.132-0.62-1.392s-1.191-0.389-2.333-0.389h-2.242c-0.849,0-1.51,0.203-1.983,0.608S63.285,106.085,63.285,106.844z
		 M64.299,96.376c0,0.864,0.244,1.518,0.732,1.96c0.488,0.443,1.168,0.665,2.04,0.665c1.826,0,2.738-0.887,2.738-2.66
		c0-1.855-0.924-2.783-2.772-2.783c-0.879,0-1.555,0.237-2.028,0.71C64.536,94.743,64.299,95.445,64.299,96.376z"/>
</g>
</svg>
