<?xml version="1.0" encoding="utf-8"?>
<!-- Generator: Adobe Illustrator 15.1.0, SVG Export Plug-In . SVG Version: 6.00 Build 0)  -->
<!DOCTYPE svg PUBLIC "-//W3C//DTD SVG 1.1 Tiny//EN" "http://www.w3.org/Graphics/SVG/1.1/DTD/svg11-tiny.dtd">
<svg version="1.1" baseProfile="tiny" id="Layer_1" xmlns="http://www.w3.org/2000/svg" xmlns:xlink="http://www.w3.org/1999/xlink"
	 x="0px" y="0px" width="350px" height="266px" viewBox="0 0 350 266" xml:space="preserve">
<rect x="16" fill="#999999" width="318" height="200"/>
<rect x="26" y="9" fill="#2980B9" width="298" height="178"/>
<polygon fill="#666666" points="350,254 0,254 15.909,200 334.091,200 "/>
<polygon fill="#4D4D4D" points="323.153,229 26.847,229 34.139,200 315.861,200 "/>
<polygon fill="#4D4D4D" points="239.199,252 110.8,252 113.602,238 236.896,238 "/>
<rect y="254" fill="#999999" width="350" height="12"/>
<g>
</g>
<g>
	<path fill="#CCCCCC" d="M231.225,19.662c-1.482,0-2.69,1.206-2.69,2.688c0,1.481,1.208,2.688,2.69,2.688
		c1.479,0,2.688-1.207,2.688-2.688C233.912,20.868,232.704,19.662,231.225,19.662z M231.225,24.756c-1.329,0-2.407-1.08-2.407-2.406
		c0-1.327,1.078-2.405,2.407-2.405c1.328,0,2.404,1.078,2.404,2.405C233.629,23.676,232.553,24.756,231.225,24.756z M232.075,21.963
		c0-0.49-0.328-0.723-0.863-0.723h-0.86v2.217h0.522c0,0,0-0.737,0-0.78h0.272l0.392,0.78h0.559l-0.435-0.849
		C231.905,22.507,232.075,22.314,232.075,21.963z M231.176,22.292h-0.302v-0.583h0.302c0.254,0,0.377,0.091,0.377,0.288
		C231.553,22.203,231.43,22.292,231.176,22.292z"/>
	<path fill="#FFFFFF" d="M226.463,105.973c-12.623-15.039-32.043,16.678-42.507,23.545c-7.222,4.745-18.187,5.118-25.888,0.589
		c-10.54-6.196-7.313-21.011,3.814-24.688c9.894-3.272,27.196,7.153,33.48-3.28c7.736-12.847-18.708-15.86-26.534-15.548
		c-14.103,0.554-27.688,5.125-36.058,15.797c-9.01,11.493-6.952,25.387,2.986,35.816c10.123,9.789,24.779,13.563,39.37,12.364
		c3.684-0.303,10.019-1.88,14.866-4.531C199.601,140.78,229.016,109.016,226.463,105.973z M134.157,94.72
		c4.887,0.975-4.581-26.333-5.203-30.093c-0.746-4.544-2.425-10.956-6.934-11.623c-5.237-0.762-6.67,5.192-5.602,10.418
		C117.521,68.859,129.565,93.803,134.157,94.72z M174.602,80.621c7.573,1.073,7.053-35.269,7.062-40.209
		c0.004-4.44,1.738-16.744-4.259-17.903c-8.228-1.595-9.046,9.25-9.223,15.081C168.521,43.415,166.68,79.5,174.602,80.621z
		 M192.635,86.432c8.277,3.456,14.604-33.259,15.517-37.967c0.925-4.797,1.078-14.981-7.146-11.758
		c-4.127,1.617-4.881,8.308-5.518,11.999C194.459,53.4,186.257,83.766,192.635,86.432z M152.847,83.346
		c9.328,0.695,0.539-36.232-0.196-41.155c-0.752-5.019-4.128-15.074-11.096-9.221c-3.49,2.935-1.918,9.762-1.264,13.592
		C140.905,51.514,145.657,82.813,152.847,83.346z"/>
</g>
<g>
	<path fill="#ECF0F1" d="M151.416,168.654c0,2.828-0.768,4.99-2.303,6.486s-3.744,2.244-6.627,2.244h-4.746v-17.133h5.25
		c2.664,0,4.734,0.738,6.211,2.215S151.416,166.006,151.416,168.654z M149.307,168.725c0-2.234-0.561-3.918-1.682-5.051
		s-2.787-1.699-4.998-1.699h-2.895v13.688h2.426c2.375,0,4.16-0.584,5.355-1.752S149.307,171.014,149.307,168.725z"/>
	<path fill="#ECF0F1" d="M160.369,177.619c-1.898,0-3.396-0.578-4.494-1.734s-1.646-2.762-1.646-4.816
		c0-2.07,0.51-3.715,1.529-4.934s2.389-1.828,4.107-1.828c1.609,0,2.883,0.529,3.82,1.588s1.406,2.455,1.406,4.189v1.23h-8.848
		c0.039,1.508,0.42,2.652,1.143,3.434s1.74,1.172,3.053,1.172c1.383,0,2.75-0.289,4.102-0.867v1.734
		c-0.688,0.297-1.338,0.51-1.951,0.639S161.236,177.619,160.369,177.619z M159.842,165.936c-1.031,0-1.854,0.336-2.467,1.008
		s-0.975,1.602-1.084,2.789h6.715c0-1.227-0.273-2.166-0.82-2.818S160.857,165.936,159.842,165.936z"/>
	<path fill="#ECF0F1" d="M184.779,177.385v-8.355c0-1.023-0.219-1.791-0.656-2.303s-1.117-0.768-2.039-0.768
		c-1.211,0-2.105,0.348-2.684,1.043s-0.867,1.766-0.867,3.211v7.172h-1.945v-8.355c0-1.023-0.219-1.791-0.656-2.303
		s-1.121-0.768-2.051-0.768c-1.219,0-2.111,0.365-2.678,1.096s-0.85,1.928-0.85,3.592v6.738h-1.945v-12.844h1.582l0.316,1.758h0.094
		c0.367-0.625,0.885-1.113,1.553-1.465s1.416-0.527,2.244-0.527c2.008,0,3.32,0.727,3.938,2.18h0.094
		c0.383-0.672,0.938-1.203,1.664-1.594s1.555-0.586,2.484-0.586c1.453,0,2.541,0.373,3.264,1.119s1.084,1.939,1.084,3.58v8.379
		H184.779z"/>
	<path fill="#ECF0F1" d="M201.818,170.951c0,2.094-0.527,3.729-1.582,4.904s-2.512,1.764-4.371,1.764
		c-1.148,0-2.168-0.27-3.059-0.809s-1.578-1.313-2.063-2.32s-0.727-2.188-0.727-3.539c0-2.094,0.523-3.725,1.57-4.893
		s2.5-1.752,4.359-1.752c1.797,0,3.225,0.598,4.283,1.793S201.818,168.912,201.818,170.951z M192.033,170.951
		c0,1.641,0.328,2.891,0.984,3.75s1.621,1.289,2.895,1.289s2.24-0.428,2.9-1.283s0.99-2.107,0.99-3.756
		c0-1.633-0.33-2.873-0.99-3.721s-1.635-1.271-2.924-1.271c-1.273,0-2.234,0.418-2.883,1.254S192.033,169.295,192.033,170.951z"/>
	<path fill="#ECF0F1" d="M213.514,173.881c0,1.195-0.445,2.117-1.336,2.766s-2.141,0.973-3.75,0.973
		c-1.703,0-3.031-0.27-3.984-0.809v-1.805c0.617,0.313,1.279,0.559,1.986,0.738s1.389,0.27,2.045,0.27
		c1.016,0,1.797-0.162,2.344-0.486s0.82-0.818,0.82-1.482c0-0.5-0.217-0.928-0.65-1.283s-1.279-0.775-2.537-1.26
		c-1.195-0.445-2.045-0.834-2.549-1.166s-0.879-0.709-1.125-1.131s-0.369-0.926-0.369-1.512c0-1.047,0.426-1.873,1.277-2.479
		s2.02-0.908,3.504-0.908c1.383,0,2.734,0.281,4.055,0.844l-0.691,1.582c-1.289-0.531-2.457-0.797-3.504-0.797
		c-0.922,0-1.617,0.145-2.086,0.434s-0.703,0.688-0.703,1.195c0,0.344,0.088,0.637,0.264,0.879s0.459,0.473,0.85,0.691
		s1.141,0.535,2.25,0.949c1.523,0.555,2.553,1.113,3.088,1.676S213.514,173.029,213.514,173.881z"/>
</g>
</svg>
