<?xml version="1.0" encoding="utf-8"?>
<!-- Generator: Adobe Illustrator 15.1.0, SVG Export Plug-In . SVG Version: 6.00 Build 0)  -->
<!DOCTYPE svg PUBLIC "-//W3C//DTD SVG 1.1 Tiny//EN" "http://www.w3.org/Graphics/SVG/1.1/DTD/svg11-tiny.dtd">
<svg version="1.1" baseProfile="tiny" id="Layer_1" xmlns="http://www.w3.org/2000/svg" xmlns:xlink="http://www.w3.org/1999/xlink"
	 x="0px" y="0px" width="87.75px" height="67px" viewBox="0 0 87.75 67" xml:space="preserve">
<rect x="4" fill="#999999" width="79" height="50"/>
<rect x="6" y="2" fill="#2980B9" width="75" height="45"/>
<polygon fill="#666666" points="87.75,64 0,64 3.99,50 83.761,50 "/>
<polygon fill="#4D4D4D" points="81.019,57 6.732,57 8.56,50 79.19,50 "/>
<polygon fill="#4D4D4D" points="59.971,63 27.78,63 28.482,60 59.395,60 "/>
<rect y="64" fill="#999999" width="87" height="3"/>
<g>
</g>
<g>
	<path fill="#CCCCCC" d="M57.972,4.583c-0.372,0-0.675,0.302-0.675,0.674s0.303,0.674,0.675,0.674c0.37,0,0.674-0.303,0.674-0.674
		S58.342,4.583,57.972,4.583z M57.972,5.86c-0.334,0-0.604-0.271-0.604-0.603s0.27-0.603,0.604-0.603
		c0.333,0,0.603,0.271,0.603,0.603S58.305,5.86,57.972,5.86z M58.185,5.16c0-0.123-0.082-0.181-0.217-0.181h-0.215v0.556h0.131
		c0,0,0-0.185,0-0.195h0.068l0.099,0.195h0.14l-0.108-0.212C58.143,5.297,58.185,5.249,58.185,5.16z M57.959,5.243h-0.075V5.097
		h0.075c0.064,0,0.096,0.023,0.096,0.072C58.055,5.22,58.023,5.243,57.959,5.243z"/>
	<path fill="#FFFFFF" d="M56.777,26.223c-3.164-3.771-8.032,4.182-10.656,5.903c-1.811,1.19-4.56,1.283-6.491,0.148
		c-2.643-1.554-1.833-5.268,0.957-6.19c2.48-0.82,6.818,1.793,8.394-0.822c1.939-3.221-4.689-3.977-6.652-3.898
		c-3.536,0.139-6.942,1.285-9.041,3.96c-2.259,2.882-1.743,6.365,0.749,8.98c2.538,2.454,6.213,3.4,9.871,3.1
		c0.923-0.076,2.512-0.472,3.727-1.136C50.043,34.949,57.418,26.985,56.777,26.223z M33.635,23.401
		c1.226,0.245-1.148-6.602-1.304-7.545c-0.188-1.139-0.608-2.747-1.739-2.914c-1.313-0.191-1.672,1.302-1.404,2.613
		C29.464,16.918,32.484,23.171,33.635,23.401z M43.775,19.867c1.899,0.269,1.769-8.843,1.771-10.082
		c0.001-1.113,0.436-4.197-1.067-4.488c-2.063-0.399-2.268,2.319-2.313,3.781C42.25,10.538,41.79,19.585,43.775,19.867z
		 M48.296,21.323c2.076,0.866,3.662-8.338,3.892-9.519c0.231-1.203,0.27-3.756-1.792-2.948c-1.035,0.405-1.224,2.083-1.384,3.008
		C48.755,13.042,46.698,20.655,48.296,21.323z M38.321,20.55c2.339,0.174,0.135-9.084-0.049-10.318
		c-0.188-1.259-1.035-3.779-2.782-2.312c-0.875,0.736-0.481,2.447-0.317,3.408C35.327,12.569,36.519,20.416,38.321,20.55z"/>
</g>
<g>
	<path fill="#ECF0F1" d="M37.963,41.937c0,0.709-0.192,1.251-0.577,1.626s-0.938,0.563-1.662,0.563h-1.19v-4.295h1.316
		c0.668,0,1.187,0.185,1.557,0.555S37.963,41.273,37.963,41.937z M37.434,41.955c0-0.56-0.141-0.982-0.421-1.266
		c-0.281-0.284-0.699-0.426-1.253-0.426h-0.726v3.431h0.608c0.595,0,1.043-0.146,1.343-0.439
		C37.284,42.962,37.434,42.529,37.434,41.955z"/>
	<path fill="#ECF0F1" d="M40.208,44.185c-0.476,0-0.852-0.145-1.127-0.435c-0.275-0.29-0.413-0.692-0.413-1.208
		c0-0.519,0.128-0.932,0.383-1.237c0.256-0.306,0.599-0.458,1.03-0.458c0.404,0,0.723,0.133,0.958,0.398
		c0.235,0.266,0.353,0.616,0.353,1.05v0.309h-2.218c0.01,0.378,0.105,0.665,0.287,0.861c0.181,0.196,0.436,0.294,0.765,0.294
		c0.347,0,0.689-0.072,1.028-0.217v0.435c-0.172,0.075-0.335,0.128-0.489,0.16S40.425,44.185,40.208,44.185z M40.075,41.255
		c-0.258,0-0.465,0.084-0.618,0.253c-0.154,0.168-0.245,0.401-0.272,0.699h1.684c0-0.308-0.069-0.543-0.206-0.707
		C40.526,41.337,40.33,41.255,40.075,41.255z"/>
	<path fill="#ECF0F1" d="M46.327,44.126v-2.095c0-0.257-0.055-0.449-0.164-0.578c-0.109-0.128-0.28-0.192-0.512-0.192
		c-0.303,0-0.527,0.087-0.672,0.262c-0.146,0.174-0.218,0.442-0.218,0.805v1.798h-0.488v-2.095c0-0.257-0.055-0.449-0.164-0.578
		c-0.11-0.128-0.281-0.192-0.514-0.192c-0.306,0-0.529,0.092-0.671,0.275s-0.213,0.483-0.213,0.9v1.689h-0.488v-3.22h0.396
		l0.08,0.441h0.023c0.092-0.157,0.222-0.279,0.389-0.367c0.167-0.088,0.355-0.132,0.563-0.132c0.503,0,0.833,0.182,0.988,0.546
		h0.023c0.096-0.168,0.234-0.302,0.417-0.399c0.182-0.098,0.39-0.147,0.623-0.147c0.364,0,0.637,0.094,0.818,0.281
		c0.181,0.187,0.271,0.486,0.271,0.897v2.101H46.327z"/>
	<path fill="#ECF0F1" d="M50.6,42.513c0,0.525-0.133,0.935-0.397,1.229c-0.264,0.295-0.629,0.442-1.096,0.442
		c-0.288,0-0.543-0.067-0.767-0.203s-0.396-0.329-0.517-0.582c-0.122-0.253-0.183-0.548-0.183-0.887
		c0-0.525,0.131-0.934,0.394-1.227c0.263-0.292,0.627-0.439,1.093-0.439c0.451,0,0.809,0.15,1.074,0.45
		C50.467,41.596,50.6,42.002,50.6,42.513z M48.146,42.513c0,0.411,0.083,0.725,0.247,0.94c0.165,0.215,0.406,0.323,0.726,0.323
		s0.562-0.107,0.728-0.322c0.165-0.214,0.248-0.528,0.248-0.941c0-0.41-0.083-0.721-0.248-0.933
		c-0.166-0.212-0.41-0.319-0.733-0.319c-0.319,0-0.56,0.105-0.723,0.314C48.228,41.785,48.146,42.098,48.146,42.513z"/>
	<path fill="#ECF0F1" d="M53.532,43.248c0,0.3-0.112,0.531-0.335,0.693c-0.224,0.163-0.537,0.244-0.94,0.244
		c-0.427,0-0.76-0.067-0.999-0.203V43.53c0.154,0.078,0.32,0.14,0.498,0.185c0.177,0.045,0.348,0.067,0.513,0.067
		c0.255,0,0.45-0.041,0.588-0.122c0.137-0.081,0.205-0.205,0.205-0.372c0-0.125-0.054-0.232-0.163-0.322
		c-0.108-0.089-0.32-0.194-0.636-0.316c-0.3-0.111-0.513-0.209-0.64-0.292c-0.126-0.083-0.22-0.178-0.281-0.284
		c-0.063-0.106-0.093-0.232-0.093-0.379c0-0.263,0.106-0.47,0.32-0.622c0.213-0.152,0.506-0.228,0.878-0.228
		c0.347,0,0.686,0.07,1.017,0.211l-0.173,0.396c-0.323-0.133-0.616-0.2-0.879-0.2c-0.23,0-0.405,0.037-0.522,0.109
		c-0.118,0.072-0.177,0.172-0.177,0.3c0,0.086,0.022,0.16,0.066,0.22s0.115,0.119,0.213,0.173s0.286,0.134,0.564,0.238
		c0.382,0.139,0.64,0.279,0.773,0.42C53.465,42.857,53.532,43.034,53.532,43.248z"/>
</g>
</svg>
