<?xml version="1.0" encoding="utf-8"?>
<!-- Generator: Adobe Illustrator 15.1.0, SVG Export Plug-In . SVG Version: 6.00 Build 0)  -->
<!DOCTYPE svg PUBLIC "-//W3C//DTD SVG 1.1 Tiny//EN" "http://www.w3.org/Graphics/SVG/1.1/DTD/svg11-tiny.dtd">
<svg version="1.1" baseProfile="tiny" id="Layer_1" xmlns="http://www.w3.org/2000/svg" xmlns:xlink="http://www.w3.org/1999/xlink"
	 x="0px" y="0px" width="100px" height="206.809px" viewBox="0 0 100 206.809" xml:space="preserve">
<path fill="#666666" d="M99.905,9.615C98.383,4.615,76.627,0,50,0C23.374,0,1.617,4.615,0.093,9.615H0v186h0.093
	c-0.056,0-0.093,0.648-0.093,0.852c0,5.641,22.386,10.342,50,10.342c27.614,0,50-4.763,50-10.404c0-0.202-0.036-0.789-0.095-0.789
	H100v-186H99.905z M24.52,5.573c1.062,0,1.922,0.861,1.922,1.923s-0.861,1.923-1.922,1.923c-1.063,0-1.923-0.861-1.923-1.923
	S23.457,5.573,24.52,5.573z M47.596,7.175c0-1.328,1.076-2.404,2.404-2.404s2.404,1.076,2.404,2.404
	c0,1.328-1.076,2.403-2.404,2.403S47.596,8.503,47.596,7.175z M98,13.615v179H2v-179H98z M71,197.115c0,0.828-0.671,1.5-1.5,1.5h-41
	c-0.829,0-1.5-0.672-1.5-1.5l0,0c0-0.828,0.671-1.5,1.5-1.5h41C70.329,195.615,71,196.287,71,197.115L71,197.115z"/>
<path fill="#BDC3C7" d="M71,197.115c0-0.828-0.671-1.5-1.5-1.5h-41c-0.829,0-1.5,0.672-1.5,1.5l0,0c0,0.828,0.671,1.5,1.5,1.5h41
	C70.329,198.615,71,197.943,71,197.115L71,197.115z"/>
<circle fill="#BDC3C7" cx="24.52" cy="7.496" r="1.923"/>
<circle fill="#A9A9AA" cx="50" cy="7.175" r="2.404"/>
<rect x="2" y="13.615" fill="#2980B9" width="96" height="179"/>
<g>
	<path fill="#ECF0F1" d="M17.932,89.773c-1.811,0-3.24,0.603-4.288,1.808c-1.048,1.206-1.572,2.856-1.572,4.953
		c0,2.156,0.505,3.822,1.515,4.997c1.01,1.176,2.451,1.764,4.321,1.764c1.149,0,2.46-0.207,3.933-0.62v1.679
		c-1.142,0.428-2.55,0.643-4.226,0.643c-2.426,0-4.298-0.736-5.617-2.209c-1.318-1.472-1.978-3.564-1.978-6.276
		c0-1.698,0.317-3.185,0.952-4.462c0.634-1.277,1.551-2.261,2.749-2.952c1.198-0.691,2.609-1.037,4.231-1.037
		c1.728,0,3.237,0.315,4.53,0.946l-0.812,1.646C20.425,90.066,19.178,89.773,17.932,89.773z"/>
	<path fill="#ECF0F1" d="M35.813,98.585c0,2.013-0.507,3.585-1.521,4.715c-1.014,1.131-2.415,1.696-4.203,1.696
		c-1.104,0-2.084-0.259-2.941-0.778c-0.856-0.518-1.518-1.262-1.983-2.231c-0.466-0.969-0.699-2.103-0.699-3.403
		c0-2.013,0.503-3.582,1.51-4.705s2.404-1.685,4.192-1.685c1.728,0,3.101,0.575,4.118,1.724
		C35.305,95.069,35.813,96.624,35.813,98.585z M26.405,98.585c0,1.578,0.315,2.779,0.947,3.605c0.631,0.827,1.559,1.24,2.783,1.24
		c1.224,0,2.154-0.411,2.789-1.234s0.952-2.026,0.952-3.611c0-1.57-0.317-2.763-0.952-3.578s-1.572-1.223-2.812-1.223
		c-1.224,0-2.148,0.402-2.772,1.206C26.716,95.794,26.405,96.992,26.405,98.585z"/>
	<path fill="#ECF0F1" d="M47.544,104.771v-7.989c0-1.006-0.229-1.758-0.687-2.253c-0.458-0.496-1.176-0.744-2.152-0.744
		c-1.292,0-2.239,0.349-2.84,1.048s-0.901,1.852-0.901,3.459v6.479h-1.87v-12.35h1.521l0.304,1.69h0.09
		c0.383-0.608,0.92-1.08,1.611-1.414c0.691-0.334,1.461-0.501,2.31-0.501c1.488,0,2.607,0.359,3.358,1.076
		c0.751,0.717,1.127,1.865,1.127,3.442v8.057H47.544z"/>
	<path fill="#ECF0F1" d="M57.246,103.453c0.331,0,0.649-0.024,0.958-0.073s0.552-0.1,0.732-0.152v1.431
		c-0.203,0.098-0.501,0.178-0.896,0.242c-0.395,0.064-0.75,0.096-1.065,0.096c-2.389,0-3.583-1.258-3.583-3.775v-7.347h-1.769
		v-0.902l1.769-0.777l0.789-2.637h1.082v2.862h3.583v1.454h-3.583v7.268c0,0.744,0.177,1.315,0.53,1.713
		C56.145,103.254,56.629,103.453,57.246,103.453z"/>
	<path fill="#ECF0F1" d="M68.999,104.771l-0.372-1.758h-0.09c-0.616,0.774-1.23,1.298-1.843,1.572
		c-0.612,0.274-1.377,0.412-2.293,0.412c-1.225,0-2.185-0.316-2.879-0.947c-0.695-0.631-1.042-1.528-1.042-2.693
		c0-2.494,1.995-3.801,5.984-3.921l2.096-0.068v-0.766c0-0.969-0.209-1.685-0.626-2.146s-1.083-0.693-2-0.693
		c-1.029,0-2.193,0.315-3.493,0.946l-0.574-1.431c0.608-0.331,1.274-0.59,2-0.778c0.725-0.188,1.451-0.282,2.181-0.282
		c1.472,0,2.563,0.327,3.273,0.98c0.709,0.653,1.064,1.702,1.064,3.144v8.429H68.999z M64.773,103.453
		c1.164,0,2.079-0.319,2.743-0.958c0.665-0.638,0.998-1.532,0.998-2.682v-1.115l-1.871,0.079c-1.487,0.053-2.56,0.284-3.217,0.693
		c-0.657,0.41-0.986,1.046-0.986,1.91c0,0.676,0.205,1.19,0.614,1.543C63.463,103.276,64.037,103.453,64.773,103.453z"/>
	<path fill="#ECF0F1" d="M79.174,104.997c-1.788,0-3.172-0.55-4.152-1.651c-0.981-1.101-1.471-2.657-1.471-4.671
		c0-2.065,0.497-3.662,1.494-4.789c0.995-1.127,2.413-1.69,4.254-1.69c0.593,0,1.187,0.064,1.78,0.191
		c0.593,0.128,1.059,0.278,1.396,0.451L81.9,94.427c-0.413-0.165-0.864-0.302-1.353-0.411s-0.92-0.164-1.296-0.164
		c-2.509,0-3.763,1.6-3.763,4.8c0,1.518,0.306,2.682,0.918,3.493c0.612,0.812,1.52,1.217,2.721,1.217
		c1.029,0,2.085-0.221,3.167-0.665v1.656C81.468,104.782,80.428,104.997,79.174,104.997z"/>
	<path fill="#ECF0F1" d="M89.213,103.453c0.331,0,0.65-0.024,0.958-0.073s0.553-0.1,0.732-0.152v1.431
		c-0.203,0.098-0.501,0.178-0.896,0.242s-0.749,0.096-1.065,0.096c-2.389,0-3.583-1.258-3.583-3.775v-7.347h-1.769v-0.902
		l1.769-0.777l0.789-2.637h1.082v2.862h3.583v1.454H87.23v7.268c0,0.744,0.176,1.315,0.529,1.713
		C88.112,103.254,88.598,103.453,89.213,103.453z"/>
</g>
</svg>
