<?xml version="1.0" encoding="utf-8"?>
<!-- Generator: Adobe Illustrator 15.1.0, SVG Export Plug-In . SVG Version: 6.00 Build 0)  -->
<!DOCTYPE svg PUBLIC "-//W3C//DTD SVG 1.1 Tiny//EN" "http://www.w3.org/Graphics/SVG/1.1/DTD/svg11-tiny.dtd">
<svg version="1.1" baseProfile="tiny" id="Layer_1" xmlns="http://www.w3.org/2000/svg" xmlns:xlink="http://www.w3.org/1999/xlink"
	 x="0px" y="0px" width="350px" height="266px" viewBox="0 0 350 266" xml:space="preserve">
<rect x="16" fill="#999999" width="318" height="200"/>
<rect x="26" y="9" fill="#8E44AD" width="298" height="178"/>
<polygon fill="#666666" points="350,254 0,254 15.909,200 334.091,200 "/>
<polygon fill="#4D4D4D" points="323.153,229 26.847,229 34.139,200 315.861,200 "/>
<polygon fill="#4D4D4D" points="239.199,252 110.8,252 113.602,238 236.896,238 "/>
<rect y="254" fill="#999999" width="350" height="12"/>
<g>
	<path fill="#ECF0F1" d="M116.635,87.384c-3.295,0-5.896,1.097-7.803,3.292s-2.861,5.199-2.861,9.013
		c0,3.924,0.919,6.956,2.758,9.095s4.46,3.209,7.865,3.209c2.092,0,4.478-0.376,7.157-1.128v3.056
		c-2.078,0.779-4.642,1.169-7.69,1.169c-4.416,0-7.824-1.34-10.223-4.02s-3.599-6.487-3.599-11.423c0-3.09,0.578-5.797,1.733-8.121
		s2.823-4.115,5.004-5.373s4.748-1.887,7.701-1.887c3.145,0,5.893,0.574,8.244,1.723l-1.477,2.994
		C121.174,87.917,118.905,87.384,116.635,87.384z"/>
	<path fill="#ECF0F1" d="M149.181,103.421c0,3.664-0.923,6.525-2.769,8.583s-4.396,3.086-7.649,3.086
		c-2.01,0-3.794-0.472-5.353-1.415s-2.762-2.297-3.609-4.061s-1.271-3.828-1.271-6.193c0-3.664,0.916-6.518,2.748-8.562
		s4.375-3.066,7.629-3.066c3.145,0,5.643,1.046,7.495,3.138S149.181,99.853,149.181,103.421z M132.057,103.421
		c0,2.871,0.574,5.059,1.723,6.563s2.837,2.256,5.065,2.256s3.92-0.749,5.076-2.246c1.154-1.497,1.732-3.688,1.732-6.573
		c0-2.857-0.578-5.028-1.732-6.511c-1.156-1.483-2.861-2.225-5.117-2.225c-2.229,0-3.91,0.731-5.045,2.194
		S132.057,100.522,132.057,103.421z"/>
	<path fill="#ECF0F1" d="M170.53,114.68v-14.54c0-1.832-0.417-3.199-1.251-4.102s-2.14-1.354-3.917-1.354
		c-2.352,0-4.074,0.636-5.168,1.907s-1.641,3.37-1.641,6.296v11.792h-3.404V92.203h2.769l0.554,3.076h0.164
		c0.697-1.107,1.675-1.965,2.933-2.574s2.659-0.913,4.204-0.913c2.707,0,4.744,0.653,6.111,1.958s2.051,3.394,2.051,6.265v14.663
		H170.53z"/>
	<path fill="#ECF0F1" d="M188.188,112.28c0.602,0,1.182-0.044,1.742-0.133s1.006-0.181,1.334-0.277v2.604
		c-0.369,0.178-0.912,0.325-1.631,0.441c-0.717,0.116-1.363,0.174-1.938,0.174c-4.348,0-6.521-2.29-6.521-6.87V94.849h-3.221v-1.641
		l3.221-1.415l1.436-4.799h1.969v5.209h6.521v2.646h-6.521v13.228c0,1.354,0.32,2.393,0.963,3.117S187.066,112.28,188.188,112.28z"
		/>
	<path fill="#ECF0F1" d="M209.576,114.68l-0.676-3.199h-0.164c-1.121,1.408-2.24,2.362-3.354,2.861
		c-1.115,0.499-2.506,0.749-4.174,0.749c-2.229,0-3.975-0.574-5.238-1.723c-1.266-1.148-1.898-2.782-1.898-4.901
		c0-4.539,3.631-6.918,10.891-7.137l3.814-0.123v-1.395c0-1.764-0.379-3.066-1.139-3.907c-0.758-0.841-1.973-1.261-3.641-1.261
		c-1.873,0-3.992,0.574-6.357,1.723l-1.045-2.604c1.107-0.602,2.32-1.073,3.641-1.415c1.318-0.342,2.641-0.513,3.967-0.513
		c2.68,0,4.666,0.595,5.959,1.784c1.291,1.189,1.938,3.097,1.938,5.722v15.34H209.576z M201.887,112.28
		c2.119,0,3.783-0.581,4.994-1.743c1.209-1.162,1.814-2.789,1.814-4.881v-2.03l-3.404,0.144c-2.707,0.096-4.66,0.516-5.855,1.261
		c-1.197,0.745-1.795,1.904-1.795,3.476c0,1.23,0.373,2.167,1.119,2.81C199.504,111.959,200.547,112.28,201.887,112.28z"/>
	<path fill="#ECF0F1" d="M228.096,115.09c-3.254,0-5.773-1.001-7.557-3.004c-1.785-2.003-2.678-4.836-2.678-8.5
		c0-3.76,0.906-6.665,2.719-8.716c1.811-2.051,4.391-3.076,7.74-3.076c1.08,0,2.16,0.116,3.24,0.349s1.928,0.506,2.543,0.82
		l-1.045,2.892c-0.752-0.301-1.572-0.55-2.461-0.749s-1.676-0.297-2.359-0.297c-4.566,0-6.85,2.912-6.85,8.736
		c0,2.762,0.557,4.881,1.672,6.357c1.113,1.477,2.766,2.215,4.953,2.215c1.873,0,3.793-0.403,5.762-1.21v3.015
		C232.271,114.7,230.379,115.09,228.096,115.09z"/>
	<path fill="#ECF0F1" d="M246.367,112.28c0.602,0,1.184-0.044,1.744-0.133s1.004-0.181,1.332-0.277v2.604
		c-0.369,0.178-0.912,0.325-1.629,0.441c-0.719,0.116-1.365,0.174-1.939,0.174c-4.348,0-6.521-2.29-6.521-6.87V94.849h-3.219v-1.641
		l3.219-1.415l1.436-4.799h1.969v5.209h6.521v2.646h-6.521v13.228c0,1.354,0.322,2.393,0.965,3.117S245.246,112.28,246.367,112.28z"
		/>
</g>
<g>
</g>
</svg>
