<?xml version="1.0" encoding="utf-8"?>
<!-- Generator: Adobe Illustrator 15.1.0, SVG Export Plug-In . SVG Version: 6.00 Build 0)  -->
<!DOCTYPE svg PUBLIC "-//W3C//DTD SVG 1.1 Tiny//EN" "http://www.w3.org/Graphics/SVG/1.1/DTD/svg11-tiny.dtd">
<svg version="1.1" baseProfile="tiny" id="Layer_1" xmlns="http://www.w3.org/2000/svg" xmlns:xlink="http://www.w3.org/1999/xlink"
	 x="0px" y="0px" width="100px" height="206.809px" viewBox="0 0 100 206.809" xml:space="preserve">
<path fill="#666666" d="M99.905,9.615C98.383,4.615,76.627,0,50,0C23.374,0,1.617,4.615,0.093,9.615H0v186h0.093
	c-0.056,0-0.093,0.648-0.093,0.852c0,5.641,22.386,10.342,50,10.342c27.614,0,50-4.763,50-10.404c0-0.202-0.036-0.789-0.095-0.789
	H100v-186H99.905z M24.52,5.573c1.062,0,1.922,0.861,1.922,1.923s-0.861,1.923-1.922,1.923c-1.063,0-1.923-0.861-1.923-1.923
	S23.457,5.573,24.52,5.573z M47.596,7.175c0-1.328,1.076-2.404,2.404-2.404s2.404,1.076,2.404,2.404
	c0,1.328-1.076,2.403-2.404,2.403S47.596,8.503,47.596,7.175z M98,13.615v179H2v-179H98z M71,197.115c0,0.828-0.671,1.5-1.5,1.5h-41
	c-0.829,0-1.5-0.672-1.5-1.5l0,0c0-0.828,0.671-1.5,1.5-1.5h41C70.329,195.615,71,196.287,71,197.115L71,197.115z"/>
<path fill="#BDC3C7" d="M71,197.115c0-0.828-0.671-1.5-1.5-1.5h-41c-0.829,0-1.5,0.672-1.5,1.5l0,0c0,0.828,0.671,1.5,1.5,1.5h41
	C70.329,198.615,71,197.943,71,197.115L71,197.115z"/>
<circle fill="#BDC3C7" cx="24.52" cy="7.496" r="1.923"/>
<circle fill="#A9A9AA" cx="50" cy="7.175" r="2.404"/>
<rect x="2" y="13.615" fill="#2980B9" width="96" height="179"/>
<g>
	<path fill="#ECF0F1" d="M27.323,96.376c0,2.719-0.738,4.798-2.214,6.237s-3.6,2.158-6.372,2.158h-4.564V88.297h5.048
		c2.562,0,4.552,0.709,5.972,2.129C26.613,91.847,27.323,93.83,27.323,96.376z M25.295,96.444c0-2.148-0.539-3.767-1.617-4.856
		c-1.078-1.089-2.68-1.634-4.806-1.634h-2.783v13.161h2.332c2.284,0,4-0.562,5.15-1.685C24.72,100.307,25.295,98.645,25.295,96.444z
		"/>
	<path fill="#ECF0F1" d="M35.932,104.997c-1.825,0-3.266-0.556-4.321-1.668c-1.056-1.112-1.583-2.655-1.583-4.631
		c0-1.991,0.49-3.572,1.47-4.744c0.98-1.172,2.297-1.758,3.95-1.758c1.547,0,2.772,0.509,3.673,1.527
		c0.901,1.018,1.352,2.361,1.352,4.028v1.183h-8.507c0.038,1.45,0.404,2.55,1.099,3.302c0.695,0.751,1.673,1.126,2.936,1.126
		c1.33,0,2.644-0.278,3.944-0.833v1.667c-0.661,0.286-1.287,0.49-1.876,0.614S36.766,104.997,35.932,104.997z M35.425,93.762
		c-0.992,0-1.782,0.323-2.372,0.969c-0.59,0.646-0.937,1.54-1.042,2.682h6.457c0-1.179-0.263-2.083-0.789-2.71
		S36.401,93.762,35.425,93.762z"/>
	<path fill="#ECF0F1" d="M59.403,104.771v-8.034c0-0.984-0.21-1.722-0.631-2.214c-0.421-0.492-1.075-0.738-1.961-0.738
		c-1.165,0-2.024,0.334-2.58,1.003c-0.556,0.668-0.834,1.698-0.834,3.087v6.896h-1.871v-8.034c0-0.984-0.21-1.722-0.631-2.214
		c-0.421-0.492-1.078-0.738-1.972-0.738c-1.172,0-2.03,0.351-2.575,1.054c-0.544,0.702-0.817,1.854-0.817,3.454v6.479h-1.87v-12.35
		h1.521l0.304,1.69h0.09c0.353-0.601,0.851-1.07,1.493-1.408c0.643-0.338,1.362-0.507,2.158-0.507c1.93,0,3.192,0.699,3.786,2.096
		h0.09c0.368-0.646,0.901-1.157,1.6-1.532s1.495-0.563,2.389-0.563c1.397,0,2.443,0.359,3.138,1.076s1.042,1.865,1.042,3.442v8.057
		H59.403z"/>
	<path fill="#ECF0F1" d="M75.788,98.585c0,2.013-0.508,3.585-1.522,4.715c-1.014,1.131-2.415,1.696-4.203,1.696
		c-1.104,0-2.084-0.259-2.94-0.778c-0.856-0.518-1.518-1.262-1.983-2.231s-0.699-2.103-0.699-3.403c0-2.013,0.503-3.582,1.51-4.705
		c1.006-1.123,2.403-1.685,4.191-1.685c1.728,0,3.101,0.575,4.118,1.724C75.278,95.069,75.788,96.624,75.788,98.585z M66.378,98.585
		c0,1.578,0.315,2.779,0.946,3.605c0.631,0.827,1.559,1.24,2.783,1.24s2.154-0.411,2.789-1.234s0.952-2.026,0.952-3.611
		c0-1.57-0.317-2.763-0.952-3.578s-1.572-1.223-2.812-1.223c-1.225,0-2.148,0.402-2.771,1.206
		C66.69,95.794,66.378,96.992,66.378,98.585z"/>
	<path fill="#ECF0F1" d="M87.032,101.402c0,1.149-0.428,2.036-1.284,2.659s-2.059,0.936-3.605,0.936
		c-1.638,0-2.915-0.259-3.831-0.778v-1.735c0.593,0.301,1.229,0.538,1.909,0.71c0.681,0.173,1.336,0.259,1.967,0.259
		c0.977,0,1.728-0.156,2.254-0.468c0.525-0.312,0.788-0.787,0.788-1.425c0-0.48-0.208-0.892-0.625-1.234s-1.23-0.746-2.439-1.211
		c-1.149-0.428-1.967-0.802-2.451-1.121c-0.484-0.319-0.845-0.682-1.081-1.087c-0.237-0.405-0.355-0.89-0.355-1.454
		c0-1.006,0.409-1.801,1.229-2.383c0.818-0.582,1.941-0.874,3.369-0.874c1.329,0,2.629,0.271,3.898,0.812l-0.665,1.521
		c-1.239-0.511-2.362-0.766-3.369-0.766c-0.886,0-1.555,0.139-2.006,0.417c-0.45,0.278-0.676,0.661-0.676,1.149
		c0,0.331,0.085,0.612,0.254,0.845c0.169,0.233,0.441,0.455,0.816,0.665c0.376,0.21,1.097,0.515,2.164,0.913
		c1.465,0.534,2.454,1.07,2.969,1.611S87.032,100.583,87.032,101.402z"/>
</g>
</svg>
