<?xml version="1.0" encoding="utf-8"?>
<!-- Generator: Adobe Illustrator 15.1.0, SVG Export Plug-In . SVG Version: 6.00 Build 0)  -->
<!DOCTYPE svg PUBLIC "-//W3C//DTD SVG 1.1 Tiny//EN" "http://www.w3.org/Graphics/SVG/1.1/DTD/svg11-tiny.dtd">
<svg version="1.1" baseProfile="tiny" id="Layer_1" xmlns="http://www.w3.org/2000/svg" xmlns:xlink="http://www.w3.org/1999/xlink"
	 x="0px" y="0px" width="350px" height="266px" viewBox="0 0 350 266" xml:space="preserve">
<rect x="16" fill="#999999" width="318" height="200"/>
<rect x="26" y="9" fill="#2980B9" width="298" height="178"/>
<polygon fill="#666666" points="350,254 0,254 15.909,200 334.091,200 "/>
<polygon fill="#4D4D4D" points="323.153,229 26.847,229 34.139,200 315.861,200 "/>
<polygon fill="#4D4D4D" points="239.199,252 110.8,252 113.602,238 236.896,238 "/>
<rect y="254" fill="#999999" width="350" height="12"/>
<g>
	<path fill="#ECF0F1" d="M143.746,99.401c0,4.949-1.343,8.733-4.03,11.351s-6.552,3.927-11.597,3.927h-8.306V84.697H129
		c4.662,0,8.285,1.292,10.869,3.876S143.746,94.767,143.746,99.401z M140.054,99.524c0-3.91-0.981-6.856-2.943-8.839
		s-4.877-2.974-8.747-2.974h-5.065v23.953h4.245c4.156,0,7.28-1.022,9.372-3.066S140.054,103.53,140.054,99.524z"/>
	<path fill="#ECF0F1" d="M159.414,115.09c-3.322,0-5.944-1.012-7.865-3.035s-2.881-4.833-2.881-8.429
		c0-3.623,0.892-6.501,2.676-8.634s4.18-3.199,7.188-3.199c2.816,0,5.045,0.926,6.686,2.779s2.461,4.296,2.461,7.332v2.153h-15.483
		c0.068,2.639,0.735,4.642,2,6.009s3.045,2.051,5.342,2.051c2.42,0,4.813-0.506,7.178-1.518v3.035
		c-1.203,0.52-2.342,0.892-3.414,1.118C162.226,114.977,160.931,115.09,159.414,115.09z M158.491,94.644
		c-1.805,0-3.244,0.588-4.317,1.764s-1.706,2.803-1.897,4.881h11.751c0-2.146-0.479-3.791-1.436-4.932
		S160.268,94.644,158.491,94.644z"/>
	<path fill="#ECF0F1" d="M202.131,114.68v-14.622c0-1.791-0.383-3.134-1.148-4.03s-1.955-1.343-3.568-1.343
		c-2.119,0-3.684,0.608-4.695,1.825s-1.518,3.09-1.518,5.619v12.551h-3.404v-14.622c0-1.791-0.383-3.134-1.148-4.03
		s-1.963-1.343-3.59-1.343c-2.133,0-3.695,0.639-4.686,1.917c-0.992,1.278-1.486,3.374-1.486,6.286v11.792h-3.405V92.203h2.768
		l0.555,3.076h0.164c0.643-1.094,1.549-1.948,2.717-2.563c1.17-0.615,2.479-0.923,3.928-0.923c3.514,0,5.811,1.271,6.891,3.814
		h0.164c0.67-1.176,1.641-2.105,2.912-2.789s2.721-1.025,4.348-1.025c2.543,0,4.445,0.653,5.711,1.958
		c1.264,1.306,1.896,3.394,1.896,6.265v14.663H202.131z"/>
	<path fill="#ECF0F1" d="M231.949,103.421c0,3.664-0.922,6.525-2.768,8.583s-4.396,3.086-7.65,3.086
		c-2.01,0-3.793-0.472-5.352-1.415s-2.762-2.297-3.609-4.061s-1.271-3.828-1.271-6.193c0-3.664,0.916-6.518,2.748-8.562
		s4.375-3.066,7.629-3.066c3.145,0,5.643,1.046,7.496,3.138C231.023,97.022,231.949,99.853,231.949,103.421z M214.826,103.421
		c0,2.871,0.574,5.059,1.723,6.563s2.836,2.256,5.064,2.256s3.92-0.749,5.076-2.246c1.154-1.497,1.732-3.688,1.732-6.573
		c0-2.857-0.578-5.028-1.732-6.511c-1.156-1.483-2.861-2.225-5.117-2.225c-2.229,0-3.91,0.731-5.045,2.194
		S214.826,100.522,214.826,103.421z"/>
</g>
<g>
</g>
</svg>
