<?xml version="1.0" encoding="utf-8"?>
<!-- Generator: Adobe Illustrator 15.1.0, SVG Export Plug-In . SVG Version: 6.00 Build 0)  -->
<!DOCTYPE svg PUBLIC "-//W3C//DTD SVG 1.1 Tiny//EN" "http://www.w3.org/Graphics/SVG/1.1/DTD/svg11-tiny.dtd">
<svg version="1.1" baseProfile="tiny" id="Layer_1" xmlns="http://www.w3.org/2000/svg" xmlns:xlink="http://www.w3.org/1999/xlink"
	 x="0px" y="0px" width="350px" height="266px" viewBox="0 0 350 266" xml:space="preserve">
<rect x="16" fill="#999999" width="318" height="200"/>
<rect x="26" y="9" fill="#2ECC71" width="298" height="178"/>
<polygon fill="#666666" points="350,254 0,254 15.909,200 334.091,200 "/>
<polygon fill="#4D4D4D" points="323.153,229 26.847,229 34.139,200 315.861,200 "/>
<polygon fill="#4D4D4D" points="239.199,252 110.8,252 113.602,238 236.896,238 "/>
<rect y="254" fill="#999999" width="350" height="12"/>
<g>
	<path fill="#ECF0F1" d="M153.57,114.68h-3.445l-6.05-20.077c-0.287-0.889-0.608-2.01-0.964-3.363s-0.54-2.167-0.554-2.44
		c-0.301,1.805-0.779,3.78-1.436,5.927l-5.865,19.954h-3.445l-7.978-29.982h3.691l4.737,18.519c0.656,2.598,1.135,4.949,1.436,7.055
		c0.369-2.502,0.916-4.949,1.641-7.342l5.373-18.231h3.691l5.64,18.396c0.656,2.119,1.21,4.512,1.661,7.178
		c0.26-1.941,0.752-4.307,1.477-7.096l4.717-18.478h3.691L153.57,114.68z"/>
	<path fill="#ECF0F1" d="M185.172,103.421c0,3.664-0.922,6.525-2.768,8.583s-4.396,3.086-7.65,3.086
		c-2.01,0-3.794-0.472-5.353-1.415s-2.762-2.297-3.609-4.061s-1.271-3.828-1.271-6.193c0-3.664,0.916-6.518,2.748-8.562
		s4.375-3.066,7.629-3.066c3.145,0,5.643,1.046,7.495,3.138C184.246,97.022,185.172,99.853,185.172,103.421z M168.048,103.421
		c0,2.871,0.574,5.059,1.723,6.563s2.837,2.256,5.065,2.256c2.228,0,3.919-0.749,5.076-2.246c1.154-1.497,1.732-3.688,1.732-6.573
		c0-2.857-0.578-5.028-1.732-6.511c-1.156-1.483-2.861-2.225-5.117-2.225c-2.229,0-3.91,0.731-5.045,2.194
		S168.048,100.522,168.048,103.421z"/>
	<path fill="#ECF0F1" d="M201.395,91.793c0.998,0,1.893,0.082,2.686,0.246l-0.471,3.158c-0.93-0.205-1.75-0.308-2.461-0.308
		c-1.818,0-3.375,0.738-4.666,2.215c-1.293,1.477-1.938,3.315-1.938,5.517v12.059h-3.404V92.203h2.809l0.391,4.163h0.164
		c0.834-1.463,1.838-2.591,3.014-3.384S199.986,91.793,201.395,91.793z"/>
	<path fill="#ECF0F1" d="M211.648,103.175c0.588-0.834,1.482-1.928,2.686-3.281l7.26-7.69h4.041l-9.105,9.577l9.74,12.899h-4.121
		l-7.938-10.623l-2.563,2.215v8.408h-3.363V82.77h3.363v16.919c0,0.752-0.055,1.914-0.164,3.486H211.648z"/>
</g>
<g>
</g>
</svg>
