<?xml version="1.0" encoding="utf-8"?>
<!-- Generator: Adobe Illustrator 15.1.0, SVG Export Plug-In . SVG Version: 6.00 Build 0)  -->
<!DOCTYPE svg PUBLIC "-//W3C//DTD SVG 1.1 Tiny//EN" "http://www.w3.org/Graphics/SVG/1.1/DTD/svg11-tiny.dtd">
<svg version="1.1" baseProfile="tiny" id="Layer_1" xmlns="http://www.w3.org/2000/svg" xmlns:xlink="http://www.w3.org/1999/xlink"
	 x="0px" y="0px" width="100px" height="206.809px" viewBox="0 0 100 206.809" xml:space="preserve">
<path fill="#666666" d="M99.905,9.615C98.383,4.615,76.627,0,50,0C23.374,0,1.617,4.615,0.093,9.615H0v186h0.093
	c-0.056,0-0.093,0.648-0.093,0.852c0,5.641,22.386,10.342,50,10.342c27.614,0,50-4.763,50-10.404c0-0.202-0.036-0.789-0.095-0.789
	H100v-186H99.905z M24.52,5.573c1.062,0,1.922,0.861,1.922,1.923s-0.861,1.923-1.922,1.923c-1.063,0-1.923-0.861-1.923-1.923
	S23.457,5.573,24.52,5.573z M47.596,7.175c0-1.328,1.076-2.404,2.404-2.404s2.404,1.076,2.404,2.404
	c0,1.328-1.076,2.403-2.404,2.403S47.596,8.503,47.596,7.175z M98,13.615v179H2v-179H98z M71,197.115c0,0.828-0.671,1.5-1.5,1.5h-41
	c-0.829,0-1.5-0.672-1.5-1.5l0,0c0-0.828,0.671-1.5,1.5-1.5h41C70.329,195.615,71,196.287,71,197.115L71,197.115z"/>
<path fill="#BDC3C7" d="M71,197.115c0-0.828-0.671-1.5-1.5-1.5h-41c-0.829,0-1.5,0.672-1.5,1.5l0,0c0,0.828,0.671,1.5,1.5,1.5h41
	C70.329,198.615,71,197.943,71,197.115L71,197.115z"/>
<circle fill="#BDC3C7" cx="24.52" cy="7.496" r="1.923"/>
<circle fill="#A9A9AA" cx="50" cy="7.175" r="2.404"/>
<rect x="2" y="13.615" fill="#27AE60" width="96" height="179"/>
<g>
	<path fill="#ECF0F1" d="M38.225,104.771h-1.893L33.008,93.74c-0.158-0.488-0.334-1.104-0.53-1.848s-0.297-1.19-0.304-1.341
		c-0.165,0.992-0.428,2.077-0.789,3.256l-3.223,10.964H26.27l-4.383-16.474h2.028l2.603,10.175c0.36,1.427,0.623,2.719,0.789,3.876
		c0.203-1.375,0.503-2.719,0.901-4.034l2.952-10.017h2.028l3.099,10.107c0.361,1.164,0.665,2.479,0.913,3.943
		c0.143-1.066,0.413-2.366,0.811-3.898l2.592-10.152h2.028L38.225,104.771z"/>
	<path fill="#ECF0F1" d="M55.589,98.585c0,2.013-0.507,3.585-1.521,4.715c-1.014,1.131-2.415,1.696-4.203,1.696
		c-1.104,0-2.084-0.259-2.941-0.778c-0.856-0.518-1.518-1.262-1.983-2.231c-0.466-0.969-0.699-2.103-0.699-3.403
		c0-2.013,0.503-3.582,1.51-4.705s2.404-1.685,4.192-1.685c1.728,0,3.101,0.575,4.118,1.724
		C55.08,95.069,55.589,96.624,55.589,98.585z M46.18,98.585c0,1.578,0.315,2.779,0.947,3.605c0.631,0.827,1.559,1.24,2.783,1.24
		c1.224,0,2.154-0.411,2.789-1.234s0.952-2.026,0.952-3.611c0-1.57-0.317-2.763-0.952-3.578s-1.572-1.223-2.812-1.223
		c-1.224,0-2.148,0.402-2.772,1.206C46.492,95.794,46.18,96.992,46.18,98.585z"/>
	<path fill="#ECF0F1" d="M64.502,92.196c0.548,0,1.041,0.045,1.476,0.135l-0.259,1.735c-0.511-0.113-0.961-0.169-1.352-0.169
		c-0.999,0-1.854,0.406-2.563,1.217c-0.71,0.812-1.065,1.822-1.065,3.031v6.625h-1.87v-12.35h1.543l0.214,2.287h0.09
		c0.458-0.804,1.01-1.423,1.656-1.859S63.728,92.196,64.502,92.196z"/>
	<path fill="#ECF0F1" d="M70.136,98.45c0.323-0.458,0.815-1.059,1.476-1.803l3.989-4.226h2.22l-5.003,5.262l5.353,7.087h-2.265
		l-4.361-5.837l-1.409,1.217v4.62h-1.848V87.238h1.848v9.296c0,0.413-0.03,1.052-0.09,1.916H70.136z"/>
</g>
</svg>
