<?xml version="1.0" encoding="utf-8"?>
<!-- Generator: Adobe Illustrator 15.1.0, SVG Export Plug-In . SVG Version: 6.00 Build 0)  -->
<!DOCTYPE svg PUBLIC "-//W3C//DTD SVG 1.1//EN" "http://www.w3.org/Graphics/SVG/1.1/DTD/svg11.dtd">
<svg version="1.1" id="Layer_1" xmlns="http://www.w3.org/2000/svg" xmlns:xlink="http://www.w3.org/1999/xlink" x="0px" y="0px"
	 width="448.318px" height="76.26px" viewBox="0 0 448.318 76.26" enable-background="new 0 0 448.318 76.26" xml:space="preserve">
<g>
	<g>
	</g>
	<rect x="15" fill="#999999" width="79" height="50"/>
	<rect x="17" y="3" fill="#2980B9" width="75" height="44"/>
	<polygon fill="#666666" points="98.625,64 11.125,64 15.103,50 94.647,50 	"/>
	<polygon fill="#4D4D4D" points="91.913,58 17.837,58 19.66,50 90.09,50 	"/>
	<polygon fill="#4D4D4D" points="70.925,63 38.825,63 39.525,60 70.35,60 	"/>
	<rect x="11" y="64" fill="#999999" width="87" height="3"/>
	<g>
	</g>
	<path fill="#7F8C8D" d="M16,68.75c0,0.69-0.56,1.25-1.25,1.25H1.25C0.56,70,0,69.44,0,68.75v-26.5C0,41.56,0.56,41,1.25,41h13.5
		c0.69,0,1.25,0.56,1.25,1.25V68.75z"/>
	<rect x="1" y="43" fill="#2ECC71" width="13" height="24"/>
	<path fill="#BDC3C7" d="M11,68.146C11,68.617,10.618,69,10.146,69H5.854C5.382,69,5,68.617,5,68.146v-0.291
		C5,67.383,5.382,67,5.854,67h4.293C10.618,67,11,67.383,11,67.854V68.146z"/>
	<path fill="#BDC3C7" d="M13,42.75c0,0.138-0.112,0.25-0.25,0.25H2.25C2.112,43,2,42.888,2,42.75v-0.5C2,42.112,2.112,42,2.25,42
		h10.5c0.138,0,0.25,0.112,0.25,0.25V42.75z"/>
	<path fill="#7F8C8D" d="M122,70.504c0,0.274-0.222,0.496-0.496,0.496H76.496C76.222,71,76,70.778,76,70.504V39.496
		C76,39.222,76.222,39,76.496,39h45.008c0.274,0,0.496,0.222,0.496,0.496V70.504z"/>
	<rect x="77" y="41" fill="#E74C3C" width="43" height="26"/>
	<path fill="#BDC3C7" d="M103,69.5c0,0.276-0.224,0.5-0.5,0.5h-8c-0.276,0-0.5-0.224-0.5-0.5v-1c0-0.276,0.224-0.5,0.5-0.5h8
		c0.276,0,0.5,0.224,0.5,0.5V69.5z"/>
</g>
<g>
	<path fill="#2C3E50" d="M145.584,22.111c-3.418,0-6.064,1.285-7.939,3.853c-1.875,2.568-2.813,6.148-2.813,10.737
		c0,9.551,3.584,14.326,10.752,14.326c3.008,0,6.65-0.752,10.928-2.256v7.617c-3.516,1.465-7.441,2.197-11.777,2.197
		c-6.23,0-10.996-1.89-14.297-5.669s-4.951-9.204-4.951-16.274c0-4.453,0.811-8.354,2.432-11.704c1.621-3.35,3.95-5.918,6.987-7.705
		s6.597-2.681,10.679-2.681c4.16,0,8.34,1.006,12.539,3.018l-2.93,7.383c-1.602-0.762-3.213-1.425-4.834-1.992
		C148.738,22.395,147.146,22.111,145.584,22.111z"/>
	<path fill="#2C3E50" d="M194.686,41.564c0,5.332-1.406,9.502-4.219,12.51s-6.729,4.512-11.748,4.512
		c-3.145,0-5.918-0.688-8.32-2.065s-4.248-3.354-5.537-5.933s-1.934-5.586-1.934-9.023c0-5.351,1.396-9.511,4.189-12.48
		c2.793-2.969,6.719-4.453,11.777-4.453c3.145,0,5.918,0.684,8.32,2.051c2.402,1.367,4.248,3.33,5.537,5.889
		C194.041,35.129,194.686,38.127,194.686,41.564z M172.039,41.564c0,3.242,0.532,5.693,1.597,7.354s2.798,2.49,5.2,2.49
		c2.383,0,4.097-0.825,5.142-2.476s1.567-4.106,1.567-7.368c0-3.242-0.527-5.673-1.582-7.295c-1.055-1.621-2.783-2.432-5.186-2.432
		c-2.383,0-4.102,0.806-5.156,2.417S172.039,38.303,172.039,41.564z"/>
	<path fill="#2C3E50" d="M220.35,24.631c1.211,0,2.217,0.088,3.018,0.264l-0.674,8.379c-0.723-0.195-1.602-0.293-2.637-0.293
		c-2.852,0-5.073,0.732-6.665,2.197s-2.388,3.516-2.388,6.152V58h-8.936V25.246h6.768l1.318,5.508h0.439
		c1.016-1.835,2.388-3.315,4.116-4.438C216.438,25.192,218.318,24.631,220.35,24.631z"/>
	<path fill="#2C3E50" d="M224.627,25.246h9.785l6.182,18.428c0.527,1.602,0.889,3.496,1.084,5.684h0.176
		c0.215-2.012,0.635-3.906,1.26-5.684l6.064-18.428h9.58L244.9,62.189c-1.27,3.418-3.081,5.977-5.435,7.676
		s-5.103,2.549-8.247,2.549c-1.543,0-3.057-0.166-4.541-0.498v-7.09c1.074,0.254,2.246,0.381,3.516,0.381
		c1.582,0,2.964-0.483,4.146-1.45s2.104-2.427,2.769-4.38l0.527-1.611L224.627,25.246z"/>
</g>
<g>
	<path fill="#27AE60" d="M294.744,38.174c0,7.07-1.919,12.476-5.757,16.216S279.627,60,272.42,60h-11.865V17.168h13.125
		c6.66,0,11.836,1.846,15.527,5.537S294.744,31.553,294.744,38.174z M289.471,38.35c0-5.585-1.401-9.795-4.204-12.627
		c-2.803-2.832-6.968-4.248-12.495-4.248h-7.236v34.219h6.064c5.938,0,10.4-1.46,13.389-4.38S289.471,44.072,289.471,38.35z"/>
	<path fill="#27AE60" d="M331.277,43.916c0,5.234-1.318,9.321-3.955,12.261s-6.279,4.409-10.928,4.409
		c-2.871,0-5.42-0.674-7.646-2.021s-3.945-3.281-5.156-5.801s-1.816-5.469-1.816-8.848c0-5.234,1.309-9.312,3.926-12.231
		c2.617-2.919,6.25-4.38,10.898-4.38c4.492,0,8.062,1.494,10.708,4.482S331.277,38.818,331.277,43.916z M306.814,43.916
		c0,4.102,0.82,7.227,2.461,9.375s4.053,3.223,7.236,3.223s5.601-1.069,7.251-3.208s2.476-5.269,2.476-9.39
		c0-4.082-0.825-7.182-2.476-9.302c-1.65-2.119-4.087-3.179-7.31-3.179c-3.184,0-5.586,1.045-7.207,3.135
		C307.625,36.661,306.814,39.775,306.814,43.916z"/>
	<path fill="#27AE60" d="M366.023,60l-5.889-18.838c-0.371-1.152-1.064-3.769-2.08-7.852h-0.234
		c-0.781,3.418-1.465,6.055-2.051,7.91L349.705,60h-5.625l-8.76-32.109h5.098c2.07,8.067,3.647,14.209,4.731,18.428
		s1.704,7.061,1.86,8.525h0.234c0.215-1.113,0.562-2.554,1.04-4.321s0.894-3.169,1.245-4.204l5.889-18.428h5.273l5.742,18.428
		c1.094,3.359,1.836,6.182,2.227,8.467h0.234c0.078-0.703,0.288-1.787,0.63-3.252s2.378-9.346,6.108-23.643h5.039L371.795,60
		H366.023z"/>
	<path fill="#27AE60" d="M408.328,55.693h-0.264c-2.246,3.262-5.605,4.893-10.078,4.893c-4.199,0-7.466-1.436-9.8-4.307
		s-3.501-6.953-3.501-12.246c0-5.292,1.172-9.404,3.516-12.334s5.605-4.395,9.785-4.395c4.355,0,7.695,1.582,10.02,4.746h0.381
		l-0.205-2.314l-0.117-2.256V14.414h4.863V60h-3.955L408.328,55.693z M398.602,56.514c3.32,0,5.728-0.903,7.222-2.71
		s2.241-4.722,2.241-8.745v-1.025c0-4.551-0.757-7.797-2.271-9.741c-1.514-1.943-3.931-2.915-7.251-2.915
		c-2.852,0-5.034,1.109-6.548,3.325c-1.514,2.217-2.271,5.347-2.271,9.39c0,4.102,0.752,7.197,2.256,9.287
		S395.691,56.514,398.602,56.514z"/>
	<path fill="#27AE60" d="M418.143,27.891h5.215l7.031,18.311c1.543,4.18,2.5,7.197,2.871,9.053h0.234
		c0.254-0.996,0.786-2.7,1.597-5.112s3.462-9.829,7.954-22.251h5.215l-13.799,36.563c-1.367,3.613-2.964,6.177-4.79,7.69
		s-4.067,2.271-6.724,2.271c-1.484,0-2.949-0.166-4.395-0.498V70.02c1.074,0.234,2.275,0.352,3.604,0.352
		c3.34,0,5.723-1.875,7.148-5.625l1.787-4.57L418.143,27.891z"/>
</g>
</svg>
